<svg width="64" height="65" viewBox="0 0 64 65" fill="none" xmlns="http://www.w3.org/2000/svg"><path d="M27.6875 12.6L28.1875 7.125H35.175L35.675 12.6" stroke="white" stroke-width="1.5" stroke-miterlimit="10" stroke-linecap="round" stroke-linejoin="round"></path><path d="M35.675 52.275L35.175 57.75H28.1875L27.6875 52.275" stroke="white" stroke-width="1.5" stroke-miterlimit="10" stroke-linecap="round" stroke-linejoin="round"></path><path d="M11.85 36.4375L6.375 35.925V28.95L11.85 28.4375" stroke="white" stroke-width="1.5" stroke-miterlimit="10" stroke-linecap="round" stroke-linejoin="round"></path><path d="M14.7375 21.3876L11.1875 17.1876L16.075 12.2001L20.3375 15.6751" stroke="white" stroke-width="1.5" stroke-miterlimit="10" stroke-linecap="round" stroke-linejoin="round"></path><path d="M20.6252 49.3876L16.4377 52.9376L11.4502 48.0376L14.9252 43.7876" stroke="white" stroke-width="1.5" stroke-miterlimit="10" stroke-linecap="round" stroke-linejoin="round"></path><path d="M31.6877 41.6126C36.7549 41.6126 40.8627 37.5048 40.8627 32.4376C40.8627 27.3704 36.7549 23.2626 31.6877 23.2626C26.6205 23.2626 22.5127 27.3704 22.5127 32.4376C22.5127 37.5048 26.6205 41.6126 31.6877 41.6126Z" stroke="white" stroke-width="1.5" stroke-miterlimit="10" stroke-linecap="round" stroke-linejoin="round"></path><path d="M11.8379 28.4375C12.3504 25.875 13.3504 23.4875 14.7254 21.375" stroke="white" stroke-width="1.5" stroke-miterlimit="10" stroke-linecap="round" stroke-linejoin="round"></path><path d="M14.9254 43.7875C13.4504 41.6 12.3754 39.1125 11.8379 36.4375" stroke="white" stroke-width="1.5" stroke-miterlimit="10" stroke-linecap="round" stroke-linejoin="round"></path><path d="M27.6875 52.2751C25.125 51.7626 22.7375 50.7626 20.625 49.3876" stroke="white" stroke-width="1.5" stroke-miterlimit="10" stroke-linecap="round" stroke-linejoin="round"></path><path d="M43.0248 49.2001C40.8373 50.6751 38.3498 51.7501 35.6748 52.2876" stroke="white" stroke-width="1.5" stroke-miterlimit="10" stroke-linecap="round" stroke-linejoin="round"></path><path d="M35.6748 12.6C38.2373 13.1125 40.6248 14.1125 42.7373 15.4875" stroke="white" stroke-width="1.5" stroke-miterlimit="10" stroke-linecap="round" stroke-linejoin="round"></path><path d="M20.3379 15.6749C22.5004 14.2124 24.9629 13.1499 27.6004 12.6124" stroke="white" stroke-width="1.5" stroke-miterlimit="10" stroke-linecap="round" stroke-linejoin="round"></path><path d="M45.3252 27.6375L51.5877 21.375L57.8502 27.6375" stroke="#D3DF4C" stroke-width="1.5" stroke-miterlimit="10" stroke-linecap="round" stroke-linejoin="round"></path><path d="M51.5879 21.375V43.5" stroke="#D3DF4C" stroke-width="1.5" stroke-miterlimit="10" stroke-linecap="round" stroke-linejoin="round"></path></svg>