<svg width="64" height="64" viewBox="0 0 64 64" fill="none" xmlns="http://www.w3.org/2000/svg"><path d="M24.1251 41.3122L23.2376 40.4247C22.3251 39.5122 22.3251 38.0247 23.2376 37.1122L29.4001 30.9622C30.3126 30.0497 31.8001 30.0497 32.7126 30.9622L33.6001 31.8497C34.5126 32.7622 34.5126 34.2497 33.6001 35.1622L27.4376 41.3122C26.5251 42.2247 25.0376 42.2247 24.1251 41.3122Z" stroke="#D3DF4C" stroke-width="2" stroke-miterlimit="10" stroke-linecap="round" stroke-linejoin="round"></path><path d="M26.3247 34.0376L30.5247 38.2376" stroke="#D3DF4C" stroke-width="2" stroke-miterlimit="10" stroke-linecap="round" stroke-linejoin="round"></path><path d="M38 37.2625L34.05 41.2124C33.2375 40.1124 33.3376 38.5499 34.3376 37.5499C35.3376 36.55 36.8875 36.45 38 37.2625Z" fill="#D3DF4C"></path><path d="M34.6626 41.825L38.6126 37.875C39.4251 38.975 39.3251 40.5375 38.3251 41.5375C37.3376 42.5375 35.7751 42.6375 34.6626 41.825Z" fill="#D3DF4C"></path><path d="M20.8247 55.2625C18.9622 55.2625 17.4497 53.75 17.4497 51.8875V23.0375C17.4497 20.3625 18.6372 17.875 20.7122 16.1875C21.3372 15.675 22.1122 15.325 22.9247 15.175L23.1247 15.1375V13.0625L24.3247 13.1V15.15H39.0747V13.1L40.2747 13.0625V15.1875H40.5122C41.3122 15.35 42.0622 15.7 42.6872 16.2C44.7622 17.8875 45.9497 20.375 45.9497 23.05V51.9C45.9497 53.7625 44.4372 55.275 42.5747 55.275H20.8247V55.2625ZM18.6497 51.8875C18.6497 53.0875 19.6247 54.0625 20.8122 54.0625H42.5622C43.7622 54.0625 44.7372 53.0875 44.7372 51.8875V46.975H18.6497V51.8875ZM18.6497 45.7625H44.7497V26.7H18.6497V45.7625ZM23.8747 16.275C22.9872 16.275 22.1372 16.575 21.4747 17.1125C19.6872 18.5625 18.6622 20.725 18.6622 23.025V25.5H44.7497V23.0375C44.7497 20.7375 43.7247 18.575 41.9372 17.125C41.2747 16.5875 40.4122 16.2875 39.5372 16.2875H23.8747V16.275Z" fill="#32363B"></path><path d="M22.9375 13.4501C22 13.2626 21.3125 12.4376 21.3125 11.4751V8.6251C21.3125 7.5126 22.225 6.6001 23.3375 6.6001H40.075C41.1875 6.6001 42.1 7.5126 42.1 8.6251V11.4626C42.1 12.4001 41.4375 13.2251 40.525 13.4251L22.9375 13.4501ZM23.3375 7.8126C22.8875 7.8126 22.5125 8.1751 22.5125 8.6376V11.4751C22.5125 11.9251 22.875 12.3001 23.3375 12.3001H40.075C40.525 12.3001 40.9 11.9376 40.9 11.4751V8.6251C40.9 8.1751 40.5375 7.8001 40.075 7.8001H23.3375V7.8126Z" fill="#D3DF4C"></path></svg>