<svg width="64" height="65" viewBox="0 0 64 65" fill="none" xmlns="http://www.w3.org/2000/svg"><path d="M29.125 10.025L29.575 5.16248H35.775L36.225 10.025" stroke="white" stroke-width="1.5" stroke-miterlimit="10" stroke-linecap="round" stroke-linejoin="round"></path><path d="M50.3125 24.1125L55.175 24.5625V27.6625V30.7626L50.3125 31.2125" stroke="white" stroke-width="1.5" stroke-miterlimit="10" stroke-linecap="round" stroke-linejoin="round"></path><path d="M15.0373 31.2125L10.1748 30.7626V24.5625L15.0373 24.1125" stroke="white" stroke-width="1.5" stroke-miterlimit="10" stroke-linecap="round" stroke-linejoin="round"></path><path d="M17.6127 17.8374L14.4502 14.0999L18.8002 9.67493L22.5877 12.7624" stroke="white" stroke-width="1.5" stroke-miterlimit="10" stroke-linecap="round" stroke-linejoin="round"></path><path d="M42.5 12.6L46.2375 9.4375L50.6625 13.7875L47.5625 17.575" stroke="white" stroke-width="1.5" stroke-miterlimit="10" stroke-linecap="round" stroke-linejoin="round"></path><path d="M15.0371 24.1124C15.4871 21.8374 16.3746 19.7124 17.6121 17.8374" stroke="white" stroke-width="1.5" stroke-miterlimit="10" stroke-linecap="round" stroke-linejoin="round"></path><path d="M47.5752 17.575C48.8877 19.5125 49.8377 21.7249 50.3127 24.1124" stroke="white" stroke-width="1.5" stroke-miterlimit="10" stroke-linecap="round" stroke-linejoin="round"></path><path d="M36.2246 10.0249C38.4996 10.4874 40.6246 11.3624 42.4996 12.5999" stroke="white" stroke-width="1.5" stroke-miterlimit="10" stroke-linecap="round" stroke-linejoin="round"></path><path d="M22.5869 12.7625C24.5119 11.4625 26.6994 10.5125 29.0494 10.0375" stroke="white" stroke-width="1.5" stroke-miterlimit="10" stroke-linecap="round" stroke-linejoin="round"></path><path d="M46.7004 28.725C46.7004 41.725 35.9629 44.275 35.9629 44.275C35.9629 44.275 46.7004 46.825 46.7004 59.825H18.6504C18.6504 46.825 29.3879 44.275 29.3879 44.275C29.3879 44.275 18.6504 41.725 18.6504 28.725" stroke="white" stroke-width="1.5" stroke-miterlimit="10" stroke-linecap="round" stroke-linejoin="round"></path><path d="M41.5375 35.4C38.3375 41.075 32.675 42.425 32.675 42.425C32.675 42.425 27.0125 41.075 23.8125 35.4H41.5375Z" fill="#D3DF4C"></path><path d="M42.6 56.6126H22.75C24.9 47.9876 32.675 46.1376 32.675 46.1376C32.675 46.1376 40.45 47.9876 42.6 56.6126Z" fill="#D3DF4C"></path><path d="M33.9502 42.4125L33.3752 47.0125C33.3252 47.4 32.9752 47.675 32.5752 47.6375C32.2502 47.6 32.0002 47.3375 31.9502 47.0125L31.3752 42.4125C31.2877 41.7 31.7877 41.0625 32.5002 40.975C33.2127 40.8875 33.8502 41.3875 33.9377 42.1C33.9627 42.2 33.9627 42.3 33.9502 42.4125Z" fill="#D3DF4C"></path></svg>