<svg width="64" height="64" viewBox="0 0 64 64" fill="none" xmlns="http://www.w3.org/2000/svg"><path d="M19.4746 44.9251C13.1871 41.2376 9.02464 34.3376 9.21214 26.4876C9.48714 15.4876 18.4496 6.52508 29.4496 6.25008C41.1496 5.96258 50.7246 15.3626 50.7246 27.0001L54.4871 34.5626C55.2246 36.0376 54.1496 37.7751 52.4996 37.7751H50.5371V43.7876C50.5371 46.0876 48.6746 47.9501 46.3746 47.9501H39.8121V58.1251H19.4746V44.9251Z" stroke="#32363B" stroke-width="2" stroke-miterlimit="10" stroke-linecap="round" stroke-linejoin="round"></path><path d="M30.6123 29.1996H35.3623C36.1123 29.1996 36.7248 28.5871 36.7248 27.8371C36.7248 27.0996 36.3498 26.6371 36.1748 26.4621C36.0248 26.3121 35.8748 26.1621 35.7623 25.9871C35.3873 25.4371 35.1748 24.7621 35.1998 24.0371C35.2123 23.5621 35.3248 23.1246 35.5248 22.7121C36.6623 20.3746 40.0498 20.3746 41.1873 22.7121C41.3873 23.1121 41.4998 23.5621 41.5123 24.0371C41.5373 24.7621 41.3248 25.4371 40.9498 25.9871C40.8248 26.1621 40.6873 26.3246 40.5373 26.4621C40.3498 26.6371 39.9873 27.0996 39.9873 27.8371C39.9873 28.5871 40.5998 29.1996 41.3498 29.1996H46.0998" stroke="#32363B" stroke-width="2" stroke-miterlimit="10" stroke-linecap="round" stroke-linejoin="round"></path><path d="M30.6125 29.2002H25.8625C25.1125 29.2002 24.5 29.8127 24.5 30.5627C24.5 31.3002 24.875 31.7627 25.05 31.9377C25.2 32.0877 25.35 32.2377 25.4625 32.4127C25.8375 32.9627 26.05 33.6377 26.025 34.3627C26.0125 34.8377 25.9 35.2752 25.7 35.6877C24.5625 38.0252 21.175 38.0252 20.0375 35.6877C19.8375 35.2877 19.725 34.8377 19.7125 34.3627C19.6875 33.6377 19.9 32.9627 20.275 32.4127C20.4 32.2377 20.5375 32.0752 20.6875 31.9377C20.875 31.7627 21.2375 31.3002 21.2375 30.5627C21.2375 29.8127 20.625 29.2002 19.875 29.2002H15.125" stroke="#32363B" stroke-width="2" stroke-miterlimit="10" stroke-linecap="round" stroke-linejoin="round"></path><path d="M30.6127 29.1999V24.4499C30.6127 23.6999 30.0002 23.0874 29.2502 23.0874C28.5127 23.0874 28.0502 23.4624 27.8752 23.6374C27.7252 23.7874 27.5752 23.9374 27.4002 24.0499C26.8502 24.4249 26.1752 24.6374 25.4502 24.6124C24.9752 24.5999 24.5377 24.4874 24.1252 24.2874C21.7877 23.1499 21.7877 19.7624 24.1252 18.6249C24.5252 18.4249 24.9752 18.3124 25.4502 18.2999C26.1752 18.2749 26.8502 18.4874 27.4002 18.8624C27.5752 18.9874 27.7377 19.1249 27.8752 19.2749C28.0502 19.4624 28.5127 19.8249 29.2502 19.8249C30.0002 19.8249 30.6127 19.2124 30.6127 18.4624V13.7124" stroke="#D3DF4C" stroke-width="2" stroke-miterlimit="10" stroke-linecap="round" stroke-linejoin="round"></path><path d="M30.6123 29.2002V33.9502C30.6123 34.7002 31.2248 35.3127 31.9748 35.3127C32.7123 35.3127 33.1748 34.9377 33.3498 34.7627C33.4998 34.6127 33.6498 34.4627 33.8248 34.3502C34.3748 33.9752 35.0498 33.7627 35.7748 33.7877C36.2498 33.8002 36.6873 33.9127 37.0998 34.1127C39.4373 35.2502 39.4373 38.6377 37.0998 39.7752C36.6998 39.9752 36.2498 40.0877 35.7748 40.1002C35.0498 40.1252 34.3748 39.9127 33.8248 39.5377C33.6498 39.4127 33.4873 39.2752 33.3498 39.1252C33.1748 38.9377 32.7123 38.5752 31.9748 38.5752C31.2248 38.5752 30.6123 39.1877 30.6123 39.9377V44.6877" stroke="#32363B" stroke-width="2" stroke-miterlimit="10" stroke-linecap="round" stroke-linejoin="round"></path></svg>