<svg width="64" height="65" viewBox="0 0 64 65" fill="none" xmlns="http://www.w3.org/2000/svg"><path d="M33.8379 27.375C40.1201 27.375 45.2129 22.2822 45.2129 16C45.2129 9.71776 40.1201 4.625 33.8379 4.625C27.5557 4.625 22.4629 9.71776 22.4629 16C22.4629 22.2822 27.5557 27.375 33.8379 27.375Z" stroke="white" stroke-width="1.5" stroke-miterlimit="10" stroke-linecap="round" stroke-linejoin="round"></path><path d="M18.1006 39.4876C21.7131 34.8251 27.3631 31.8251 33.7131 31.8251C44.6131 31.8251 53.4506 40.6626 53.4506 51.5626V60.3751" stroke="white" stroke-width="1.5" stroke-miterlimit="10" stroke-linecap="round" stroke-linejoin="round"></path><path d="M13.9629 60.375V50.0375" stroke="white" stroke-width="1.5" stroke-miterlimit="10" stroke-linecap="round" stroke-linejoin="round"></path><path d="M19.3996 53.1126C25.0191 53.1126 29.5746 48.5571 29.5746 42.9376C29.5746 37.3181 25.0191 32.7626 19.3996 32.7626C13.7801 32.7626 9.22461 37.3181 9.22461 42.9376C9.22461 48.5571 13.7801 53.1126 19.3996 53.1126Z" fill="#D3DF4C"></path><path d="M16.4502 43.275L18.1877 45.0125L22.3502 40.85" stroke="white" stroke-miterlimit="10" stroke-linecap="round" stroke-linejoin="round"></path></svg>