<svg width="1600" height="667" viewBox="0 0 1600 667" fill="none" xmlns="http://www.w3.org/2000/svg"><path opacity="0.3" d="M816.305 652.394C990.082 652.394 1130.96 649.727 1130.96 646.438C1130.96 643.149 990.082 640.482 816.305 640.482C642.527 640.482 501.652 643.149 501.652 646.438C501.652 649.727 642.527 652.394 816.305 652.394Z" fill="#F2F6FB"></path><path d="M775.988 640.522L853.758 640.521L853.758 518.65L775.988 518.65L775.988 640.522Z" fill="#E8ECF1"></path><path d="M853.765 640.522L923.758 640.521L923.758 518.65L853.765 518.65L853.765 640.522Z" fill="#F2F2F2"></path><path d="M775.962 561.781L853.605 561.781L853.605 558.584L775.962 558.584L775.962 561.781Z" fill="#A1B8C4"></path><path d="M775.962 602.764L853.605 602.764L853.605 599.566L775.962 599.566L775.962 602.764Z" fill="#A1B8C4"></path><path d="M796.488 559.674H828.349C828.349 555.724 825.15 552.59 821.262 552.59H803.575C799.687 552.59 796.488 555.787 796.488 559.674Z" fill="#A1B8C4"></path><path d="M796.488 601.176H828.349C828.349 597.226 825.15 594.092 821.262 594.092H803.575C799.687 594.092 796.488 597.289 796.488 601.176Z" fill="#A1B8C4"></path><path d="M758.856 492.845H713.637C713.637 486.701 718.654 481.686 724.8 481.686H747.692C753.901 481.686 758.856 486.701 758.856 492.845Z" fill="#E8ECF1"></path><path d="M741.047 490.336H728.566L734.838 464.006H747.319L741.047 490.336Z" fill="#E8ECF1"></path><path d="M873.68 640.476L891.68 640.477L891.68 496.914L873.68 496.914L873.68 640.476Z" fill="#E8ECF1"></path><path d="M882.662 478.738H832.613V491.465H882.662V478.738Z" fill="#E9E8F4"></path><path d="M885.233 478.739H832.613V474.664H885.233C886.362 474.664 887.303 475.604 887.303 476.733C887.303 477.799 886.362 478.739 885.233 478.739Z" fill="#D2DE4C"></path><path d="M885.233 491.466H834.62C833.492 491.466 832.551 490.525 832.551 489.397C832.551 488.269 833.492 487.328 834.62 487.328H885.233C886.362 487.328 887.303 488.269 887.303 489.397C887.303 490.525 886.362 491.466 885.233 491.466Z" fill="#D2DE4C"></path><path d="M863.973 491.465H818.44C814.238 491.465 810.852 488.394 810.852 484.632V481.435C810.852 477.673 814.238 474.602 818.44 474.602H863.973C857.011 474.664 857.011 491.465 863.973 491.465Z" fill="#D2DE4C"></path><path d="M861.59 491.465H816.058C811.855 491.465 808.469 488.394 808.469 484.632V481.435C808.469 477.673 811.855 474.602 816.058 474.602H861.59C854.629 474.664 854.629 491.465 861.59 491.465Z" fill="#D2DE4C"></path><path d="M681.371 640.455H699.371V497.895H681.371V640.455Z" fill="#E8ECF1"></path><path d="M565.875 503.689H993.418C997.118 503.689 1000.13 500.68 1000.13 496.981C1000.13 493.283 997.118 490.273 993.418 490.273H565.875C562.174 490.273 559.164 493.283 559.164 496.981C559.164 500.743 562.174 503.689 565.875 503.689Z" fill="#F2F2F2"></path><path d="M847.664 503.689H1004.02C1007.72 503.689 1010.73 500.68 1010.73 496.981C1010.73 493.283 1007.72 490.273 1004.02 490.273H847.664C843.964 490.273 840.953 493.283 840.953 496.981C840.953 500.743 843.964 503.689 847.664 503.689Z" fill="#E8ECF1"></path><path d="M601.113 642.414L618.234 642.414L618.236 500.857L601.114 500.857L601.113 642.414Z" fill="#F2F2F2"></path><path d="M682.781 549.518H555.277V570.456H682.781V549.518Z" fill="#E8ECF1"></path><path d="M631.103 552.275L547.689 545.567L515.703 441.5H587.389C596.169 441.5 603.821 447.393 606.016 455.856L631.103 552.275Z" fill="#E8ECF1"></path><path d="M541.92 647.943C540.038 647.629 538.721 645.874 538.972 643.993L552.394 553.592C552.707 551.712 554.463 550.395 556.345 550.646C558.226 550.959 559.543 552.715 559.292 554.595L545.871 645.059C545.62 646.939 543.864 648.256 541.92 647.943Z" fill="#E8ECF1"></path><path d="M590.146 647.943C588.265 647.629 586.948 645.874 587.199 643.993L600.62 553.592C600.934 551.712 602.69 550.395 604.571 550.646C606.453 550.959 607.77 552.715 607.519 554.595L594.098 645.059C593.784 646.939 592.028 648.256 590.146 647.943Z" fill="#E8ECF1"></path><path d="M631.103 647.943C632.984 647.629 634.301 645.874 634.05 643.993L620.629 553.592C620.315 551.712 618.559 550.395 616.678 550.646C614.796 550.959 613.479 552.715 613.73 554.595L627.151 645.059C627.465 646.939 629.221 648.256 631.103 647.943Z" fill="#E8ECF1"></path><path d="M693.067 647.943C694.949 647.629 696.266 645.874 696.015 643.993L682.594 553.592C682.28 551.712 680.524 550.395 678.642 550.646C676.761 550.959 675.444 552.715 675.695 554.595L689.116 645.059C689.43 646.939 691.186 648.256 693.067 647.943Z" fill="#24315E"></path><path d="M543.549 510.523C526.678 447.268 517.208 441.5 517.208 441.5C513.821 441.5 511.438 444.697 512.316 447.957L538.72 544C541.166 553.027 549.382 559.234 558.727 559.234H560.734H614.232L615.298 551.147C613.479 537.794 553.396 561.365 543.549 510.523Z" fill="#F2F2F2"></path><path d="M686.985 559.234H616.366C612.854 559.234 610.031 556.413 610.031 552.902C610.031 549.391 612.854 546.57 616.366 546.57H686.985C690.497 546.57 693.32 549.391 693.32 552.902C693.32 556.413 690.497 559.234 686.985 559.234Z" fill="#E8ECF1"></path><path d="M916.676 570.477L1044.18 570.477L1044.18 549.538L916.676 549.538L916.676 570.477Z" fill="#E8ECF1"></path><path d="M968.332 552.275L1051.75 545.567L1083.73 441.5H1012.11C1003.33 441.5 995.677 447.393 993.482 455.856L968.332 552.275Z" fill="#E8ECF1"></path><path d="M1057.52 647.943C1059.4 647.629 1060.72 645.874 1060.46 643.993L1047.04 553.592C1046.73 551.712 1044.97 550.395 1043.09 550.646C1041.21 550.959 1039.89 552.715 1040.14 554.595L1053.57 644.996C1053.82 646.939 1055.57 648.256 1057.52 647.943Z" fill="#E8ECF1"></path><path d="M1009.29 647.943C1011.17 647.629 1012.49 645.874 1012.24 643.993L998.816 553.592C998.503 551.712 996.747 550.395 994.865 550.646C992.984 550.959 991.666 552.715 991.917 554.595L1005.34 645.059C1005.65 646.939 1007.41 648.256 1009.29 647.943Z" fill="#E8ECF1"></path><path d="M968.334 647.943C966.452 647.629 965.135 645.874 965.386 643.993L978.808 553.592C979.121 551.712 980.877 550.395 982.759 550.646C984.64 550.959 985.957 552.715 985.706 554.595L972.285 645.059C971.971 646.939 970.215 648.256 968.334 647.943Z" fill="#E8ECF1"></path><path d="M906.306 647.943C904.425 647.629 903.108 645.874 903.359 643.993L916.78 553.592C917.094 551.712 918.85 550.395 920.731 550.646C922.613 550.959 923.93 552.715 923.679 554.595L910.32 645.059C910.007 646.939 908.251 648.256 906.306 647.943Z" fill="#E8ECF1"></path><path d="M1055.89 510.523C1072.76 447.268 1082.23 441.5 1082.23 441.5C1085.61 441.5 1088 444.697 1087.12 447.957L1060.71 544C1058.27 553.027 1050.05 559.234 1040.71 559.234H1038.7H985.203L984.137 551.147C985.956 537.794 1045.98 561.365 1055.89 510.523Z" fill="#F2F2F2"></path><path d="M912.452 559.234H983.071C986.583 559.234 989.406 556.413 989.406 552.902C989.406 549.391 986.583 546.57 983.071 546.57H912.452C908.939 546.57 906.117 549.391 906.117 552.902C906.117 556.413 908.939 559.234 912.452 559.234Z" fill="#909BA5"></path><path d="M792.034 474.914H692.941C689.993 474.914 687.296 472.532 686.92 469.648L676.823 396.362C676.446 393.415 678.453 391.096 681.401 391.096H780.494L792.034 474.914Z" fill="#E8ECF1"></path><path d="M795.486 474.914H699.717C697.333 474.914 695.138 472.971 694.825 470.588L684.414 395.296C684.1 392.914 685.731 390.971 688.114 390.971H783.883C786.266 390.971 788.461 392.914 788.775 395.296L799.186 470.588C799.5 472.971 797.869 474.914 795.486 474.914Z" fill="#F2F2F2"></path><path d="M792.724 469.148H700.655L690.746 397.053H782.752L792.724 469.148Z" fill="white"></path><path d="M786.831 463.002H764.88L760.051 426.391H782.441L786.831 463.002Z" fill="#E8ECF1"></path><path d="M643.145 550.707L691.563 560.362C695.013 561.051 697.772 558.732 697.647 555.284L696.957 536.288C696.831 532.778 693.884 529.392 690.371 528.703L643.02 512.466C639.571 511.776 635.745 520.678 635.87 524.126L636.56 543.122C636.748 546.57 639.696 550.018 643.145 550.707Z" fill="#ECA354"></path><path d="M602.003 547.01L653.494 558.106C657.194 558.921 660.079 557.04 659.954 553.968L659.201 537.292C659.076 534.221 655.94 531.086 652.24 530.271L600.749 519.175C597.049 518.36 594.164 520.24 594.289 523.312L595.042 539.988C595.167 543.06 598.303 546.195 602.003 547.01Z" fill="#F3A951"></path><path d="M645.652 635.404L660.077 634.902L659.136 613.211L644.711 613.65L645.652 635.404Z" fill="#FAC0AF"></path><path d="M684.1 635.404L698.525 634.903L696.644 613.588L682.219 614.089L684.1 635.404Z" fill="#FAC0AF"></path><path d="M648.163 622.175H658.512C662.149 622.175 665.034 619.04 664.784 615.404L658.637 539.172H630.289L639.446 614.401C639.948 618.852 643.711 622.175 648.163 622.175Z" fill="#F3A951"></path><path d="M685.351 622.176H696.327C701.658 622.176 702.285 617.035 701.658 611.707L696.829 536.916H668.48L676.696 613.148C677.198 618.54 680.02 622.176 685.351 622.176Z" fill="#ECA354"></path><path d="M641.703 422.881C641.703 422.881 652.365 425.263 659.076 468.771C660.456 477.548 665.285 479.742 659.703 487.39C652.867 496.856 638.254 485.133 638.254 485.133L641.703 422.881Z" fill="#FFF8F4"></path><path d="M587.076 527.199L640.197 524.879C645.215 524.44 644.337 516.541 643.647 511.087L637.751 428.773L573.278 434.541L573.09 483.879C573.215 491.715 579.863 527.888 587.076 527.199Z" fill="#A0A8B1"></path><path d="M612.978 414.73L637.563 422.003L640.26 432.66L573.152 438.052L574.532 426.015L598.177 416.235L612.978 414.73Z" fill="#A0A8B1"></path><path d="M584.002 420.185L572.023 427.52L578.358 520.303L594.351 534.848C594.351 534.848 615.863 553.968 615.925 534.033C616.114 493.91 599.619 446.14 587.828 422.317C587.64 420.436 585.696 419.308 584.002 420.185Z" fill="#FFF8F4"></path><path d="M624.393 418.242C639.947 443.82 635.117 481.121 635.87 501.559C636.623 522.435 658.197 514.473 655.375 509.082C645.717 490.839 641.703 422.881 641.703 422.881L627.529 417.553C625.961 416.988 624.205 416.612 624.393 418.242Z" fill="#FFF8F4"></path><path d="M584.943 506.51C582.999 506.197 580.302 511.964 573.09 509.457C566.881 507.263 563.933 500.868 564.686 490.273L567.132 438.804C566.818 431.908 571.334 426.516 576.727 425.388L577.856 425.012C582.372 425.764 587.703 433.6 587.954 440.496L585.382 495.289C585.696 502.247 584.943 506.51 584.943 506.51Z" fill="#FFF8F4"></path><path d="M586.448 480.494L588.267 463.066C588.329 462.627 588.267 462.188 588.141 461.749L585.695 454.289" fill="#A0A8B1"></path><path d="M591.718 450.277L601 465.637C603.133 468.897 604.575 470.589 608.777 468.082C609.091 468.708 609.404 469.273 609.655 469.9L609.028 470.276C605.955 472.157 602.004 471.279 600.185 468.207L589.084 449.776C587.202 446.829 589.962 447.268 591.718 450.277Z" fill="#B4B6DB"></path><path d="M610.782 466.891L608.461 467.957C607.834 468.27 607.52 469.023 607.834 469.712L607.959 470.026C608.273 470.653 609.026 470.966 609.715 470.653L612.036 469.587C612.663 469.274 612.977 468.521 612.663 467.832L612.538 467.518C612.224 466.829 611.409 466.578 610.782 466.891Z" fill="#A1B8C4"></path><path d="M597.174 447.331L599.055 465.261C599.306 469.147 599.181 471.404 594.352 472.094C594.477 472.784 594.602 473.41 594.728 474.1L595.48 474.037C598.993 473.599 601.627 470.401 601.25 466.891L598.993 445.388C598.616 441.751 596.798 443.82 597.174 447.331Z" fill="#B4B6DB"></path><path d="M592.029 472.407L594.537 471.843C595.227 471.654 595.917 472.093 596.105 472.783L596.168 473.159C596.294 473.849 595.854 474.538 595.165 474.726L592.656 475.291C591.966 475.479 591.276 475.04 591.088 474.35L591.025 473.974C590.9 473.222 591.339 472.532 592.029 472.407Z" fill="#A1B8C4"></path><path d="M590.21 449.337L589.019 449.839C588.392 450.09 587.702 449.839 587.451 449.212L587.2 448.585C586.949 447.958 587.263 447.268 587.89 446.955L589.081 446.454C589.709 446.203 590.398 446.454 590.649 447.08L590.9 447.707C591.151 448.334 590.837 449.087 590.21 449.337Z" fill="#A1B8C4"></path><path d="M598.68 445.888L597.425 446.139C596.735 446.264 596.108 445.826 595.983 445.199L595.857 444.509C595.732 443.819 596.171 443.193 596.861 443.067L598.115 442.816C598.805 442.691 599.432 443.13 599.558 443.757L599.683 444.446C599.808 445.073 599.307 445.763 598.68 445.888Z" fill="#A1B8C4"></path><path d="M589.082 449.336C589.27 449.336 589.459 449.273 589.647 449.148C590.211 448.834 590.399 448.082 590.086 447.518C588.957 445.574 586.26 439.87 587.452 436.798C587.828 435.92 588.455 435.293 589.521 434.98C590.399 434.729 591.215 434.792 591.967 435.168C594.727 436.672 596.107 442.064 596.608 443.819C596.734 444.258 596.796 444.446 596.859 444.634C597.11 445.261 597.8 445.574 598.427 445.324C599.054 445.073 599.305 444.383 599.117 443.756C599.054 443.694 599.054 443.506 598.992 443.255C598.427 440.998 596.796 435.105 593.159 433.099C591.842 432.347 590.337 432.221 588.831 432.723C587.075 433.287 585.821 434.415 585.194 435.983C583.375 440.685 587.514 447.957 587.953 448.772C588.204 449.148 588.643 449.336 589.082 449.336Z" fill="#A1B8C4"></path><path d="M589.961 434.73C590.024 434.73 590.149 434.73 590.275 434.73C590.902 434.605 591.341 433.978 591.215 433.288C591.09 432.661 588.142 417.929 599.243 414.731C599.87 414.543 600.247 413.854 600.059 413.227C599.87 412.6 599.181 412.224 598.553 412.412C585.257 416.173 588.769 433.601 588.832 433.727C588.958 434.291 589.397 434.667 589.961 434.73Z" fill="#A1B8C4"></path><path d="M687.424 455.92L656.002 470.151C653.117 471.53 648.853 474.038 650.671 478.865C650.671 478.865 652.804 489.648 663.152 484.883L692.817 465.7C695.702 464.321 696.455 461.938 694.95 458.616C693.507 455.356 690.309 454.541 687.424 455.92Z" fill="#FAC0AF"></path><path d="M702.351 455.606L693.32 454.603C690.309 454.101 689.619 456.295 688.992 459.618C688.365 462.94 688.052 464.633 690.999 465.135L700.093 467.768C703.104 468.269 706.051 465.95 706.679 462.627C707.306 459.242 705.362 456.107 702.351 455.606Z" fill="#FAC0AF"></path><path d="M626.462 448.522C627.089 448.522 627.591 447.958 627.591 447.331C627.967 414.293 618.246 413.039 617.18 413.039C616.49 413.039 615.988 413.541 615.926 414.23C615.926 414.857 616.428 415.421 617.055 415.484C617.306 415.484 625.521 416.926 625.208 447.331C625.208 448.021 625.71 448.522 626.4 448.522H626.462Z" fill="#A1B8C4"></path><path d="M621.821 450.153C621.571 452.849 623.64 455.168 626.337 455.356C629.034 455.544 631.417 453.475 631.605 450.78C631.856 448.084 629.786 445.764 627.09 445.576C624.393 445.388 622.01 447.457 621.821 450.153Z" fill="#A1B8C4"></path><path d="M624.581 449.902C624.455 451.219 625.459 452.284 626.713 452.41C627.968 452.535 629.159 451.532 629.222 450.216C629.347 448.899 628.344 447.833 627.09 447.708C625.835 447.645 624.706 448.648 624.581 449.902Z" fill="#EBF2FA"></path><path d="M615.361 420.812C615.361 420.812 620.065 442.127 615.612 443.945C611.159 445.763 597.863 422.567 597.863 422.567L606.581 417.803L615.361 420.812Z" fill="#FAC0AF"></path><path d="M615.361 422.943L616.553 402.631C616.867 399.81 612.79 396.424 609.152 395.735L607.961 395.484C604.323 394.794 601.062 396.55 600.686 399.371L596.923 417.99C595.668 428.397 614.734 428.021 615.361 422.943Z" fill="#FAC0AF"></path><path d="M614.545 414.731C607.646 414.355 601.939 408.399 601.876 401.44L601.751 386.582C601.688 379.624 607.27 374.232 614.169 374.608C621.067 374.985 626.775 380.94 626.837 387.899L626.963 402.757C626.963 409.715 621.381 415.107 614.545 414.731Z" fill="#FAC0AF"></path><path d="M615.297 376.615C615.297 376.615 627.464 382.131 626.837 390.72C629.534 385.203 627.652 371.662 615.548 369.781L615.297 376.615Z" fill="#636668"></path><path d="M619.562 379.498C619.562 379.498 602.503 377.367 601.75 394.983L599.931 404.888C592.593 402.882 590.21 393.228 590.085 391.159C589.583 383.511 591.214 367.023 615.548 369.718L619.562 379.498Z" fill="#636668"></path><path d="M595.981 398.807C597.109 401.691 599.367 403.258 601.061 402.38C602.754 401.503 603.193 398.493 602.064 395.61C600.935 392.726 598.677 391.159 596.984 392.036C595.291 392.914 594.852 395.986 595.981 398.807Z" fill="#FAC0AF"></path><path opacity="0.6" d="M615.864 414.732L615.487 420.813C615.487 420.813 608.526 417.804 607.836 412.412C607.836 412.412 611.913 414.982 615.864 414.732Z" fill="#FAC0AF"></path><path d="M626.024 381.38C626.024 381.38 616.679 389.279 605.516 381.568C594.352 373.857 614.986 375.675 614.986 375.675C614.986 375.675 623.954 377.493 626.024 381.38Z" fill="#636668"></path><path d="M700.344 629.134L702.915 634.714C704.17 636.72 710.755 639.98 710.755 639.98C716.274 641.171 716.838 648.631 711.696 648.631H686.797C684.1 648.631 681.654 645.747 681.842 642.801L682.846 634.965C681.717 631.454 682.908 628.884 685.166 628.884H690.999C692.441 626.501 698.149 624.746 700.344 629.134Z" fill="#A1B8C4"></path><path d="M647.849 628.446C646.344 629.511 645.529 631.329 645.842 633.21C646.281 636.156 645.591 638.539 645.152 640.796C644.463 644.494 643.584 648.507 650.546 648.507C657.508 648.507 668.295 648.507 668.295 648.507C668.295 648.507 672.623 645.184 668.483 641.861L665.473 641.548L661.522 631.831C658.825 624.809 652.239 625.499 647.849 628.446Z" fill="#A1B8C4"></path><path d="M955.038 552.651L918.599 561.992C915.149 562.87 906.996 561.115 905.24 555.849L903.359 548.012C901.728 541.994 906.432 533.969 912.076 531.587C912.766 531.336 955.163 514.41 955.163 514.41C958.613 513.532 962.376 522.184 962.25 525.694L990.473 522.497L961.56 544.752C961.435 548.138 958.487 551.774 955.038 552.651Z" fill="#9BB1BB"></path><path d="M996.054 547.762L956.981 560.3C953.343 561.491 945.504 561.554 945.817 558.545L940.11 550.708C938.354 545.881 944.124 540.051 947.761 538.86L997.371 519.802C1001.01 518.611 1003.89 520.178 1003.77 523.25L1003.02 540.051C1002.76 543.123 999.691 546.634 996.054 547.762Z" fill="#A1B8C4"></path><path d="M966.638 635.529L952.213 635.027L951.586 613.211L966.011 613.65L966.638 635.529Z" fill="#FAC0AF"></path><path d="M940.486 635.404L926.061 634.902L924.117 613.775L938.542 614.214L940.486 635.404Z" fill="#FAC0AF"></path><path d="M964.695 621.799H950.772C949.015 621.799 947.51 620.482 947.322 618.727L940.047 550.707L967.642 539.172L969.524 616.909C969.524 619.605 967.392 621.799 964.695 621.799Z" fill="#A1B8C4"></path><path d="M939.17 622.301H925.874C923.929 622.301 922.236 620.985 921.797 619.104L904.863 554.156L929.386 536.979L943.246 617.537C943.623 620.044 941.741 622.301 939.17 622.301Z" fill="#9BB1BB"></path><path d="M923.993 629.134L921.422 634.714C920.168 636.72 913.582 639.98 913.582 639.98C908.063 641.171 907.499 648.631 912.641 648.631H937.54C940.237 648.631 942.683 645.747 942.495 642.801L941.491 634.965C942.62 631.454 941.429 628.884 939.171 628.884H933.338C931.833 626.501 926.188 624.746 923.993 629.134Z" fill="#A1B8C4"></path><path d="M965.321 628.446C966.826 629.511 967.641 631.329 967.328 633.21C966.889 636.156 967.579 638.539 968.018 640.796C968.707 644.494 969.585 648.507 962.624 648.507C955.662 648.507 944.875 648.507 944.875 648.507C944.875 648.507 940.547 645.184 944.687 641.861L947.697 641.548L951.648 631.831C954.345 624.809 960.93 625.499 965.321 628.446Z" fill="#A1B8C4"></path><g opacity="0.5"><path opacity="0.5" d="M719.659 412.349C719.031 412.788 718.091 412.098 717.401 412.035C716.272 411.847 715.143 412.098 714.014 412.223C711.756 412.537 709.436 412.976 707.115 412.349C706.613 412.223 706.112 412.035 705.673 411.471C705.296 410.907 705.045 409.966 705.296 409.214C705.547 408.337 706.237 408.148 706.864 408.148C710.188 408.211 711.944 410.155 716.146 410.28C716.836 410.28 718.153 409.966 718.843 409.653C719.345 409.465 719.972 409.904 720.035 410.97C720.098 411.596 719.972 412.098 719.659 412.349Z" fill="#ECA354"></path><path opacity="0.5" d="M742.55 411.847C740.48 412.474 738.034 412.16 735.651 411.909C734.522 411.784 733.268 411.596 732.202 411.847C731.574 411.972 730.822 412.662 730.069 412.223C729.693 411.972 729.379 411.47 729.254 410.906C729.003 409.903 729.505 409.402 730.069 409.59C730.822 409.84 732.264 410.154 732.891 410.091C737.031 409.778 738.222 407.834 741.484 407.709C742.048 407.709 742.801 407.834 743.365 408.712C743.804 409.464 743.93 410.405 743.679 410.969C743.491 411.47 743.052 411.659 742.55 411.847Z" fill="#ECA354"></path><path opacity="0.5" d="M707.364 427.269C707.803 432.723 709.873 438.616 712.883 443.569C714.138 445.638 716.709 450.026 719.782 448.898C721.099 448.396 721.664 446.891 721.977 445.638C722.667 442.754 722.354 440.246 724.361 437.927C724.361 437.927 724.361 437.927 724.361 437.864C724.361 437.864 724.361 437.864 724.361 437.801C724.423 437.676 724.361 437.55 724.298 437.425L724.235 437.362C724.11 437.237 723.984 437.237 723.859 437.237H723.796C720.598 439.431 716.207 440.246 711.88 439.745C711.629 439.118 711.441 438.428 711.19 437.801C713.322 437.989 715.455 437.864 717.524 437.425C719.845 436.923 721.977 436.046 723.796 434.792C724.172 434.541 723.671 433.852 723.294 434.102C719.97 436.359 715.016 436.422 710.625 435.858C710.312 434.729 710.061 433.664 709.81 432.598C714.263 434.228 719.092 433.099 722.918 431.469C723.357 431.281 723.043 430.529 722.604 430.717C718.904 432.284 713.824 432.66 709.497 430.905C709.371 430.216 709.308 429.589 709.246 428.899C713.385 429.965 717.65 429.463 721.287 427.959C721.726 427.771 721.413 427.018 720.974 427.206C717.462 428.711 713.197 428.586 709.183 427.52C709.183 427.394 709.183 427.332 709.183 427.206C709.12 425.953 709.12 424.761 709.308 423.696C713.26 425.326 717.336 425.639 721.225 424.573C721.726 424.448 721.35 423.696 720.911 423.821C717.273 424.824 712.507 423.758 709.685 422.066C709.936 421.125 710.312 420.248 710.814 419.37C714.326 421 717.148 421.627 720.66 420.624C721.162 420.498 720.786 419.746 720.347 419.872C717.148 420.812 714.389 419.809 711.629 418.179C712.131 417.489 712.695 416.8 713.385 416.11C713.699 415.734 713.071 415.232 712.695 415.546C709.308 418.868 706.988 422.316 707.364 427.269ZM722.604 439.055C722.228 439.87 721.977 440.685 721.789 441.563C721.789 441.563 721.789 441.563 721.726 441.563C720.723 442.503 719.469 443.318 718.089 443.757C716.897 444.196 715.329 443.882 714.012 443.757C713.51 443.005 713.071 442.19 712.632 441.375C716.27 441.876 719.657 440.81 722.604 439.055ZM715.204 445.7C715.078 445.575 715.016 445.387 714.89 445.261C716.27 445.324 717.65 445.261 718.904 444.76C719.908 444.321 720.723 443.694 721.476 443.005C721.413 443.318 721.413 443.569 721.35 443.882C721.225 444.823 721.35 446.327 720.598 447.017C718.653 448.647 716.458 447.268 715.204 445.7Z" fill="#ECA354"></path><path opacity="0.5" d="M733.266 437.801C735.963 440.058 736.464 442.566 738.032 445.387C738.722 446.578 739.726 448.083 741.168 448.522C744.618 449.525 745.809 445.136 746.436 443.005C747.942 437.99 748.193 432.034 746.938 426.642C745.809 421.69 742.36 418.305 738.22 415.17C737.781 414.857 737.28 415.421 737.719 415.734C738.597 416.361 739.349 417.051 740.102 417.74C737.844 419.433 735.398 420.499 731.949 419.684C731.447 419.558 731.322 420.311 731.823 420.436C735.586 421.314 738.22 420.561 741.231 418.869C741.984 419.684 742.611 420.561 743.175 421.502C740.917 423.257 736.464 424.448 732.576 423.571C732.074 423.445 731.949 424.197 732.45 424.323C736.59 425.263 740.604 424.824 744.053 423.069C744.555 424.135 744.931 425.326 745.245 426.58C745.245 426.705 745.308 426.768 745.308 426.893C741.607 428.084 737.405 428.335 733.454 426.956C732.952 426.768 732.827 427.52 733.329 427.708C737.405 429.15 741.795 429.464 745.621 428.335C745.747 429.025 745.872 429.652 745.935 430.341C742.172 432.222 737.029 432.034 732.89 430.592C732.388 430.404 732.262 431.156 732.764 431.344C737.029 432.849 742.234 433.852 746.186 432.097C746.311 433.162 746.374 434.291 746.374 435.419C742.172 436.109 737.217 436.171 733.203 434.04C732.701 433.789 732.388 434.479 732.89 434.73C737.029 436.924 741.984 437.864 746.374 437.363C746.374 437.99 746.311 438.616 746.311 439.306C742.234 439.933 737.531 439.243 733.705 437.175H733.642C733.517 437.112 733.391 437.175 733.266 437.3C733.266 437.3 733.266 437.363 733.203 437.363C733.14 437.488 733.14 437.613 733.266 437.739C733.203 437.739 733.203 437.739 733.266 437.801C733.266 437.739 733.266 437.801 733.266 437.801ZM746.123 440.936C745.997 441.751 745.809 442.566 745.496 443.381C744.179 443.506 742.736 443.882 741.419 443.506C739.914 443.068 738.409 442.315 737.092 441.375H737.029C736.59 440.497 736.088 439.682 735.398 438.867C738.91 440.497 742.548 441.438 746.123 440.936ZM738.095 443.632C737.97 443.318 737.844 443.067 737.719 442.754C738.722 443.444 739.726 444.071 740.855 444.447C742.234 444.948 743.614 444.948 744.994 444.823C744.931 444.948 744.869 445.136 744.806 445.262C744.053 446.892 742.297 448.334 739.851 446.704C738.848 446.077 738.534 444.572 738.095 443.632Z" fill="#ECA354"></path><path opacity="0.5" d="M703.978 415.86C703.915 414.606 704.417 414.292 704.793 414.167C705.734 413.979 706.675 413.728 707.678 413.54C707.992 413.477 709.497 412.913 709.434 415.672C709.434 417.114 707.929 417.866 707.49 418.117C706.738 418.618 705.985 418.806 705.17 418.43C704.919 418.305 704.668 418.179 704.48 417.741C704.166 417.364 703.978 416.612 703.978 415.86Z" fill="#ECA354"></path><path opacity="0.5" d="M741.983 415.232C741.105 412.474 742.736 412.975 743.049 413.038C744.053 413.226 745.056 413.414 746.123 413.602C746.499 413.665 747.063 413.978 747.44 415.232C747.628 415.984 747.691 416.737 747.565 417.176C747.502 417.614 747.251 417.803 747.063 417.865C746.373 418.241 745.495 418.116 744.617 417.614C744.178 417.364 742.485 416.674 741.983 415.232Z" fill="#ECA354"></path><path opacity="0.5" d="M722.982 418.68H723.546L728.376 418.617H728.94C729.128 418.617 729.316 418.743 729.316 418.931C729.316 419.119 729.191 419.244 729.003 419.244H728.438C728.438 420.184 727.749 420.937 726.745 420.937H725.616C724.675 420.937 723.797 420.247 723.672 419.369V419.307H723.107C722.919 419.307 722.731 419.181 722.731 418.993C722.668 418.868 722.794 418.68 722.982 418.68Z" fill="#ECA354"></path><path opacity="0.5" d="M727.244 407.709H726.68C726.68 408.649 725.99 409.402 724.987 409.402H723.858C722.917 409.402 722.039 408.712 721.913 407.834V407.772H721.349C721.161 407.772 720.973 407.646 720.973 407.458C720.973 407.27 721.098 407.145 721.286 407.145H721.851L726.68 407.082H727.244C727.433 407.082 727.621 407.207 727.621 407.395C727.558 407.521 727.433 407.709 727.244 407.709Z" fill="#ECA354"></path><path opacity="0.5" d="M723.673 423.131H724.237L729.066 423.068H729.631C729.819 423.068 730.007 423.194 730.007 423.382C730.007 423.57 729.882 423.695 729.694 423.695H729.129C729.129 424.636 728.439 425.388 727.436 425.388H726.307C725.366 425.388 724.488 424.698 724.363 423.821V423.758H723.798C723.61 423.758 723.422 423.633 723.422 423.445C723.422 423.256 723.485 423.131 723.673 423.131Z" fill="#ECA354"></path><path opacity="0.5" d="M724.361 427.582H724.925L729.755 427.52H730.319C730.507 427.52 730.695 427.645 730.695 427.833C730.695 428.021 730.57 428.146 730.382 428.146H729.817C729.817 429.087 729.127 429.839 728.124 429.839H726.995C726.054 429.839 725.176 429.149 725.051 428.272V428.209H724.486C724.298 428.209 724.11 428.084 724.11 427.896C724.047 427.708 724.173 427.582 724.361 427.582Z" fill="#ECA354"></path><path opacity="0.5" d="M725.052 432.033H725.617L730.446 431.971H731.01C731.199 431.971 731.387 432.096 731.387 432.284C731.387 432.472 731.261 432.598 731.073 432.598H730.509C730.509 433.538 729.819 434.29 728.815 434.29H727.686C726.746 434.29 725.868 433.601 725.742 432.723V432.66H725.178C724.99 432.66 724.801 432.535 724.801 432.347C724.739 432.159 724.864 432.033 725.052 432.033Z" fill="#ECA354"></path><path opacity="0.5" d="M725.74 436.422H726.304L731.134 436.359H731.698C731.886 436.359 732.074 436.485 732.074 436.673C732.074 436.861 731.949 436.986 731.761 436.986H731.196C731.196 437.927 730.506 438.679 729.503 438.679H728.374C727.433 438.679 726.555 437.989 726.43 437.112V437.049H725.865C725.677 437.049 725.489 436.924 725.489 436.736C725.426 436.61 725.552 436.485 725.74 436.422Z" fill="#ECA354"></path><path opacity="0.5" d="M726.431 440.873L732.326 440.811C732.514 440.811 732.702 440.936 732.702 441.124C732.702 441.312 732.577 441.437 732.389 441.437C732.514 442.691 731.574 443.632 730.319 443.632H728.939C727.811 443.632 726.744 442.754 726.556 441.688L726.493 441.5C726.305 441.5 726.117 441.375 726.117 441.187C726.117 440.999 726.243 440.873 726.431 440.873Z" fill="#ECA354"></path><path opacity="0.5" d="M733.643 445.889H733.454C733.58 447.268 732.576 448.396 731.134 448.459H729.566C728.312 448.459 727.12 447.519 726.932 446.327L726.869 446.014H726.681C726.493 446.014 726.305 445.889 726.305 445.701C726.305 445.512 726.43 445.387 726.618 445.387H726.806L733.392 445.262H733.58C733.768 445.262 733.956 445.387 733.956 445.575C733.956 445.763 733.831 445.889 733.643 445.889Z" fill="#ECA354"></path><path opacity="0.5" d="M735.274 449.962C735.274 450.15 735.148 450.276 734.96 450.276H734.145L734.207 450.652C734.458 452.094 733.392 453.285 731.887 453.285H730.319C729.065 453.285 727.873 452.344 727.685 451.153L727.559 450.338H726.556C726.368 450.338 726.18 450.213 726.18 450.025C726.18 449.837 726.305 449.711 726.493 449.711L734.835 449.586C735.023 449.649 735.211 449.774 735.274 449.962Z" fill="#ECA354"></path><path opacity="0.5" d="M726.556 454.225L736.528 454.1C736.716 454.1 736.904 454.225 736.904 454.413C736.904 454.601 736.779 454.727 736.591 454.727H735.462L735.525 455.04C735.775 456.795 734.521 458.237 732.702 458.237H730.821C729.316 458.237 727.873 457.109 727.622 455.604L727.497 454.789H726.556C726.368 454.789 726.18 454.664 726.18 454.476C726.242 454.413 726.368 454.225 726.556 454.225Z" fill="#ECA354"></path><path opacity="0.5" d="M727.685 414.103L727.811 414.917C727.999 415.983 727.184 416.924 726.055 416.924H724.926C724.048 416.924 723.17 416.234 723.044 415.356L722.856 414.165C722.103 413.914 721.414 413.288 721.288 412.473C721.163 411.469 721.853 410.654 722.856 410.654C723.671 410.654 724.424 411.093 724.8 411.783C724.926 411.093 725.553 410.592 726.368 410.592C727.372 410.592 728.375 411.344 728.501 412.347C728.563 413.225 728.25 413.789 727.685 414.103Z" fill="#ECA354"></path></g><path d="M918.033 489.396C921.482 491.59 926.625 489.835 929.447 485.572L952.088 450.841C954.91 446.515 954.346 441.249 950.897 439.055C947.447 436.861 942.304 438.616 939.482 442.879L916.841 477.61C914.019 481.873 914.583 487.202 918.033 489.396Z" fill="#FAC0AF"></path><path d="M979.996 390.845C979.996 390.845 1002.01 379.937 1006.27 404.825C1010.54 429.713 1018 434.353 1018 434.353L1006.78 435.544C998.749 436.421 991.348 431.657 989.341 424.385L979.996 390.845Z" fill="#636668"></path><path d="M1003.08 525.255C988.401 525.944 974.854 524.565 959.425 526.822C950.08 526.509 941.551 516.227 941.614 514.535L945.816 490.085V457.109L951.837 437.236L996.052 439.242L1002.83 459.053L1000.13 490.273L1005.9 518.171C1006.34 520.177 1005.96 522.246 1004.77 523.938C1004.27 524.69 1003.7 525.255 1003.08 525.255Z" fill="#D2DE4D"></path><path d="M966.701 449.525C978.931 450.34 1000.19 432.535 1000.19 432.535L979.119 424.386C976.485 421.314 975.921 424.448 975.293 424.636C974.729 424.386 972.22 424.072 970.402 424.95C965.447 427.457 951.461 431.658 951.461 431.658C951.461 431.658 955.161 448.772 966.701 449.525Z" fill="#D2DE4D"></path><path d="M966.012 426.893L965.197 441.375C965.071 444.071 967.141 446.265 969.838 446.265C971.343 446.265 972.723 445.575 973.601 444.321L986.96 427.395L978.179 423.445L966.012 426.893Z" fill="#FAC0AF"></path><path d="M962.874 427.959C962.874 427.959 955.912 429.401 948.7 432.598C944.059 434.667 938.54 442.441 926.623 457.048C925.683 458.176 924.428 460.558 925.056 461.938L937.599 472.971C937.787 474.35 941.613 472.532 942.554 471.529L954.094 458.239L961.808 445.324L962.874 427.959Z" fill="#D2DE4D"></path><path d="M990.031 498.988C994.045 499.74 998.247 498.925 999.313 493.91L1007.72 450.653C1008.78 445.637 1006.34 440.873 1002.32 440.121C998.31 439.368 994.171 442.816 993.105 447.832L984.826 493.722C983.76 498.737 986.017 498.235 990.031 498.988Z" fill="#FAC0AF"></path><path d="M1000.13 432.535C1000.13 432.535 1006.4 435.795 1007.97 445.512L1007.41 478.676C1008.03 480.682 1006.34 484.443 1004.4 484.945L1002.01 485.635C997.057 487.515 986.082 482.375 985.078 480.243L986.834 455.919L985.705 443.631L990.346 433.413L1000.13 432.535Z" fill="#D2DE4D"></path><path opacity="0.5" d="M986.77 472.219L987.397 456.546L990.47 453.662" fill="#D2DE4D"></path><path d="M969.587 527.575L995.05 503C997.12 500.744 1000.82 493.597 998.562 491.403L991.914 489.898C989.656 487.766 988.214 489.584 984.89 492.782L964.946 519.425C962.876 521.682 963.001 524.315 965.197 526.447C967.58 528.704 967.517 529.832 969.587 527.575Z" fill="#FAC0AF"></path><path d="M961.243 532.715L968.079 528.828C970.4 527.7 969.773 525.819 968.581 523.186C967.327 520.553 966.7 519.236 964.379 520.365L956.728 523.123C954.407 524.252 953.529 527.386 954.783 530.019C955.975 532.652 958.86 533.843 961.243 532.715Z" fill="#FAC0AF"></path><path d="M957.044 489.646L922.487 476.293C919.665 475.164 917.846 478.362 916.654 481.246L916.341 485.258C915.149 488.142 917.407 488.831 921.546 490.775L953.595 499.739C956.417 500.868 958.863 499.802 960.055 496.981C961.246 494.034 959.867 490.775 957.044 489.646Z" fill="#FAC0AF"></path><path d="M965.509 496.667L959.425 490.837C957.544 488.768 955.788 489.959 953.404 492.091C951.084 494.16 949.892 495.225 951.774 497.294L956.916 504.378C958.798 506.447 962.31 506.384 964.631 504.316C967.014 502.184 967.39 498.736 965.509 496.667Z" fill="#FAC0AF"></path><path d="M976.61 437.174L975.607 437.425C972.596 438.177 968.833 437.237 968.018 434.103L962.75 410.844C961.934 407.71 963.753 404.512 966.764 403.76L967.767 403.509C970.777 402.757 973.976 404.638 974.791 407.772L981.941 431.031C982.756 434.228 979.621 436.422 976.61 437.174Z" fill="#FAC0AF"></path><path d="M966.137 414.543C966.137 414.543 940.235 405.516 957.482 388.15C973.852 371.6 980.061 417.49 980.061 417.49L966.137 414.543Z" fill="#636668"></path><path d="M970.776 421.564C970.776 421.564 980.748 418.492 981.877 411.408L984.26 396.3C985.389 389.216 980.372 385.642 972.971 384.827V384.075C967.954 383.511 963.501 385.266 960.804 388.651C959.048 390.846 958.295 393.604 958.484 396.3C958.86 400.939 957.543 404.575 954.909 408.524C950.769 423.57 963.375 420.749 970.776 421.564Z" fill="#FAC0AF"></path><path d="M959.05 396.111C959.05 396.487 958.611 398.87 958.611 399.183C958.549 401.754 957.42 402.569 955.726 404.512C955.538 404.763 954.785 405.891 952.904 407.458C952.779 407.521 952.716 407.647 952.779 407.772C952.779 408.273 953.092 409.653 955.225 409.841C955.475 409.841 955.664 410.029 955.726 410.28L961.873 404.136L959.05 396.111Z" fill="#FAC0AF"></path><path d="M957.609 389.842C958.612 394.544 965.135 400.876 970.528 402.569C975.922 404.261 972.096 415.358 979.121 420.749C980.939 422.128 987.964 417.928 989.72 409.089C990.535 405.202 992.667 397.679 988.779 392.852C985.33 388.526 977.803 378.934 962.626 384.451C955.351 387.209 957.609 389.842 957.609 389.842Z" fill="#636668"></path><path d="M978.931 412.348C977.802 414.981 975.481 416.361 973.85 415.42C972.22 414.48 971.781 411.596 972.91 408.963C974.039 406.33 976.359 404.951 977.99 405.891C979.683 406.832 980.122 409.715 978.931 412.348Z" fill="#FAC0AF"></path><path opacity="0.6" d="M977.302 407.27C976.361 406.706 975.671 407.332 975.169 408.21C974.667 409.088 974.73 410.154 975.107 411.094C975.169 411.345 975.232 411.658 975.232 412.16" fill="#FAC0AF"></path><path opacity="0.6" d="M965.195 420.999L965.822 424.51C965.822 424.51 970.275 421.25 971.906 419.432C971.906 419.432 968.582 421.25 965.195 420.999Z" fill="#FAC0AF"></path><path d="M985.641 389.215C985.641 389.215 992.351 392.851 991.034 401.001" stroke="#F9F5F1" stroke-width="3.0595" stroke-miterlimit="10" stroke-linecap="round" stroke-linejoin="round"></path><path opacity="0.5" d="M945.819 469.524C945.819 469.524 944.564 460.496 945.003 457.299C945.442 454.102 950.899 446.955 950.899 446.955" fill="#D2DE4D"></path><path d="M764.939 421.439H759.922L758.793 413.352H763.873L764.939 421.439Z" fill="#A1B8C4"></path><path d="M771.652 421.439H766.572L764.941 409.465H770.022L771.652 421.439Z" fill="#A1B8C4"></path><path d="M779.177 421.439H774.159L772.152 406.707H777.17L779.177 421.439Z" fill="#A1B8C4"></path><path d="M779.176 423.068H759.922V423.695H779.176V423.068Z" fill="#E8ECF1"></path><path d="M638.378 525.694C621.569 520.302 613.479 500.806 611.409 492.844L576.727 505.883L578.42 527.888C578.545 529.769 578.922 531.587 579.612 533.405C581.368 538.232 585.821 546.445 595.793 546.633L630.914 554.845C630.914 554.845 629.911 536.978 638.44 534.909C653.681 531.085 644.775 527.763 638.378 525.694Z" fill="#FFF8F4"></path><path d="M615.737 513.658L585.069 497.86C582.184 496.48 576.602 495.854 574.908 499.051C574.908 499.051 567.759 507.451 577.919 512.592L611.347 524.002C614.232 525.381 616.553 524.503 618.246 521.306C619.939 518.046 618.622 515.037 615.737 513.658Z" fill="#FAC0AF"></path><path d="M625.209 513.782H616.115C613.105 513.594 612.603 515.851 612.352 519.237C612.101 522.622 611.976 524.315 614.986 524.503L624.331 526.133C627.341 526.321 630.038 523.688 630.289 520.24C630.54 516.854 628.282 513.908 625.209 513.782Z" fill="#FAC0AF"></path><path d="M662.337 526.634L641.828 514.409L655.5 509.52L691.312 528.766C679.019 526.572 669.675 531.399 662.337 526.634Z" fill="#FFF8F4"></path><path d="M646.469 466.702C646.469 466.702 645.842 452.471 643.02 447.205L646.469 466.702Z" fill="#A0A8B1"></path><path d="M920.039 636.094C920.039 636.094 923.426 634.025 926.813 637.536" stroke="#F6F7F7" stroke-width="5.3707" stroke-miterlimit="10" stroke-linecap="round" stroke-linejoin="round"></path><path d="M950.395 637.472C950.395 637.472 953.405 634.964 957.294 637.973" stroke="#F6F7F7" stroke-width="5.3707" stroke-miterlimit="10" stroke-linecap="round" stroke-linejoin="round"></path><path d="M955.101 635.466C952.78 635.466 950.836 633.522 950.836 631.203V629.886C950.836 627.566 952.78 625.623 955.101 625.623C957.421 625.623 959.365 627.566 959.365 629.886V631.203C959.365 633.585 957.421 635.466 955.101 635.466Z" fill="#A1B8C4"></path><path opacity="0.15" d="M700.655 469.148L690.746 397.053H782.752L700.655 469.148Z" fill="#F2F2F2"></path><path d="M891.692 384.263C905.478 384.263 916.653 373.092 916.653 359.312C916.653 345.532 905.478 334.361 891.692 334.361C877.906 334.361 866.73 345.532 866.73 359.312C866.73 373.092 877.906 384.263 891.692 384.263Z" fill="#E8ECF1"></path><path d="M891.692 344.393L891.629 359.564L902.04 369.657" stroke="#A1B8C4" stroke-width="2" stroke-miterlimit="10" stroke-linecap="round"></path><path d="M741.171 396.801H665.911C663.527 396.801 661.332 394.858 661.019 392.475L658.886 377.367C658.573 374.984 660.203 373.041 662.587 373.041H737.91C740.293 373.041 742.488 374.984 742.802 377.367L744.872 392.538C745.248 394.92 743.555 396.801 741.171 396.801Z" fill="white"></path><path d="M671.68 384.828C673.498 384.765 676.07 384.64 679.143 384.577C682.216 384.514 685.854 384.389 689.742 384.389C691.686 384.389 693.693 384.326 695.7 384.326C697.707 384.326 699.777 384.326 701.847 384.326C703.916 384.326 705.986 384.326 707.993 384.326C710 384.326 712.007 384.389 713.951 384.389C717.84 384.452 721.414 384.514 724.55 384.577C727.623 384.64 730.258 384.765 732.014 384.828V385.078C730.195 385.141 727.623 385.267 724.55 385.329C721.477 385.392 717.84 385.517 713.951 385.517C712.007 385.517 710 385.58 707.993 385.58C705.986 385.58 703.916 385.58 701.847 385.58C699.777 385.58 697.707 385.58 695.7 385.58C693.693 385.58 691.686 385.517 689.742 385.517C685.854 385.455 682.279 385.392 679.143 385.329C676.07 385.267 673.436 385.141 671.68 385.078V384.828Z" fill="#ECA354"></path><path d="M680.347 380.965L676.355 384.955L680.347 388.945L684.338 384.955L680.347 380.965Z" fill="#ECA354"></path><path d="M691.842 379.053L685.988 384.904L691.842 390.756L697.696 384.904L691.842 379.053Z" fill="#ECA354"></path><path d="M708.836 381.173L705.066 384.941L708.836 388.709L712.605 384.941L708.836 381.173Z" fill="#ECA354"></path><path d="M730.886 384.953L724.238 388.84L717.652 384.953L724.238 381.004L730.886 384.953Z" fill="#ECA354"></path><path d="M8 318.999C270 -23.0009 1046 -199.001 1574 366.999" stroke="url(#paint0_radial)"></path><path d="M-30 473.779C605.41 -136.149 1148.55 146.86 1612 529" stroke="url(#paint1_radial)"></path><path d="M54 550.999C484 66.9995 1070 126.999 1488 573.778" stroke="url(#paint2_radial)"></path><path opacity="0.1" fill-rule="evenodd" clip-rule="evenodd" d="M319 61.6519C333.275 61.6519 344.847 73.2244 344.847 87.4996C344.847 101.775 333.275 113.347 319 113.347C304.725 113.347 293.152 101.775 293.152 87.4996C293.152 73.2244 304.725 61.6519 319 61.6519Z" fill="#D2DE4C"></path><path opacity="0.3" fill-rule="evenodd" clip-rule="evenodd" d="M319 70.8859C328.175 70.8859 335.613 78.3239 335.613 87.4996C335.613 96.675 328.175 104.113 319 104.113C309.825 104.113 302.387 96.675 302.387 87.4996C302.387 78.3239 309.825 70.8859 319 70.8859Z" fill="#D2DE4C"></path><path opacity="0.5" fill-rule="evenodd" clip-rule="evenodd" d="M319 78.8667C323.768 78.8667 327.633 82.7315 327.633 87.4996C327.633 92.2673 323.768 96.1326 319 96.1326C314.232 96.1326 310.367 92.2673 310.367 87.4996C310.367 82.7315 314.232 78.8667 319 78.8667Z" fill="#D2DE4C"></path><path d="M294.242 123.84H299.162C299.775 123.84 300.342 123.913 300.862 124.06C301.395 124.207 301.849 124.427 302.222 124.72C302.609 125 302.909 125.367 303.122 125.82C303.349 126.26 303.462 126.78 303.462 127.38C303.462 128.193 303.235 128.86 302.782 129.38C302.329 129.887 301.742 130.26 301.022 130.5V130.54C301.449 130.567 301.849 130.68 302.222 130.88C302.595 131.067 302.915 131.32 303.182 131.64C303.462 131.947 303.682 132.307 303.842 132.72C304.002 133.133 304.082 133.58 304.082 134.06C304.082 134.7 303.949 135.267 303.682 135.76C303.429 136.24 303.075 136.647 302.622 136.98C302.169 137.313 301.642 137.567 301.042 137.74C300.442 137.913 299.795 138 299.102 138H294.242V123.84ZM296.162 129.72H298.782C299.142 129.72 299.482 129.687 299.802 129.62C300.122 129.54 300.402 129.413 300.642 129.24C300.882 129.067 301.069 128.847 301.202 128.58C301.349 128.313 301.422 127.987 301.422 127.6C301.422 127.04 301.242 126.553 300.882 126.14C300.522 125.727 299.955 125.52 299.182 125.52H296.162V129.72ZM296.162 136.32H298.982C299.275 136.32 299.595 136.293 299.942 136.24C300.302 136.173 300.635 136.053 300.942 135.88C301.249 135.693 301.509 135.447 301.722 135.14C301.935 134.833 302.042 134.427 302.042 133.92C302.042 133.08 301.769 132.453 301.222 132.04C300.675 131.613 299.935 131.4 299.002 131.4H296.162V136.32ZM305.52 128.52H307.32V138H305.52V128.52ZM305.1 125.12C305.1 124.76 305.226 124.453 305.48 124.2C305.746 123.933 306.06 123.8 306.42 123.8C306.78 123.8 307.086 123.933 307.34 124.2C307.606 124.453 307.74 124.76 307.74 125.12C307.74 125.48 307.606 125.793 307.34 126.06C307.086 126.313 306.78 126.44 306.42 126.44C306.06 126.44 305.746 126.313 305.48 126.06C305.226 125.793 305.1 125.48 305.1 125.12ZM309.324 122.88H311.124V138H309.324V122.88ZM313.129 122.88H314.929V138H313.129V122.88ZM316.934 128.52H318.734V138H316.934V128.52ZM316.514 125.12C316.514 124.76 316.64 124.453 316.894 124.2C317.16 123.933 317.474 123.8 317.834 123.8C318.194 123.8 318.5 123.933 318.754 124.2C319.02 124.453 319.154 124.76 319.154 125.12C319.154 125.48 319.02 125.793 318.754 126.06C318.5 126.313 318.194 126.44 317.834 126.44C317.474 126.44 317.16 126.313 316.894 126.06C316.64 125.793 316.514 125.48 316.514 125.12ZM320.598 128.52H322.398V129.98H322.438C322.665 129.473 323.058 129.067 323.618 128.76C324.178 128.44 324.825 128.28 325.558 128.28C326.012 128.28 326.445 128.353 326.858 128.5C327.285 128.633 327.652 128.847 327.958 129.14C328.278 129.433 328.532 129.813 328.718 130.28C328.905 130.733 328.998 131.273 328.998 131.9V138H327.198V132.4C327.198 131.96 327.138 131.587 327.018 131.28C326.898 130.96 326.738 130.707 326.538 130.52C326.338 130.32 326.105 130.18 325.838 130.1C325.585 130.007 325.318 129.96 325.038 129.96C324.665 129.96 324.318 130.02 323.998 130.14C323.678 130.26 323.398 130.453 323.158 130.72C322.918 130.973 322.732 131.3 322.598 131.7C322.465 132.1 322.398 132.573 322.398 133.12V138H320.598V128.52ZM340.212 137.92C340.212 138.64 340.085 139.293 339.832 139.88C339.592 140.48 339.245 140.993 338.792 141.42C338.338 141.86 337.792 142.2 337.152 142.44C336.512 142.68 335.805 142.8 335.032 142.8C334.125 142.8 333.292 142.673 332.532 142.42C331.785 142.167 331.072 141.727 330.392 141.1L331.612 139.58C332.078 140.087 332.585 140.467 333.132 140.72C333.678 140.987 334.298 141.12 334.992 141.12C335.658 141.12 336.212 141.02 336.652 140.82C337.092 140.633 337.438 140.387 337.692 140.08C337.958 139.773 338.145 139.42 338.252 139.02C338.358 138.633 338.412 138.24 338.412 137.84V136.44H338.352C338.005 137.013 337.532 137.44 336.932 137.72C336.345 137.987 335.725 138.12 335.072 138.12C334.378 138.12 333.732 138 333.132 137.76C332.545 137.507 332.038 137.167 331.612 136.74C331.185 136.3 330.852 135.787 330.612 135.2C330.372 134.6 330.252 133.953 330.252 133.26C330.252 132.567 330.365 131.92 330.592 131.32C330.818 130.707 331.138 130.173 331.552 129.72C331.978 129.267 332.485 128.913 333.072 128.66C333.672 128.407 334.338 128.28 335.072 128.28C335.712 128.28 336.332 128.42 336.932 128.7C337.545 128.98 338.025 129.373 338.372 129.88H338.412V128.52H340.212V137.92ZM335.292 129.96C334.812 129.96 334.378 130.047 333.992 130.22C333.605 130.38 333.278 130.607 333.012 130.9C332.745 131.18 332.538 131.527 332.392 131.94C332.245 132.34 332.172 132.78 332.172 133.26C332.172 134.22 332.452 134.993 333.012 135.58C333.572 136.153 334.332 136.44 335.292 136.44C336.252 136.44 337.012 136.153 337.572 135.58C338.132 134.993 338.412 134.22 338.412 133.26C338.412 132.78 338.338 132.34 338.192 131.94C338.045 131.527 337.838 131.18 337.572 130.9C337.305 130.607 336.978 130.38 336.592 130.22C336.205 130.047 335.772 129.96 335.292 129.96Z" fill="#444445"></path><path opacity="0.1" fill-rule="evenodd" clip-rule="evenodd" d="M1092 271.215C1102.1 271.215 1110.28 279.402 1110.28 289.5C1110.28 299.597 1102.1 307.783 1092 307.783C1081.9 307.783 1073.72 299.597 1073.72 289.5C1073.72 279.402 1081.9 271.215 1092 271.215Z" fill="#D2DE4C"></path><path opacity="0.3" fill-rule="evenodd" clip-rule="evenodd" d="M1092 277.747C1098.49 277.747 1103.75 283.009 1103.75 289.5C1103.75 295.99 1098.49 301.252 1092 301.252C1085.51 301.252 1080.25 295.99 1080.25 289.5C1080.25 283.009 1085.51 277.747 1092 277.747Z" fill="#D2DE4C"></path><path opacity="0.5" fill-rule="evenodd" clip-rule="evenodd" d="M1092 283.393C1095.37 283.393 1098.11 286.127 1098.11 289.5C1098.11 292.872 1095.37 295.607 1092 295.607C1088.63 295.607 1085.89 292.872 1085.89 289.5C1085.89 286.127 1088.63 283.393 1092 283.393Z" fill="#D2DE4C"></path><path d="M1053.66 315.84H1055.58V330H1053.66V315.84ZM1057.76 320.52H1059.56V321.98H1059.6C1059.83 321.473 1060.22 321.067 1060.78 320.76C1061.34 320.44 1061.99 320.28 1062.72 320.28C1063.18 320.28 1063.61 320.353 1064.02 320.5C1064.45 320.633 1064.82 320.847 1065.12 321.14C1065.44 321.433 1065.7 321.813 1065.88 322.28C1066.07 322.733 1066.16 323.273 1066.16 323.9V330H1064.36V324.4C1064.36 323.96 1064.3 323.587 1064.18 323.28C1064.06 322.96 1063.9 322.707 1063.7 322.52C1063.5 322.32 1063.27 322.18 1063 322.1C1062.75 322.007 1062.48 321.96 1062.2 321.96C1061.83 321.96 1061.48 322.02 1061.16 322.14C1060.84 322.26 1060.56 322.453 1060.32 322.72C1060.08 322.973 1059.9 323.3 1059.76 323.7C1059.63 324.1 1059.56 324.573 1059.56 325.12V330H1057.76V320.52ZM1072.92 322.9C1072.7 322.633 1072.44 322.413 1072.12 322.24C1071.81 322.053 1071.43 321.96 1070.98 321.96C1070.55 321.96 1070.18 322.053 1069.86 322.24C1069.55 322.413 1069.4 322.673 1069.4 323.02C1069.4 323.3 1069.48 323.527 1069.66 323.7C1069.84 323.873 1070.06 324.013 1070.3 324.12C1070.55 324.227 1070.82 324.307 1071.1 324.36C1071.38 324.413 1071.62 324.46 1071.82 324.5C1072.2 324.593 1072.56 324.707 1072.9 324.84C1073.24 324.973 1073.54 325.147 1073.78 325.36C1074.03 325.573 1074.22 325.833 1074.36 326.14C1074.5 326.447 1074.58 326.82 1074.58 327.26C1074.58 327.793 1074.46 328.253 1074.24 328.64C1074.01 329.013 1073.72 329.32 1073.36 329.56C1073 329.8 1072.58 329.973 1072.12 330.08C1071.66 330.187 1071.2 330.24 1070.74 330.24C1069.95 330.24 1069.26 330.12 1068.66 329.88C1068.07 329.64 1067.54 329.2 1067.08 328.56L1068.44 327.44C1068.73 327.733 1069.06 327.993 1069.42 328.22C1069.78 328.447 1070.22 328.56 1070.74 328.56C1070.96 328.56 1071.19 328.54 1071.42 328.5C1071.66 328.447 1071.86 328.373 1072.04 328.28C1072.22 328.173 1072.37 328.047 1072.48 327.9C1072.6 327.74 1072.66 327.56 1072.66 327.36C1072.66 327.093 1072.57 326.873 1072.4 326.7C1072.24 326.527 1072.04 326.393 1071.8 326.3C1071.57 326.193 1071.32 326.113 1071.06 326.06C1070.8 325.993 1070.58 325.94 1070.38 325.9C1069.99 325.807 1069.62 325.7 1069.28 325.58C1068.93 325.46 1068.62 325.3 1068.36 325.1C1068.09 324.9 1067.88 324.647 1067.72 324.34C1067.56 324.033 1067.48 323.653 1067.48 323.2C1067.48 322.707 1067.58 322.28 1067.78 321.92C1067.99 321.547 1068.26 321.24 1068.6 321C1068.94 320.76 1069.33 320.58 1069.76 320.46C1070.2 320.34 1070.64 320.28 1071.08 320.28C1071.72 320.28 1072.33 320.4 1072.92 320.64C1073.5 320.88 1073.97 321.28 1074.32 321.84L1072.92 322.9ZM1084.16 330H1082.36V328.54H1082.32C1082.1 329.047 1081.7 329.46 1081.14 329.78C1080.58 330.087 1079.94 330.24 1079.2 330.24C1078.74 330.24 1078.3 330.167 1077.88 330.02C1077.47 329.887 1077.1 329.673 1076.78 329.38C1076.48 329.087 1076.23 328.713 1076.04 328.26C1075.86 327.793 1075.76 327.247 1075.76 326.62V320.52H1077.56V326.12C1077.56 326.56 1077.62 326.94 1077.74 327.26C1077.86 327.567 1078.02 327.82 1078.22 328.02C1078.42 328.207 1078.65 328.347 1078.9 328.44C1079.17 328.52 1079.44 328.56 1079.72 328.56C1080.1 328.56 1080.44 328.5 1080.76 328.38C1081.08 328.26 1081.36 328.073 1081.6 327.82C1081.84 327.553 1082.03 327.22 1082.16 326.82C1082.3 326.42 1082.36 325.947 1082.36 325.4V320.52H1084.16V330ZM1085.88 320.52H1087.68V321.98H1087.72C1087.84 321.727 1088 321.5 1088.2 321.3C1088.4 321.087 1088.62 320.907 1088.86 320.76C1089.11 320.613 1089.38 320.5 1089.68 320.42C1089.97 320.327 1090.26 320.28 1090.56 320.28C1090.85 320.28 1091.12 320.32 1091.36 320.4L1091.28 322.34C1091.13 322.3 1090.98 322.267 1090.84 322.24C1090.69 322.213 1090.54 322.2 1090.4 322.2C1089.52 322.2 1088.84 322.447 1088.38 322.94C1087.91 323.433 1087.68 324.2 1087.68 325.24V330H1085.88V320.52ZM1092.32 321.68C1092.82 321.213 1093.41 320.867 1094.08 320.64C1094.74 320.4 1095.41 320.28 1096.08 320.28C1096.77 320.28 1097.36 320.367 1097.86 320.54C1098.36 320.713 1098.78 320.947 1099.1 321.24C1099.42 321.533 1099.65 321.873 1099.8 322.26C1099.96 322.633 1100.04 323.027 1100.04 323.44V328.28C1100.04 328.613 1100.04 328.92 1100.06 329.2C1100.07 329.48 1100.09 329.747 1100.12 330H1098.52C1098.48 329.52 1098.46 329.04 1098.46 328.56H1098.42C1098.02 329.173 1097.54 329.607 1097 329.86C1096.45 330.113 1095.82 330.24 1095.1 330.24C1094.66 330.24 1094.24 330.18 1093.84 330.06C1093.44 329.94 1093.08 329.76 1092.78 329.52C1092.48 329.28 1092.25 328.987 1092.08 328.64C1091.9 328.28 1091.82 327.867 1091.82 327.4C1091.82 326.787 1091.95 326.273 1092.22 325.86C1092.5 325.447 1092.87 325.113 1093.34 324.86C1093.82 324.593 1094.37 324.407 1095 324.3C1095.64 324.18 1096.32 324.12 1097.04 324.12H1098.36V323.72C1098.36 323.48 1098.31 323.24 1098.22 323C1098.12 322.76 1097.98 322.547 1097.8 322.36C1097.61 322.16 1097.38 322.007 1097.1 321.9C1096.82 321.78 1096.48 321.72 1096.1 321.72C1095.75 321.72 1095.44 321.753 1095.18 321.82C1094.92 321.887 1094.69 321.973 1094.48 322.08C1094.26 322.173 1094.07 322.287 1093.9 322.42C1093.72 322.553 1093.56 322.68 1093.4 322.8L1092.32 321.68ZM1097.4 325.44C1096.97 325.44 1096.53 325.467 1096.08 325.52C1095.64 325.56 1095.23 325.647 1094.86 325.78C1094.5 325.913 1094.2 326.1 1093.96 326.34C1093.73 326.58 1093.62 326.887 1093.62 327.26C1093.62 327.807 1093.8 328.2 1094.16 328.44C1094.53 328.68 1095.03 328.8 1095.66 328.8C1096.15 328.8 1096.57 328.72 1096.92 328.56C1097.26 328.387 1097.54 328.167 1097.76 327.9C1097.97 327.633 1098.12 327.34 1098.22 327.02C1098.31 326.687 1098.36 326.36 1098.36 326.04V325.44H1097.4ZM1101.65 320.52H1103.45V321.98H1103.49C1103.72 321.473 1104.11 321.067 1104.67 320.76C1105.23 320.44 1105.88 320.28 1106.61 320.28C1107.06 320.28 1107.5 320.353 1107.91 320.5C1108.34 320.633 1108.7 320.847 1109.01 321.14C1109.33 321.433 1109.58 321.813 1109.77 322.28C1109.96 322.733 1110.05 323.273 1110.05 323.9V330H1108.25V324.4C1108.25 323.96 1108.19 323.587 1108.07 323.28C1107.95 322.96 1107.79 322.707 1107.59 322.52C1107.39 322.32 1107.16 322.18 1106.89 322.1C1106.64 322.007 1106.37 321.96 1106.09 321.96C1105.72 321.96 1105.37 322.02 1105.05 322.14C1104.73 322.26 1104.45 322.453 1104.21 322.72C1103.97 322.973 1103.78 323.3 1103.65 323.7C1103.52 324.1 1103.45 324.573 1103.45 325.12V330H1101.65V320.52ZM1118.54 323.04C1118.21 322.693 1117.86 322.433 1117.48 322.26C1117.12 322.073 1116.69 321.98 1116.18 321.98C1115.69 321.98 1115.26 322.073 1114.88 322.26C1114.52 322.433 1114.22 322.68 1113.96 323C1113.72 323.307 1113.54 323.667 1113.4 324.08C1113.28 324.48 1113.22 324.9 1113.22 325.34C1113.22 325.78 1113.3 326.2 1113.44 326.6C1113.59 326.987 1113.8 327.327 1114.06 327.62C1114.33 327.913 1114.65 328.147 1115.02 328.32C1115.4 328.48 1115.82 328.56 1116.28 328.56C1116.79 328.56 1117.22 328.473 1117.58 328.3C1117.94 328.113 1118.28 327.847 1118.58 327.5L1119.86 328.78C1119.4 329.3 1118.85 329.673 1118.22 329.9C1117.61 330.127 1116.96 330.24 1116.26 330.24C1115.53 330.24 1114.86 330.12 1114.24 329.88C1113.64 329.64 1113.12 329.307 1112.68 328.88C1112.24 328.44 1111.9 327.92 1111.66 327.32C1111.42 326.707 1111.3 326.033 1111.3 325.3C1111.3 324.567 1111.42 323.893 1111.66 323.28C1111.9 322.667 1112.24 322.14 1112.66 321.7C1113.1 321.26 1113.62 320.92 1114.22 320.68C1114.84 320.427 1115.52 320.3 1116.26 320.3C1116.96 320.3 1117.62 320.427 1118.24 320.68C1118.88 320.92 1119.44 321.293 1119.9 321.8L1118.54 323.04ZM1121.77 325.92C1121.77 326.333 1121.86 326.713 1122.03 327.06C1122.22 327.393 1122.46 327.68 1122.75 327.92C1123.04 328.16 1123.38 328.347 1123.77 328.48C1124.16 328.613 1124.56 328.68 1124.97 328.68C1125.53 328.68 1126.02 328.553 1126.43 328.3C1126.84 328.033 1127.22 327.687 1127.57 327.26L1128.93 328.3C1127.93 329.593 1126.53 330.24 1124.73 330.24C1123.98 330.24 1123.3 330.113 1122.69 329.86C1122.09 329.607 1121.58 329.26 1121.15 328.82C1120.74 328.367 1120.42 327.84 1120.19 327.24C1119.96 326.627 1119.85 325.967 1119.85 325.26C1119.85 324.553 1119.97 323.9 1120.21 323.3C1120.46 322.687 1120.8 322.16 1121.23 321.72C1121.67 321.267 1122.19 320.913 1122.79 320.66C1123.39 320.407 1124.04 320.28 1124.75 320.28C1125.59 320.28 1126.3 320.427 1126.87 320.72C1127.46 321.013 1127.94 321.4 1128.31 321.88C1128.68 322.347 1128.95 322.88 1129.11 323.48C1129.28 324.067 1129.37 324.667 1129.37 325.28V325.92H1121.77ZM1127.45 324.48C1127.44 324.08 1127.37 323.713 1127.25 323.38C1127.14 323.047 1126.98 322.76 1126.75 322.52C1126.52 322.267 1126.24 322.073 1125.89 321.94C1125.56 321.793 1125.16 321.72 1124.71 321.72C1124.27 321.72 1123.86 321.807 1123.49 321.98C1123.13 322.14 1122.82 322.353 1122.57 322.62C1122.32 322.887 1122.12 323.187 1121.97 323.52C1121.84 323.84 1121.77 324.16 1121.77 324.48H1127.45Z" fill="#444445"></path><path opacity="0.1" fill-rule="evenodd" clip-rule="evenodd" d="M1305 276.547C1318.23 276.547 1328.95 287.271 1328.95 300.499C1328.95 313.728 1318.23 324.452 1305 324.452C1291.77 324.452 1281.05 313.728 1281.05 300.499C1281.05 287.271 1291.77 276.547 1305 276.547Z" fill="#D2DE4C"></path><path opacity="0.3" fill-rule="evenodd" clip-rule="evenodd" d="M1305 285.104C1313.5 285.104 1320.4 291.997 1320.4 300.499C1320.4 309.002 1313.5 315.895 1305 315.895C1296.5 315.895 1289.6 309.002 1289.6 300.499C1289.6 291.997 1296.5 285.104 1305 285.104Z" fill="#D2DE4C"></path><path opacity="0.5" fill-rule="evenodd" clip-rule="evenodd" d="M1305 292.499C1309.42 292.499 1313 296.081 1313 300.499C1313 304.918 1309.42 308.5 1305 308.5C1300.58 308.5 1297 304.918 1297 300.499C1297 296.081 1300.58 292.499 1305 292.499Z" fill="#D2DE4C"></path><path d="M1258.99 333.84H1267.89V335.64H1260.91V340.08H1267.41V341.88H1260.91V348H1258.99V333.84ZM1269.01 338.52H1270.81V339.98H1270.85C1270.97 339.727 1271.13 339.5 1271.33 339.3C1271.53 339.087 1271.75 338.907 1271.99 338.76C1272.24 338.613 1272.52 338.5 1272.81 338.42C1273.1 338.327 1273.4 338.28 1273.69 338.28C1273.98 338.28 1274.25 338.32 1274.49 338.4L1274.41 340.34C1274.26 340.3 1274.12 340.267 1273.97 340.24C1273.82 340.213 1273.68 340.2 1273.53 340.2C1272.65 340.2 1271.98 340.447 1271.51 340.94C1271.04 341.433 1270.81 342.2 1270.81 343.24V348H1269.01V338.52ZM1276.52 343.26C1276.52 343.74 1276.59 344.187 1276.74 344.6C1276.89 345 1277.09 345.347 1277.36 345.64C1277.63 345.92 1277.95 346.147 1278.34 346.32C1278.73 346.48 1279.16 346.56 1279.64 346.56C1280.12 346.56 1280.55 346.48 1280.94 346.32C1281.33 346.147 1281.65 345.92 1281.92 345.64C1282.19 345.347 1282.39 345 1282.54 344.6C1282.69 344.187 1282.76 343.74 1282.76 343.26C1282.76 342.78 1282.69 342.34 1282.54 341.94C1282.39 341.527 1282.19 341.18 1281.92 340.9C1281.65 340.607 1281.33 340.38 1280.94 340.22C1280.55 340.047 1280.12 339.96 1279.64 339.96C1279.16 339.96 1278.73 340.047 1278.34 340.22C1277.95 340.38 1277.63 340.607 1277.36 340.9C1277.09 341.18 1276.89 341.527 1276.74 341.94C1276.59 342.34 1276.52 342.78 1276.52 343.26ZM1274.6 343.26C1274.6 342.567 1274.73 341.92 1274.98 341.32C1275.25 340.72 1275.61 340.193 1276.06 339.74C1276.51 339.287 1277.05 338.933 1277.66 338.68C1278.27 338.413 1278.93 338.28 1279.64 338.28C1280.35 338.28 1281.01 338.413 1281.62 338.68C1282.23 338.933 1282.77 339.287 1283.22 339.74C1283.67 340.193 1284.03 340.72 1284.28 341.32C1284.55 341.92 1284.68 342.567 1284.68 343.26C1284.68 343.953 1284.55 344.607 1284.28 345.22C1284.03 345.82 1283.67 346.347 1283.22 346.8C1282.77 347.24 1282.23 347.593 1281.62 347.86C1281.01 348.113 1280.35 348.24 1279.64 348.24C1278.93 348.24 1278.27 348.113 1277.66 347.86C1277.05 347.593 1276.51 347.24 1276.06 346.8C1275.61 346.347 1275.25 345.82 1274.98 345.22C1274.73 344.607 1274.6 343.953 1274.6 343.26ZM1285.94 338.52H1287.74V339.98H1287.78C1288 339.473 1288.4 339.067 1288.96 338.76C1289.52 338.44 1290.16 338.28 1290.9 338.28C1291.35 338.28 1291.78 338.353 1292.2 338.5C1292.62 338.633 1292.99 338.847 1293.3 339.14C1293.62 339.433 1293.87 339.813 1294.06 340.28C1294.24 340.733 1294.34 341.273 1294.34 341.9V348H1292.54V342.4C1292.54 341.96 1292.48 341.587 1292.36 341.28C1292.24 340.96 1292.08 340.707 1291.88 340.52C1291.68 340.32 1291.44 340.18 1291.18 340.1C1290.92 340.007 1290.66 339.96 1290.38 339.96C1290 339.96 1289.66 340.02 1289.34 340.14C1289.02 340.26 1288.74 340.453 1288.5 340.72C1288.26 340.973 1288.07 341.3 1287.94 341.7C1287.8 342.1 1287.74 342.573 1287.74 343.12V348H1285.94V338.52ZM1301.13 340.08H1298.55V344.38C1298.55 344.647 1298.56 344.913 1298.57 345.18C1298.58 345.433 1298.63 345.667 1298.71 345.88C1298.8 346.08 1298.94 346.247 1299.11 346.38C1299.3 346.5 1299.56 346.56 1299.91 346.56C1300.12 346.56 1300.34 346.54 1300.57 346.5C1300.8 346.46 1301 346.387 1301.19 346.28V347.92C1300.98 348.04 1300.7 348.12 1300.35 348.16C1300.02 348.213 1299.76 348.24 1299.57 348.24C1298.88 348.24 1298.34 348.147 1297.95 347.96C1297.58 347.76 1297.3 347.507 1297.11 347.2C1296.94 346.893 1296.83 346.553 1296.79 346.18C1296.76 345.793 1296.75 345.407 1296.75 345.02V340.08H1294.67V338.52H1296.75V335.86H1298.55V338.52H1301.13V340.08ZM1313.98 348.36C1312.9 348.36 1311.9 348.173 1311 347.8C1310.09 347.413 1309.31 346.887 1308.66 346.22C1308.02 345.553 1307.51 344.767 1307.14 343.86C1306.78 342.953 1306.6 341.973 1306.6 340.92C1306.6 339.867 1306.78 338.887 1307.14 337.98C1307.51 337.073 1308.02 336.287 1308.66 335.62C1309.31 334.953 1310.09 334.433 1311 334.06C1311.9 333.673 1312.9 333.48 1313.98 333.48C1315.06 333.48 1316.05 333.673 1316.96 334.06C1317.86 334.433 1318.64 334.953 1319.28 335.62C1319.93 336.287 1320.44 337.073 1320.8 337.98C1321.17 338.887 1321.36 339.867 1321.36 340.92C1321.36 341.973 1321.17 342.953 1320.8 343.86C1320.44 344.767 1319.93 345.553 1319.28 346.22C1318.64 346.887 1317.86 347.413 1316.96 347.8C1316.05 348.173 1315.06 348.36 1313.98 348.36ZM1313.98 346.56C1314.79 346.56 1315.52 346.413 1316.18 346.12C1316.83 345.813 1317.39 345.407 1317.86 344.9C1318.32 344.393 1318.68 343.8 1318.94 343.12C1319.19 342.427 1319.32 341.693 1319.32 340.92C1319.32 340.147 1319.19 339.42 1318.94 338.74C1318.68 338.047 1318.32 337.447 1317.86 336.94C1317.39 336.433 1316.83 336.033 1316.18 335.74C1315.52 335.433 1314.79 335.28 1313.98 335.28C1313.16 335.28 1312.43 335.433 1311.78 335.74C1311.12 336.033 1310.56 336.433 1310.1 336.94C1309.63 337.447 1309.27 338.047 1309.02 338.74C1308.76 339.42 1308.64 340.147 1308.64 340.92C1308.64 341.693 1308.76 342.427 1309.02 343.12C1309.27 343.8 1309.63 344.393 1310.1 344.9C1310.56 345.407 1311.12 345.813 1311.78 346.12C1312.43 346.413 1313.16 346.56 1313.98 346.56ZM1323.36 340.08H1321.32V338.52H1323.36V336.4C1323.36 335.133 1323.6 334.193 1324.08 333.58C1324.57 332.953 1325.41 332.64 1326.6 332.64C1326.8 332.64 1327.01 332.647 1327.22 332.66C1327.45 332.673 1327.69 332.713 1327.94 332.78L1327.74 334.38C1327.57 334.313 1327.4 334.267 1327.24 334.24C1327.08 334.213 1326.91 334.2 1326.72 334.2C1326.39 334.2 1326.12 334.253 1325.92 334.36C1325.72 334.453 1325.56 334.593 1325.44 334.78C1325.33 334.967 1325.26 335.193 1325.22 335.46C1325.19 335.713 1325.18 336.007 1325.18 336.34V338.52H1327.32V340.08H1325.16V348H1323.36V340.08ZM1328.67 340.08H1326.63V338.52H1328.67V336.4C1328.67 335.133 1328.91 334.193 1329.39 333.58C1329.88 332.953 1330.72 332.64 1331.91 332.64C1332.11 332.64 1332.31 332.647 1332.53 332.66C1332.75 332.673 1332.99 332.713 1333.25 332.78L1333.05 334.38C1332.87 334.313 1332.71 334.267 1332.55 334.24C1332.39 334.213 1332.21 334.2 1332.03 334.2C1331.69 334.2 1331.43 334.253 1331.23 334.36C1331.03 334.453 1330.87 334.593 1330.75 334.78C1330.64 334.967 1330.57 335.193 1330.53 335.46C1330.5 335.713 1330.49 336.007 1330.49 336.34V338.52H1332.63V340.08H1330.47V348H1328.67V340.08ZM1333.77 338.52H1335.57V348H1333.77V338.52ZM1333.35 335.12C1333.35 334.76 1333.47 334.453 1333.73 334.2C1333.99 333.933 1334.31 333.8 1334.67 333.8C1335.03 333.8 1335.33 333.933 1335.59 334.2C1335.85 334.453 1335.99 334.76 1335.99 335.12C1335.99 335.48 1335.85 335.793 1335.59 336.06C1335.33 336.313 1335.03 336.44 1334.67 336.44C1334.31 336.44 1333.99 336.313 1333.73 336.06C1333.47 335.793 1333.35 335.48 1333.35 335.12ZM1344.21 341.04C1343.88 340.693 1343.53 340.433 1343.15 340.26C1342.79 340.073 1342.36 339.98 1341.85 339.98C1341.36 339.98 1340.93 340.073 1340.55 340.26C1340.19 340.433 1339.89 340.68 1339.63 341C1339.39 341.307 1339.21 341.667 1339.07 342.08C1338.95 342.48 1338.89 342.9 1338.89 343.34C1338.89 343.78 1338.97 344.2 1339.11 344.6C1339.26 344.987 1339.47 345.327 1339.73 345.62C1340 345.913 1340.32 346.147 1340.69 346.32C1341.07 346.48 1341.49 346.56 1341.95 346.56C1342.46 346.56 1342.89 346.473 1343.25 346.3C1343.61 346.113 1343.95 345.847 1344.25 345.5L1345.53 346.78C1345.07 347.3 1344.52 347.673 1343.89 347.9C1343.28 348.127 1342.63 348.24 1341.93 348.24C1341.2 348.24 1340.53 348.12 1339.91 347.88C1339.31 347.64 1338.79 347.307 1338.35 346.88C1337.91 346.44 1337.57 345.92 1337.33 345.32C1337.09 344.707 1336.97 344.033 1336.97 343.3C1336.97 342.567 1337.09 341.893 1337.33 341.28C1337.57 340.667 1337.91 340.14 1338.33 339.7C1338.77 339.26 1339.29 338.92 1339.89 338.68C1340.51 338.427 1341.19 338.3 1341.93 338.3C1342.63 338.3 1343.29 338.427 1343.91 338.68C1344.55 338.92 1345.11 339.293 1345.57 339.8L1344.21 341.04ZM1347.44 343.92C1347.44 344.333 1347.53 344.713 1347.7 345.06C1347.89 345.393 1348.13 345.68 1348.42 345.92C1348.71 346.16 1349.05 346.347 1349.44 346.48C1349.83 346.613 1350.23 346.68 1350.64 346.68C1351.2 346.68 1351.69 346.553 1352.1 346.3C1352.51 346.033 1352.89 345.687 1353.24 345.26L1354.6 346.3C1353.6 347.593 1352.2 348.24 1350.4 348.24C1349.65 348.24 1348.97 348.113 1348.36 347.86C1347.76 347.607 1347.25 347.26 1346.82 346.82C1346.41 346.367 1346.09 345.84 1345.86 345.24C1345.63 344.627 1345.52 343.967 1345.52 343.26C1345.52 342.553 1345.64 341.9 1345.88 341.3C1346.13 340.687 1346.47 340.16 1346.9 339.72C1347.34 339.267 1347.86 338.913 1348.46 338.66C1349.06 338.407 1349.71 338.28 1350.42 338.28C1351.26 338.28 1351.97 338.427 1352.54 338.72C1353.13 339.013 1353.61 339.4 1353.98 339.88C1354.35 340.347 1354.62 340.88 1354.78 341.48C1354.95 342.067 1355.04 342.667 1355.04 343.28V343.92H1347.44ZM1353.12 342.48C1353.11 342.08 1353.04 341.713 1352.92 341.38C1352.81 341.047 1352.65 340.76 1352.42 340.52C1352.19 340.267 1351.91 340.073 1351.56 339.94C1351.23 339.793 1350.83 339.72 1350.38 339.72C1349.94 339.72 1349.53 339.807 1349.16 339.98C1348.8 340.14 1348.49 340.353 1348.24 340.62C1347.99 340.887 1347.79 341.187 1347.64 341.52C1347.51 341.84 1347.44 342.16 1347.44 342.48H1353.12Z" fill="#444445"></path><path opacity="0.1" fill-rule="evenodd" clip-rule="evenodd" d="M1129 36.6034C1146.06 36.6034 1159.9 50.4361 1159.9 67.4996C1159.9 84.563 1146.06 98.3957 1129 98.3957C1111.94 98.3957 1098.1 84.563 1098.1 67.4996C1098.1 50.4361 1111.94 36.6034 1129 36.6034Z" fill="#D2DE4C"></path><path opacity="0.3" fill-rule="evenodd" clip-rule="evenodd" d="M1128 47.6407C1138.97 47.6407 1147.86 56.532 1147.86 67.4995C1147.86 78.4671 1138.97 87.3579 1128 87.3579C1117.03 87.3579 1108.14 78.4671 1108.14 67.4995C1108.14 56.532 1117.03 47.6407 1128 47.6407Z" fill="#D2DE4C"></path><path opacity="0.5" fill-rule="evenodd" clip-rule="evenodd" d="M1128 57.1803C1133.7 57.1803 1138.32 61.8004 1138.32 67.4995C1138.32 73.1987 1133.7 77.8188 1128 77.8188C1122.3 77.8188 1117.68 73.1987 1117.68 67.4995C1117.68 61.8004 1122.3 57.1803 1128 57.1803Z" fill="#D2DE4C"></path><path d="M1083.45 104.84H1088.37C1088.99 104.84 1089.55 104.913 1090.07 105.06C1090.61 105.207 1091.06 105.427 1091.43 105.72C1091.82 106 1092.12 106.367 1092.33 106.82C1092.56 107.26 1092.67 107.78 1092.67 108.38C1092.67 109.193 1092.45 109.86 1091.99 110.38C1091.54 110.887 1090.95 111.26 1090.23 111.5V111.54C1090.66 111.567 1091.06 111.68 1091.43 111.88C1091.81 112.067 1092.13 112.32 1092.39 112.64C1092.67 112.947 1092.89 113.307 1093.05 113.72C1093.21 114.133 1093.29 114.58 1093.29 115.06C1093.29 115.7 1093.16 116.267 1092.89 116.76C1092.64 117.24 1092.29 117.647 1091.83 117.98C1091.38 118.313 1090.85 118.567 1090.25 118.74C1089.65 118.913 1089.01 119 1088.31 119H1083.45V104.84ZM1085.37 110.72H1087.99C1088.35 110.72 1088.69 110.687 1089.01 110.62C1089.33 110.54 1089.61 110.413 1089.85 110.24C1090.09 110.067 1090.28 109.847 1090.41 109.58C1090.56 109.313 1090.63 108.987 1090.63 108.6C1090.63 108.04 1090.45 107.553 1090.09 107.14C1089.73 106.727 1089.17 106.52 1088.39 106.52H1085.37V110.72ZM1085.37 117.32H1088.19C1088.49 117.32 1088.81 117.293 1089.15 117.24C1089.51 117.173 1089.85 117.053 1090.15 116.88C1090.46 116.693 1090.72 116.447 1090.93 116.14C1091.15 115.833 1091.25 115.427 1091.25 114.92C1091.25 114.08 1090.98 113.453 1090.43 113.04C1089.89 112.613 1089.15 112.4 1088.21 112.4H1085.37V117.32ZM1094.63 110.68C1095.14 110.213 1095.73 109.867 1096.39 109.64C1097.06 109.4 1097.73 109.28 1098.39 109.28C1099.09 109.28 1099.68 109.367 1100.17 109.54C1100.68 109.713 1101.09 109.947 1101.41 110.24C1101.73 110.533 1101.97 110.873 1102.11 111.26C1102.27 111.633 1102.35 112.027 1102.35 112.44V117.28C1102.35 117.613 1102.36 117.92 1102.37 118.2C1102.39 118.48 1102.41 118.747 1102.43 119H1100.83C1100.79 118.52 1100.77 118.04 1100.77 117.56H1100.73C1100.33 118.173 1099.86 118.607 1099.31 118.86C1098.77 119.113 1098.13 119.24 1097.41 119.24C1096.97 119.24 1096.55 119.18 1096.15 119.06C1095.75 118.94 1095.4 118.76 1095.09 118.52C1094.8 118.28 1094.57 117.987 1094.39 117.64C1094.22 117.28 1094.13 116.867 1094.13 116.4C1094.13 115.787 1094.27 115.273 1094.53 114.86C1094.81 114.447 1095.19 114.113 1095.65 113.86C1096.13 113.593 1096.69 113.407 1097.31 113.3C1097.95 113.18 1098.63 113.12 1099.35 113.12H1100.67V112.72C1100.67 112.48 1100.63 112.24 1100.53 112C1100.44 111.76 1100.3 111.547 1100.11 111.36C1099.93 111.16 1099.69 111.007 1099.41 110.9C1099.13 110.78 1098.8 110.72 1098.41 110.72C1098.07 110.72 1097.76 110.753 1097.49 110.82C1097.24 110.887 1097.01 110.973 1096.79 111.08C1096.58 111.173 1096.39 111.287 1096.21 111.42C1096.04 111.553 1095.87 111.68 1095.71 111.8L1094.63 110.68ZM1099.71 114.44C1099.29 114.44 1098.85 114.467 1098.39 114.52C1097.95 114.56 1097.55 114.647 1097.17 114.78C1096.81 114.913 1096.51 115.1 1096.27 115.34C1096.05 115.58 1095.93 115.887 1095.93 116.26C1095.93 116.807 1096.11 117.2 1096.47 117.44C1096.85 117.68 1097.35 117.8 1097.97 117.8C1098.47 117.8 1098.89 117.72 1099.23 117.56C1099.58 117.387 1099.86 117.167 1100.07 116.9C1100.29 116.633 1100.44 116.34 1100.53 116.02C1100.63 115.687 1100.67 115.36 1100.67 115.04V114.44H1099.71ZM1110.74 112.04C1110.41 111.693 1110.06 111.433 1109.68 111.26C1109.32 111.073 1108.89 110.98 1108.38 110.98C1107.89 110.98 1107.46 111.073 1107.08 111.26C1106.72 111.433 1106.42 111.68 1106.16 112C1105.92 112.307 1105.74 112.667 1105.6 113.08C1105.48 113.48 1105.42 113.9 1105.42 114.34C1105.42 114.78 1105.5 115.2 1105.64 115.6C1105.79 115.987 1106 116.327 1106.26 116.62C1106.53 116.913 1106.85 117.147 1107.22 117.32C1107.6 117.48 1108.02 117.56 1108.48 117.56C1108.99 117.56 1109.42 117.473 1109.78 117.3C1110.14 117.113 1110.48 116.847 1110.78 116.5L1112.06 117.78C1111.6 118.3 1111.05 118.673 1110.42 118.9C1109.81 119.127 1109.16 119.24 1108.46 119.24C1107.73 119.24 1107.06 119.12 1106.44 118.88C1105.84 118.64 1105.32 118.307 1104.88 117.88C1104.44 117.44 1104.1 116.92 1103.86 116.32C1103.62 115.707 1103.5 115.033 1103.5 114.3C1103.5 113.567 1103.62 112.893 1103.86 112.28C1104.1 111.667 1104.44 111.14 1104.86 110.7C1105.3 110.26 1105.82 109.92 1106.42 109.68C1107.04 109.427 1107.72 109.3 1108.46 109.3C1109.16 109.3 1109.82 109.427 1110.44 109.68C1111.08 109.92 1111.64 110.293 1112.1 110.8L1110.74 112.04ZM1112.61 103.88H1114.41V113.64L1118.49 109.54H1120.99L1116.57 113.84L1121.37 119H1118.81L1114.41 114.08V119H1112.61V103.88ZM1133.51 119.36C1132.43 119.36 1131.44 119.173 1130.53 118.8C1129.62 118.413 1128.84 117.887 1128.19 117.22C1127.55 116.553 1127.04 115.767 1126.67 114.86C1126.31 113.953 1126.13 112.973 1126.13 111.92C1126.13 110.867 1126.31 109.887 1126.67 108.98C1127.04 108.073 1127.55 107.287 1128.19 106.62C1128.84 105.953 1129.62 105.433 1130.53 105.06C1131.44 104.673 1132.43 104.48 1133.51 104.48C1134.59 104.48 1135.58 104.673 1136.49 105.06C1137.4 105.433 1138.17 105.953 1138.81 106.62C1139.46 107.287 1139.97 108.073 1140.33 108.98C1140.7 109.887 1140.89 110.867 1140.89 111.92C1140.89 112.973 1140.7 113.953 1140.33 114.86C1139.97 115.767 1139.46 116.553 1138.81 117.22C1138.17 117.887 1137.4 118.413 1136.49 118.8C1135.58 119.173 1134.59 119.36 1133.51 119.36ZM1133.51 117.56C1134.32 117.56 1135.06 117.413 1135.71 117.12C1136.36 116.813 1136.92 116.407 1137.39 115.9C1137.86 115.393 1138.22 114.8 1138.47 114.12C1138.72 113.427 1138.85 112.693 1138.85 111.92C1138.85 111.147 1138.72 110.42 1138.47 109.74C1138.22 109.047 1137.86 108.447 1137.39 107.94C1136.92 107.433 1136.36 107.033 1135.71 106.74C1135.06 106.433 1134.32 106.28 1133.51 106.28C1132.7 106.28 1131.96 106.433 1131.31 106.74C1130.66 107.033 1130.1 107.433 1129.63 107.94C1129.16 108.447 1128.8 109.047 1128.55 109.74C1128.3 110.42 1128.17 111.147 1128.17 111.92C1128.17 112.693 1128.3 113.427 1128.55 114.12C1128.8 114.8 1129.16 115.393 1129.63 115.9C1130.1 116.407 1130.66 116.813 1131.31 117.12C1131.96 117.413 1132.7 117.56 1133.51 117.56ZM1142.89 111.08H1140.85V109.52H1142.89V107.4C1142.89 106.133 1143.13 105.193 1143.61 104.58C1144.1 103.953 1144.94 103.64 1146.13 103.64C1146.33 103.64 1146.54 103.647 1146.75 103.66C1146.98 103.673 1147.22 103.713 1147.47 103.78L1147.27 105.38C1147.1 105.313 1146.93 105.267 1146.77 105.24C1146.61 105.213 1146.44 105.2 1146.25 105.2C1145.92 105.2 1145.65 105.253 1145.45 105.36C1145.25 105.453 1145.09 105.593 1144.97 105.78C1144.86 105.967 1144.79 106.193 1144.75 106.46C1144.72 106.713 1144.71 107.007 1144.71 107.34V109.52H1146.85V111.08H1144.69V119H1142.89V111.08ZM1148.2 111.08H1146.16V109.52H1148.2V107.4C1148.2 106.133 1148.44 105.193 1148.92 104.58C1149.41 103.953 1150.25 103.64 1151.44 103.64C1151.64 103.64 1151.85 103.647 1152.06 103.66C1152.29 103.673 1152.53 103.713 1152.78 103.78L1152.58 105.38C1152.41 105.313 1152.24 105.267 1152.08 105.24C1151.92 105.213 1151.75 105.2 1151.56 105.2C1151.23 105.2 1150.96 105.253 1150.76 105.36C1150.56 105.453 1150.4 105.593 1150.28 105.78C1150.17 105.967 1150.1 106.193 1150.06 106.46C1150.03 106.713 1150.02 107.007 1150.02 107.34V109.52H1152.16V111.08H1150V119H1148.2V111.08ZM1153.3 109.52H1155.1V119H1153.3V109.52ZM1152.88 106.12C1152.88 105.76 1153.01 105.453 1153.26 105.2C1153.53 104.933 1153.84 104.8 1154.2 104.8C1154.56 104.8 1154.87 104.933 1155.12 105.2C1155.39 105.453 1155.52 105.76 1155.52 106.12C1155.52 106.48 1155.39 106.793 1155.12 107.06C1154.87 107.313 1154.56 107.44 1154.2 107.44C1153.84 107.44 1153.53 107.313 1153.26 107.06C1153.01 106.793 1152.88 106.48 1152.88 106.12ZM1163.74 112.04C1163.41 111.693 1163.06 111.433 1162.68 111.26C1162.32 111.073 1161.89 110.98 1161.38 110.98C1160.89 110.98 1160.46 111.073 1160.08 111.26C1159.72 111.433 1159.42 111.68 1159.16 112C1158.92 112.307 1158.74 112.667 1158.6 113.08C1158.48 113.48 1158.42 113.9 1158.42 114.34C1158.42 114.78 1158.5 115.2 1158.64 115.6C1158.79 115.987 1159 116.327 1159.26 116.62C1159.53 116.913 1159.85 117.147 1160.22 117.32C1160.6 117.48 1161.02 117.56 1161.48 117.56C1161.99 117.56 1162.42 117.473 1162.78 117.3C1163.14 117.113 1163.48 116.847 1163.78 116.5L1165.06 117.78C1164.6 118.3 1164.05 118.673 1163.42 118.9C1162.81 119.127 1162.16 119.24 1161.46 119.24C1160.73 119.24 1160.06 119.12 1159.44 118.88C1158.84 118.64 1158.32 118.307 1157.88 117.88C1157.44 117.44 1157.1 116.92 1156.86 116.32C1156.62 115.707 1156.5 115.033 1156.5 114.3C1156.5 113.567 1156.62 112.893 1156.86 112.28C1157.1 111.667 1157.44 111.14 1157.86 110.7C1158.3 110.26 1158.82 109.92 1159.42 109.68C1160.04 109.427 1160.72 109.3 1161.46 109.3C1162.16 109.3 1162.82 109.427 1163.44 109.68C1164.08 109.92 1164.64 110.293 1165.1 110.8L1163.74 112.04ZM1166.97 114.92C1166.97 115.333 1167.06 115.713 1167.23 116.06C1167.42 116.393 1167.66 116.68 1167.95 116.92C1168.25 117.16 1168.59 117.347 1168.97 117.48C1169.36 117.613 1169.76 117.68 1170.17 117.68C1170.73 117.68 1171.22 117.553 1171.63 117.3C1172.05 117.033 1172.43 116.687 1172.77 116.26L1174.13 117.3C1173.13 118.593 1171.73 119.24 1169.93 119.24C1169.19 119.24 1168.51 119.113 1167.89 118.86C1167.29 118.607 1166.78 118.26 1166.35 117.82C1165.94 117.367 1165.62 116.84 1165.39 116.24C1165.17 115.627 1165.05 114.967 1165.05 114.26C1165.05 113.553 1165.17 112.9 1165.41 112.3C1165.67 111.687 1166.01 111.16 1166.43 110.72C1166.87 110.267 1167.39 109.913 1167.99 109.66C1168.59 109.407 1169.25 109.28 1169.95 109.28C1170.79 109.28 1171.5 109.427 1172.07 109.72C1172.66 110.013 1173.14 110.4 1173.51 110.88C1173.89 111.347 1174.15 111.88 1174.31 112.48C1174.49 113.067 1174.57 113.667 1174.57 114.28V114.92H1166.97ZM1172.65 113.48C1172.64 113.08 1172.57 112.713 1172.45 112.38C1172.35 112.047 1172.18 111.76 1171.95 111.52C1171.73 111.267 1171.44 111.073 1171.09 110.94C1170.76 110.793 1170.37 110.72 1169.91 110.72C1169.47 110.72 1169.07 110.807 1168.69 110.98C1168.33 111.14 1168.03 111.353 1167.77 111.62C1167.52 111.887 1167.32 112.187 1167.17 112.52C1167.04 112.84 1166.97 113.16 1166.97 113.48H1172.65Z" fill="#444445"></path><path opacity="0.2" fill-rule="evenodd" clip-rule="evenodd" d="M802 81.7804C823.936 81.7804 841.719 99.5634 841.719 121.5C841.719 143.436 823.936 161.219 802 161.219C780.064 161.219 762.281 143.436 762.281 121.5C762.281 99.5634 780.064 81.7804 802 81.7804Z" fill="#D2DE4C"></path><path opacity="0.4" fill-rule="evenodd" clip-rule="evenodd" d="M802 95.9702C816.099 95.9702 827.529 107.4 827.529 121.5C827.529 135.599 816.099 147.029 802 147.029C787.9 147.029 776.47 135.599 776.47 121.5C776.47 107.4 787.9 95.9702 802 95.9702Z" fill="#D2DE4C"></path><path fill-rule="evenodd" clip-rule="evenodd" d="M802 108.234C809.326 108.234 815.266 114.173 815.266 121.499C815.266 128.826 809.326 134.765 802 134.765C794.673 134.765 788.734 128.826 788.734 121.499C788.734 114.173 794.673 108.234 802 108.234Z" fill="#D2DE4C"></path><path d="M775.038 176.64H770.478V174.84H781.518V176.64H776.958V189H775.038V176.64ZM780.266 179.52H782.066V180.98H782.106C782.226 180.727 782.386 180.5 782.586 180.3C782.786 180.087 783.006 179.907 783.246 179.76C783.5 179.613 783.773 179.5 784.066 179.42C784.36 179.327 784.653 179.28 784.946 179.28C785.24 179.28 785.506 179.32 785.746 179.4L785.666 181.34C785.52 181.3 785.373 181.267 785.226 181.24C785.08 181.213 784.933 181.2 784.786 181.2C783.906 181.2 783.233 181.447 782.766 181.94C782.3 182.433 782.066 183.2 782.066 184.24V189H780.266V179.52ZM786.709 180.68C787.215 180.213 787.802 179.867 788.469 179.64C789.135 179.4 789.802 179.28 790.469 179.28C791.162 179.28 791.755 179.367 792.249 179.54C792.755 179.713 793.169 179.947 793.489 180.24C793.809 180.533 794.042 180.873 794.189 181.26C794.349 181.633 794.429 182.027 794.429 182.44V187.28C794.429 187.613 794.435 187.92 794.449 188.2C794.462 188.48 794.482 188.747 794.509 189H792.909C792.869 188.52 792.849 188.04 792.849 187.56H792.809C792.409 188.173 791.935 188.607 791.389 188.86C790.842 189.113 790.209 189.24 789.489 189.24C789.049 189.24 788.629 189.18 788.229 189.06C787.829 188.94 787.475 188.76 787.169 188.52C786.875 188.28 786.642 187.987 786.469 187.64C786.295 187.28 786.209 186.867 786.209 186.4C786.209 185.787 786.342 185.273 786.609 184.86C786.889 184.447 787.262 184.113 787.729 183.86C788.209 183.593 788.762 183.407 789.389 183.3C790.029 183.18 790.709 183.12 791.429 183.12H792.749V182.72C792.749 182.48 792.702 182.24 792.609 182C792.515 181.76 792.375 181.547 792.189 181.36C792.002 181.16 791.769 181.007 791.489 180.9C791.209 180.78 790.875 180.72 790.489 180.72C790.142 180.72 789.835 180.753 789.569 180.82C789.315 180.887 789.082 180.973 788.869 181.08C788.655 181.173 788.462 181.287 788.289 181.42C788.115 181.553 787.949 181.68 787.789 181.8L786.709 180.68ZM791.789 184.44C791.362 184.44 790.922 184.467 790.469 184.52C790.029 184.56 789.622 184.647 789.249 184.78C788.889 184.913 788.589 185.1 788.349 185.34C788.122 185.58 788.009 185.887 788.009 186.26C788.009 186.807 788.189 187.2 788.549 187.44C788.922 187.68 789.422 187.8 790.049 187.8C790.542 187.8 790.962 187.72 791.309 187.56C791.655 187.387 791.935 187.167 792.149 186.9C792.362 186.633 792.515 186.34 792.609 186.02C792.702 185.687 792.749 185.36 792.749 185.04V184.44H791.789ZM796.18 179.52H797.98V189H796.18V179.52ZM795.76 176.12C795.76 175.76 795.886 175.453 796.14 175.2C796.406 174.933 796.72 174.8 797.08 174.8C797.44 174.8 797.746 174.933 798 175.2C798.266 175.453 798.4 175.76 798.4 176.12C798.4 176.48 798.266 176.793 798 177.06C797.746 177.313 797.44 177.44 797.08 177.44C796.72 177.44 796.406 177.313 796.14 177.06C795.886 176.793 795.76 176.48 795.76 176.12ZM799.844 179.52H801.644V180.98H801.684C801.911 180.473 802.304 180.067 802.864 179.76C803.424 179.44 804.071 179.28 804.804 179.28C805.258 179.28 805.691 179.353 806.104 179.5C806.531 179.633 806.898 179.847 807.204 180.14C807.524 180.433 807.778 180.813 807.964 181.28C808.151 181.733 808.244 182.273 808.244 182.9V189H806.444V183.4C806.444 182.96 806.384 182.587 806.264 182.28C806.144 181.96 805.984 181.707 805.784 181.52C805.584 181.32 805.351 181.18 805.084 181.1C804.831 181.007 804.564 180.96 804.284 180.96C803.911 180.96 803.564 181.02 803.244 181.14C802.924 181.26 802.644 181.453 802.404 181.72C802.164 181.973 801.978 182.3 801.844 182.7C801.711 183.1 801.644 183.573 801.644 184.12V189H799.844V179.52ZM810.098 179.52H811.898V189H810.098V179.52ZM809.678 176.12C809.678 175.76 809.804 175.453 810.058 175.2C810.324 174.933 810.638 174.8 810.998 174.8C811.358 174.8 811.664 174.933 811.918 175.2C812.184 175.453 812.318 175.76 812.318 176.12C812.318 176.48 812.184 176.793 811.918 177.06C811.664 177.313 811.358 177.44 810.998 177.44C810.638 177.44 810.324 177.313 810.058 177.06C809.804 176.793 809.678 176.48 809.678 176.12ZM813.762 179.52H815.562V180.98H815.602C815.829 180.473 816.222 180.067 816.782 179.76C817.342 179.44 817.989 179.28 818.722 179.28C819.176 179.28 819.609 179.353 820.022 179.5C820.449 179.633 820.816 179.847 821.122 180.14C821.442 180.433 821.696 180.813 821.882 181.28C822.069 181.733 822.162 182.273 822.162 182.9V189H820.362V183.4C820.362 182.96 820.302 182.587 820.182 182.28C820.062 181.96 819.902 181.707 819.702 181.52C819.502 181.32 819.269 181.18 819.002 181.1C818.749 181.007 818.482 180.96 818.202 180.96C817.829 180.96 817.482 181.02 817.162 181.14C816.842 181.26 816.562 181.453 816.322 181.72C816.082 181.973 815.896 182.3 815.762 182.7C815.629 183.1 815.562 183.573 815.562 184.12V189H813.762V179.52ZM833.376 188.92C833.376 189.64 833.249 190.293 832.996 190.88C832.756 191.48 832.409 191.993 831.956 192.42C831.502 192.86 830.956 193.2 830.316 193.44C829.676 193.68 828.969 193.8 828.196 193.8C827.289 193.8 826.456 193.673 825.696 193.42C824.949 193.167 824.236 192.727 823.556 192.1L824.776 190.58C825.242 191.087 825.749 191.467 826.296 191.72C826.842 191.987 827.462 192.12 828.156 192.12C828.822 192.12 829.376 192.02 829.816 191.82C830.256 191.633 830.602 191.387 830.856 191.08C831.122 190.773 831.309 190.42 831.416 190.02C831.522 189.633 831.576 189.24 831.576 188.84V187.44H831.516C831.169 188.013 830.696 188.44 830.096 188.72C829.509 188.987 828.889 189.12 828.236 189.12C827.542 189.12 826.896 189 826.296 188.76C825.709 188.507 825.202 188.167 824.776 187.74C824.349 187.3 824.016 186.787 823.776 186.2C823.536 185.6 823.416 184.953 823.416 184.26C823.416 183.567 823.529 182.92 823.756 182.32C823.982 181.707 824.302 181.173 824.716 180.72C825.142 180.267 825.649 179.913 826.236 179.66C826.836 179.407 827.502 179.28 828.236 179.28C828.876 179.28 829.496 179.42 830.096 179.7C830.709 179.98 831.189 180.373 831.536 180.88H831.576V179.52H833.376V188.92ZM828.456 180.96C827.976 180.96 827.542 181.047 827.156 181.22C826.769 181.38 826.442 181.607 826.176 181.9C825.909 182.18 825.702 182.527 825.556 182.94C825.409 183.34 825.336 183.78 825.336 184.26C825.336 185.22 825.616 185.993 826.176 186.58C826.736 187.153 827.496 187.44 828.456 187.44C829.416 187.44 830.176 187.153 830.736 186.58C831.296 185.993 831.576 185.22 831.576 184.26C831.576 183.78 831.502 183.34 831.356 182.94C831.209 182.527 831.002 182.18 830.736 181.9C830.469 181.607 830.142 181.38 829.756 181.22C829.369 181.047 828.936 180.96 828.456 180.96Z" fill="#444445"></path><path opacity="0.1" fill-rule="evenodd" clip-rule="evenodd" d="M306 298.622C324.71 298.622 339.878 313.789 339.878 332.5C339.878 351.21 324.71 366.377 306 366.377C287.29 366.377 272.122 351.21 272.122 332.5C272.122 313.789 287.29 298.622 306 298.622Z" fill="#D2DE4C"></path><path opacity="0.2" fill-rule="evenodd" clip-rule="evenodd" d="M306 310.724C318.026 310.724 327.775 320.474 327.775 332.5C327.775 344.525 318.026 354.275 306 354.275C293.974 354.275 284.225 344.525 284.225 332.5C284.225 320.474 293.974 310.724 306 310.724Z" fill="#D2DE4C"></path><path opacity="0.5" fill-rule="evenodd" clip-rule="evenodd" d="M306 321.185C312.249 321.185 317.315 326.251 317.315 332.5C317.315 338.749 312.249 343.814 306 343.814C299.751 343.814 294.685 338.749 294.685 332.5C294.685 326.251 299.751 321.185 306 321.185Z" fill="#D2DE4C"></path><path d="M278.963 377.9C278.563 377.38 278.057 376.98 277.443 376.7C276.83 376.42 276.197 376.28 275.543 376.28C274.743 376.28 274.017 376.433 273.363 376.74C272.723 377.033 272.17 377.44 271.703 377.96C271.25 378.48 270.897 379.093 270.643 379.8C270.39 380.493 270.263 381.24 270.263 382.04C270.263 382.787 270.383 383.493 270.623 384.16C270.863 384.827 271.21 385.413 271.663 385.92C272.117 386.427 272.67 386.827 273.323 387.12C273.977 387.413 274.717 387.56 275.543 387.56C276.357 387.56 277.07 387.393 277.683 387.06C278.297 386.727 278.817 386.26 279.243 385.66L280.863 386.88C280.757 387.027 280.57 387.24 280.303 387.52C280.037 387.787 279.683 388.06 279.243 388.34C278.803 388.607 278.27 388.84 277.643 389.04C277.03 389.253 276.317 389.36 275.503 389.36C274.383 389.36 273.37 389.147 272.463 388.72C271.57 388.293 270.803 387.733 270.163 387.04C269.537 386.347 269.057 385.567 268.723 384.7C268.39 383.82 268.223 382.933 268.223 382.04C268.223 380.947 268.403 379.94 268.763 379.02C269.123 378.087 269.623 377.287 270.263 376.62C270.917 375.94 271.697 375.413 272.603 375.04C273.51 374.667 274.51 374.48 275.603 374.48C276.537 374.48 277.45 374.66 278.343 375.02C279.25 375.38 279.99 375.933 280.563 376.68L278.963 377.9ZM281.865 373.88H283.665V389H281.865V373.88ZM285.67 379.52H287.47V389H285.67V379.52ZM285.25 376.12C285.25 375.76 285.377 375.453 285.63 375.2C285.897 374.933 286.21 374.8 286.57 374.8C286.93 374.8 287.237 374.933 287.49 375.2C287.757 375.453 287.89 375.76 287.89 376.12C287.89 376.48 287.757 376.793 287.49 377.06C287.237 377.313 286.93 377.44 286.57 377.44C286.21 377.44 285.897 377.313 285.63 377.06C285.377 376.793 285.25 376.48 285.25 376.12ZM289.335 379.52H291.135V380.98H291.175C291.401 380.473 291.795 380.067 292.355 379.76C292.915 379.44 293.561 379.28 294.295 379.28C294.748 379.28 295.181 379.353 295.595 379.5C296.021 379.633 296.388 379.847 296.695 380.14C297.015 380.433 297.268 380.813 297.455 381.28C297.641 381.733 297.735 382.273 297.735 382.9V389H295.935V383.4C295.935 382.96 295.875 382.587 295.755 382.28C295.635 381.96 295.475 381.707 295.275 381.52C295.075 381.32 294.841 381.18 294.575 381.1C294.321 381.007 294.055 380.96 293.775 380.96C293.401 380.96 293.055 381.02 292.735 381.14C292.415 381.26 292.135 381.453 291.895 381.72C291.655 381.973 291.468 382.3 291.335 382.7C291.201 383.1 291.135 383.573 291.135 384.12V389H289.335V379.52ZM299.588 379.52H301.388V389H299.588V379.52ZM299.168 376.12C299.168 375.76 299.295 375.453 299.548 375.2C299.815 374.933 300.128 374.8 300.488 374.8C300.848 374.8 301.155 374.933 301.408 375.2C301.675 375.453 301.808 375.76 301.808 376.12C301.808 376.48 301.675 376.793 301.408 377.06C301.155 377.313 300.848 377.44 300.488 377.44C300.128 377.44 299.815 377.313 299.548 377.06C299.295 376.793 299.168 376.48 299.168 376.12ZM310.033 382.04C309.699 381.693 309.346 381.433 308.973 381.26C308.613 381.073 308.179 380.98 307.673 380.98C307.179 380.98 306.746 381.073 306.373 381.26C306.013 381.433 305.706 381.68 305.453 382C305.213 382.307 305.026 382.667 304.893 383.08C304.773 383.48 304.713 383.9 304.713 384.34C304.713 384.78 304.786 385.2 304.933 385.6C305.079 385.987 305.286 386.327 305.553 386.62C305.819 386.913 306.139 387.147 306.513 387.32C306.886 387.48 307.306 387.56 307.773 387.56C308.279 387.56 308.713 387.473 309.073 387.3C309.433 387.113 309.766 386.847 310.073 386.5L311.353 387.78C310.886 388.3 310.339 388.673 309.713 388.9C309.099 389.127 308.446 389.24 307.753 389.24C307.019 389.24 306.346 389.12 305.733 388.88C305.133 388.64 304.613 388.307 304.173 387.88C303.733 387.44 303.393 386.92 303.153 386.32C302.913 385.707 302.793 385.033 302.793 384.3C302.793 383.567 302.913 382.893 303.153 382.28C303.393 381.667 303.726 381.14 304.153 380.7C304.593 380.26 305.113 379.92 305.713 379.68C306.326 379.427 307.006 379.3 307.753 379.3C308.446 379.3 309.106 379.427 309.733 379.68C310.373 379.92 310.926 380.293 311.393 380.8L310.033 382.04ZM312.041 379.52H313.841V389H312.041V379.52ZM311.621 376.12C311.621 375.76 311.748 375.453 312.001 375.2C312.268 374.933 312.581 374.8 312.941 374.8C313.301 374.8 313.608 374.933 313.861 375.2C314.128 375.453 314.261 375.76 314.261 376.12C314.261 376.48 314.128 376.793 313.861 377.06C313.608 377.313 313.301 377.44 312.941 377.44C312.581 377.44 312.268 377.313 312.001 377.06C311.748 376.793 311.621 376.48 311.621 376.12ZM315.746 380.68C316.252 380.213 316.839 379.867 317.506 379.64C318.172 379.4 318.839 379.28 319.506 379.28C320.199 379.28 320.792 379.367 321.286 379.54C321.792 379.713 322.206 379.947 322.526 380.24C322.846 380.533 323.079 380.873 323.226 381.26C323.386 381.633 323.466 382.027 323.466 382.44V387.28C323.466 387.613 323.472 387.92 323.486 388.2C323.499 388.48 323.519 388.747 323.546 389H321.946C321.906 388.52 321.886 388.04 321.886 387.56H321.846C321.446 388.173 320.972 388.607 320.426 388.86C319.879 389.113 319.246 389.24 318.526 389.24C318.086 389.24 317.666 389.18 317.266 389.06C316.866 388.94 316.512 388.76 316.206 388.52C315.912 388.28 315.679 387.987 315.506 387.64C315.332 387.28 315.246 386.867 315.246 386.4C315.246 385.787 315.379 385.273 315.646 384.86C315.926 384.447 316.299 384.113 316.766 383.86C317.246 383.593 317.799 383.407 318.426 383.3C319.066 383.18 319.746 383.12 320.466 383.12H321.786V382.72C321.786 382.48 321.739 382.24 321.646 382C321.552 381.76 321.412 381.547 321.226 381.36C321.039 381.16 320.806 381.007 320.526 380.9C320.246 380.78 319.912 380.72 319.526 380.72C319.179 380.72 318.872 380.753 318.606 380.82C318.352 380.887 318.119 380.973 317.906 381.08C317.692 381.173 317.499 381.287 317.326 381.42C317.152 381.553 316.986 381.68 316.826 381.8L315.746 380.68ZM320.826 384.44C320.399 384.44 319.959 384.467 319.506 384.52C319.066 384.56 318.659 384.647 318.286 384.78C317.926 384.913 317.626 385.1 317.386 385.34C317.159 385.58 317.046 385.887 317.046 386.26C317.046 386.807 317.226 387.2 317.586 387.44C317.959 387.68 318.459 387.8 319.086 387.8C319.579 387.8 319.999 387.72 320.346 387.56C320.692 387.387 320.972 387.167 321.186 386.9C321.399 386.633 321.552 386.34 321.646 386.02C321.739 385.687 321.786 385.36 321.786 385.04V384.44H320.826ZM325.077 379.52H326.877V380.98H326.917C327.143 380.473 327.537 380.067 328.097 379.76C328.657 379.44 329.303 379.28 330.037 379.28C330.49 379.28 330.923 379.353 331.337 379.5C331.763 379.633 332.13 379.847 332.437 380.14C332.757 380.433 333.01 380.813 333.197 381.28C333.383 381.733 333.477 382.273 333.477 382.9V389H331.677V383.4C331.677 382.96 331.617 382.587 331.497 382.28C331.377 381.96 331.217 381.707 331.017 381.52C330.817 381.32 330.583 381.18 330.317 381.1C330.063 381.007 329.797 380.96 329.517 380.96C329.143 380.96 328.797 381.02 328.477 381.14C328.157 381.26 327.877 381.453 327.637 381.72C327.397 381.973 327.21 382.3 327.077 382.7C326.943 383.1 326.877 383.573 326.877 384.12V389H325.077V379.52ZM340.23 381.9C340.017 381.633 339.75 381.413 339.43 381.24C339.123 381.053 338.743 380.96 338.29 380.96C337.863 380.96 337.49 381.053 337.17 381.24C336.863 381.413 336.71 381.673 336.71 382.02C336.71 382.3 336.797 382.527 336.97 382.7C337.157 382.873 337.37 383.013 337.61 383.12C337.863 383.227 338.13 383.307 338.41 383.36C338.69 383.413 338.93 383.46 339.13 383.5C339.517 383.593 339.877 383.707 340.21 383.84C340.557 383.973 340.85 384.147 341.09 384.36C341.343 384.573 341.537 384.833 341.67 385.14C341.817 385.447 341.89 385.82 341.89 386.26C341.89 386.793 341.777 387.253 341.55 387.64C341.323 388.013 341.03 388.32 340.67 388.56C340.31 388.8 339.897 388.973 339.43 389.08C338.977 389.187 338.517 389.24 338.05 389.24C337.263 389.24 336.57 389.12 335.97 388.88C335.383 388.64 334.857 388.2 334.39 387.56L335.75 386.44C336.043 386.733 336.37 386.993 336.73 387.22C337.09 387.447 337.53 387.56 338.05 387.56C338.277 387.56 338.503 387.54 338.73 387.5C338.97 387.447 339.177 387.373 339.35 387.28C339.537 387.173 339.683 387.047 339.79 386.9C339.91 386.74 339.97 386.56 339.97 386.36C339.97 386.093 339.883 385.873 339.71 385.7C339.55 385.527 339.35 385.393 339.11 385.3C338.883 385.193 338.637 385.113 338.37 385.06C338.117 384.993 337.89 384.94 337.69 384.9C337.303 384.807 336.937 384.7 336.59 384.58C336.243 384.46 335.937 384.3 335.67 384.1C335.403 383.9 335.19 383.647 335.03 383.34C334.87 383.033 334.79 382.653 334.79 382.2C334.79 381.707 334.89 381.28 335.09 380.92C335.303 380.547 335.577 380.24 335.91 380C336.257 379.76 336.643 379.58 337.07 379.46C337.51 379.34 337.95 379.28 338.39 379.28C339.03 379.28 339.643 379.4 340.23 379.64C340.817 379.88 341.283 380.28 341.63 380.84L340.23 381.9Z" fill="#444445"></path><defs><radialGradient id="paint0_radial" cx="0" cy="0" r="1" gradientUnits="userSpaceOnUse" gradientTransform="translate(791 398.999) rotate(-90) scale(1548 6620.38)"><stop stop-color="#F6F7F7" stop-opacity="0"></stop><stop offset="0.382429" stop-color="#D0D5DE"></stop></radialGradient><radialGradient id="paint1_radial" cx="0" cy="0" r="1" gradientUnits="userSpaceOnUse" gradientTransform="translate(791 565.813) rotate(-90) scale(1780.89 6941.68)"><stop stop-color="#F6F7F7" stop-opacity="0"></stop><stop offset="0.382429" stop-color="#D0D5DE"></stop></radialGradient><radialGradient id="paint2_radial" cx="0" cy="0" r="1" gradientUnits="userSpaceOnUse" gradientTransform="translate(783.999 665.813) rotate(-90) scale(1780.89 6941.68)"><stop stop-color="#F6F7F7" stop-opacity="0"></stop><stop offset="0.382429" stop-color="#B1B6BE"></stop></radialGradient></defs></svg>