<svg width="1600" height="740" viewBox="0 0 1600 740" fill="none" xmlns="http://www.w3.org/2000/svg">
<g opacity="0.5">
<mask id="mask2" mask-type="alpha" maskUnits="userSpaceOnUse" x="0" y="0" width="1600" height="740">
<rect width="1600" height="740" fill="#F9F9F9"/>
</mask>
<g mask="url(#mask2)">
<path opacity="0.5" fill-rule="evenodd" clip-rule="evenodd" d="M598.993 -353.526C879.721 -353.526 1107.3 -126.198 1107.3 154.224C1107.3 434.649 879.721 661.975 598.993 661.975C318.265 661.975 90.6901 434.649 90.6901 154.224C90.6901 -126.198 318.265 -353.526 598.993 -353.526Z" fill="black" fill-opacity="0.01" stroke="#9D9D9D"/>
<path opacity="0.5" fill-rule="evenodd" clip-rule="evenodd" d="M711.574 -392.994C992.232 -392.994 1219.75 -165.573 1219.75 114.962C1219.75 395.497 992.232 622.915 711.574 622.915C430.915 622.915 203.396 395.497 203.396 114.962C203.396 -165.573 430.915 -392.994 711.574 -392.994Z" fill="black" fill-opacity="0.01" stroke="#9D9D9D"/>
</g>
</g>
</svg>
