<svg width="64" height="65" viewBox="0 0 64 65" fill="none" xmlns="http://www.w3.org/2000/svg"><path d="M28.2374 28.1624C34.3608 28.1624 39.3249 23.1984 39.3249 17.0749C39.3249 10.9515 34.3608 5.98743 28.2374 5.98743C22.1139 5.98743 17.1499 10.9515 17.1499 17.0749C17.1499 23.1984 22.1139 28.1624 28.2374 28.1624Z" stroke="white" stroke-width="1.5" stroke-miterlimit="10" stroke-linecap="round" stroke-linejoin="round"></path><path d="M8.875 60.3125V51.725C8.875 41.1 17.4875 32.5 28.1 32.5C38.725 32.5 47.325 41.1125 47.325 51.725V60.3125" stroke="white" stroke-width="1.5" stroke-miterlimit="10" stroke-linecap="round" stroke-linejoin="round"></path><path d="M50.625 4.6875C53.4375 8.0375 55.125 12.3625 55.125 17.075C55.125 21.7875 53.4375 26.1125 50.625 29.4625" stroke="#D3DF4C" stroke-width="1.5" stroke-miterlimit="10" stroke-linecap="round" stroke-linejoin="round"></path><path d="M44.2124 25.8125C46.0999 23.4 47.2249 20.375 47.2249 17.075C47.2249 13.775 46.0999 10.75 44.2124 8.33752" stroke="#D3DF4C" stroke-width="1.5" stroke-miterlimit="10" stroke-linecap="round" stroke-linejoin="round"></path><path d="M50.625 4.6875C53.4375 8.0375 55.125 12.3625 55.125 17.075C55.125 21.7875 53.4375 26.1125 50.625 29.4625" stroke="#D3DF4C" stroke-width="1.5" stroke-miterlimit="10" stroke-linecap="round" stroke-linejoin="round"></path><path d="M44.2124 25.8125C46.0999 23.4 47.2249 20.375 47.2249 17.075C47.2249 13.775 46.0999 10.75 44.2124 8.33752" stroke="#D3DF4C" stroke-width="1.5" stroke-miterlimit="10" stroke-linecap="round" stroke-linejoin="round"></path></svg>