<svg width="64" height="65" viewBox="0 0 64 65" fill="none" xmlns="http://www.w3.org/2000/svg"><path d="M37.8628 18.275V32.4875" stroke="white" stroke-width="1.5" stroke-miterlimit="10" stroke-linecap="round" stroke-linejoin="round"></path><path d="M37.8631 34.3249C39.0781 34.3249 40.0631 33.34 40.0631 32.1249C40.0631 30.9099 39.0781 29.9249 37.8631 29.9249C36.6481 29.9249 35.6631 30.9099 35.6631 32.1249C35.6631 33.34 36.6481 34.3249 37.8631 34.3249Z" stroke="white" stroke-width="1.5" stroke-miterlimit="10" stroke-linecap="round" stroke-linejoin="round"></path><path d="M37.5 32.125H51.7125" stroke="white" stroke-width="1.5" stroke-miterlimit="10" stroke-linecap="round" stroke-linejoin="round"></path><path d="M16.8252 23.5375C20.2002 15.375 28.2377 9.625 37.6252 9.625C50.0502 9.625 60.1252 19.7 60.1252 32.125C60.1252 44.55 50.0502 54.625 37.6252 54.625C32.3502 54.625 27.5127 52.8125 23.6752 49.775" stroke="white" stroke-width="1.5" stroke-miterlimit="10" stroke-linecap="round" stroke-linejoin="round"></path><path d="M3.92529 31.0751H28.3753" stroke="#D3DF4C" stroke-width="1.5" stroke-miterlimit="10" stroke-linecap="round" stroke-linejoin="round"></path><path d="M6.9375 35.75H28.375" stroke="#D3DF4C" stroke-width="1.5" stroke-miterlimit="10" stroke-linecap="round" stroke-linejoin="round"></path><path d="M9.9502 40.4249H28.3752" stroke="#D3DF4C" stroke-width="1.5" stroke-miterlimit="10" stroke-linecap="round" stroke-linejoin="round"></path></svg>