<svg width="64" height="64" viewBox="0 0 64 64" fill="none" xmlns="http://www.w3.org/2000/svg"><path d="M39.2258 51.3881C38.5383 51.3881 37.8508 51.3006 37.2133 51.1381C36.8883 51.0506 36.6508 50.9881 36.4883 50.9506C36.2508 50.8881 36.0008 50.8256 35.7758 50.7631L35.3383 50.6506C33.5758 50.1756 32.1008 49.8006 30.5508 49.5131C29.6883 49.3506 28.9383 49.2506 28.2508 49.2131C27.9258 49.1881 27.6133 49.1756 27.3008 49.1756C26.8383 49.1756 26.4008 49.2006 25.9883 49.2506C25.8508 49.2756 25.7633 49.2756 25.6883 49.2881C25.6133 49.3006 25.5383 49.3006 25.4758 49.3006C24.8883 49.3006 24.6508 49.0131 24.6258 48.7381C24.5758 48.2881 25.0008 47.7256 25.7883 47.6256C26.2508 47.5631 26.7508 47.5381 27.2758 47.5381C29.9633 47.5381 32.9633 48.3256 35.8633 49.0881L35.9883 49.1256C36.5758 49.2756 37.1758 49.4381 37.6383 49.5506C38.1758 49.6881 38.7008 49.7506 39.2008 49.7506C40.2133 49.7506 41.1758 49.4631 41.7758 48.9881C42.0133 48.7881 42.1883 48.5756 42.2758 48.3631C42.3383 48.1631 42.3383 47.9631 42.2633 47.7631C42.1133 47.3756 41.5383 46.6631 39.4633 46.1131C38.7133 45.9256 37.8133 45.6506 37.0758 45.4256L36.8758 45.3631C36.6633 45.3006 36.4258 45.2256 36.0508 45.1131C32.9758 44.2006 30.7258 42.9631 28.3508 41.6506C27.8508 41.3756 27.2883 41.0631 26.7258 40.7631L26.2758 40.5256C26.0383 40.4006 25.8133 40.2756 25.5633 40.1506L25.4883 40.1131H25.4758V40.1006L25.3008 40.0131C22.5633 38.5881 20.2508 37.9006 18.2258 37.9006C15.3758 37.9006 13.5633 39.2506 11.8008 40.5506C10.8758 41.2381 8.45078 42.9381 7.32578 43.5881L7.25078 43.6256C7.22578 43.6381 7.21328 43.6506 7.20078 43.6506L7.15078 43.6756C7.03828 43.7506 6.91328 43.7756 6.80078 43.7756C6.68828 43.7756 6.57578 43.7506 6.47578 43.6881C6.22578 43.5381 6.05078 43.2506 6.05078 42.9381C6.05078 42.6006 6.25078 42.3006 6.58828 42.1006C7.23828 41.7256 10.1758 39.7006 10.8383 39.2131C10.9008 39.1631 11.0758 39.0381 11.0758 39.0381C11.2133 38.9381 11.3508 38.8381 11.5383 38.7006C12.0008 38.3631 12.5633 37.9756 13.1633 37.6256C13.7883 37.2631 14.3883 36.9881 14.9633 36.7756C15.7133 36.5006 16.4883 36.3381 17.3383 36.2631C17.6258 36.2381 17.9258 36.2256 18.2133 36.2256C18.7258 36.2256 19.2383 36.2631 19.7508 36.3381C20.8008 36.4881 21.9383 36.7881 23.1258 37.2256C24.1008 37.5881 25.1133 38.0506 26.2133 38.6256L26.2883 38.6631L26.4508 38.7506C26.6633 38.8631 27.0383 39.0631 27.4008 39.2631C28.6008 39.9006 29.6883 40.4756 30.8258 41.0256C31.1758 41.1881 31.6008 41.4381 32.0508 41.6881C32.7133 42.0631 33.4008 42.4506 33.9008 42.6381C34.7008 42.9381 35.5508 43.2256 36.5258 43.5131C36.6508 43.5506 36.8633 43.6131 37.1133 43.6881L37.5633 43.8256C38.2508 44.0381 39.0633 44.2881 39.8883 44.5006C40.4508 44.6506 40.9758 44.8256 41.4508 45.0381C42.0633 45.3131 42.5508 45.6131 42.9258 45.9506C43.1508 46.1506 43.3383 46.3631 43.5008 46.5881L43.5258 46.6256C43.5508 46.6631 43.5758 46.7006 43.5883 46.7381C43.9883 47.7256 44.2133 48.7881 43.2258 49.8631C42.7133 50.4381 42.0633 50.7631 41.6133 50.9381C40.9883 51.1881 40.2758 51.3256 39.5133 51.3631C39.4008 51.3881 39.3133 51.3881 39.2258 51.3881Z" fill="#32363B"></path><path d="M35.9133 57.7123C35.3508 57.7123 34.7508 57.6873 34.1508 57.6373C32.8258 57.5373 31.4508 57.3248 29.9633 56.9998C29.2758 56.8498 28.5258 56.6748 27.6133 56.4248C26.9008 56.2373 26.1133 56.0123 25.2883 55.7623C24.4508 55.4998 23.5633 55.2248 22.6883 54.9373C21.6633 54.6123 20.8133 54.3248 20.1008 54.0873C19.4008 53.8498 18.7633 53.6998 18.1258 53.6248C17.8133 53.5873 17.5008 53.5748 17.2133 53.5748C16.8508 53.5748 16.5008 53.5998 16.1508 53.6498C15.7758 53.7123 15.4008 53.7998 14.9633 53.9248C14.6758 54.0123 12.2633 54.8498 11.9508 54.9623C11.8883 54.9748 11.8133 54.9873 11.7508 54.9873C11.4383 54.9873 11.1383 54.7748 11.0008 54.4623C10.8758 54.1498 10.9008 53.6998 11.4008 53.4248L11.4258 53.4123C11.6633 53.3248 13.9258 52.5373 14.1383 52.4748C14.9633 52.1998 15.9633 51.9248 17.2258 51.9248C18.3008 51.9248 19.4258 52.1248 20.6508 52.5373C26.6258 54.5373 31.5383 56.0623 35.9633 56.0623C36.7508 56.0623 37.5258 56.0123 38.2633 55.9123C43.4133 55.2248 47.7383 51.3998 53.4633 45.0373C53.5383 44.9498 53.6383 44.8373 53.7508 44.7248C54.7383 43.6748 55.6508 42.6248 55.7008 41.9873C55.7258 41.6748 55.6883 41.4248 55.6133 41.2373C55.5508 41.0998 55.4508 41.0123 55.3133 40.9623C55.2258 40.9373 55.1258 40.9123 55.0258 40.9123C54.9258 40.9123 54.8133 40.9248 54.7008 40.9498C54.2758 41.0373 53.8133 41.2873 53.4008 41.6498C52.8258 42.1498 52.2883 42.7123 51.7758 43.2623C50.9508 44.1373 50.1133 45.0373 49.0508 45.6748C47.8258 46.4123 47.3383 46.6998 46.1508 47.2873C46.0508 47.3373 45.9383 47.3748 45.8258 47.3748C45.6883 47.3748 45.5508 47.3248 45.4258 47.2498C45.1633 47.0748 45.0008 46.7623 45.0383 46.4498C45.0508 46.2373 45.1758 45.9373 45.6133 45.7373C46.7133 45.1873 47.0258 44.9998 47.9633 44.4248L48.2133 44.2748C49.2258 43.6623 49.9883 42.8373 50.8008 41.9623C51.2883 41.4373 51.7883 40.8873 52.3383 40.4123C52.6383 40.1498 52.9383 39.9498 53.2383 39.7873L53.3508 39.7248L53.4008 39.5998C53.4383 39.4873 53.4633 39.4123 53.4633 39.3373C53.4883 39.0123 53.4508 38.7623 53.3758 38.5873C53.3133 38.4498 53.2133 38.3623 53.0883 38.3123C53.0133 38.2873 52.9008 38.2623 52.8008 38.2623C52.7008 38.2623 52.5883 38.2748 52.4758 38.2998C52.0508 38.3873 51.5758 38.6373 51.1758 38.9998C50.6008 39.4998 50.0758 40.0623 49.5633 40.6123C48.7383 41.4873 47.9008 42.3873 46.8383 43.0248C45.5883 43.7748 45.0883 44.0623 43.9383 44.6373C43.8383 44.6873 43.7258 44.7123 43.6133 44.7123C43.4758 44.7123 43.3258 44.6623 43.2008 44.5748C42.9383 44.3998 42.7883 44.0873 42.8133 43.7748C42.8383 43.5623 42.9508 43.2623 43.3883 43.0748L43.7633 42.8873C44.7008 42.4123 45.2633 42.1373 46.2758 41.5248C47.2508 40.9373 47.9008 40.1623 48.6008 39.3498C48.9383 38.9498 49.3258 38.4998 49.7508 38.0873L49.8758 37.9623L49.8508 37.7873C49.8258 37.6373 49.8008 37.5498 49.7633 37.4873C49.7008 37.3498 49.6008 37.2623 49.4633 37.2123C49.3758 37.1873 49.2883 37.1748 49.1758 37.1748C49.0758 37.1748 48.9633 37.1873 48.8383 37.2123C48.4133 37.3123 47.9383 37.5623 47.5383 37.9123C46.9633 38.4123 46.4383 38.9748 45.9258 39.5248C45.1008 40.3998 44.2633 41.3123 43.2008 41.9498C41.9383 42.6998 41.4508 42.9873 40.3008 43.5623C40.2008 43.6123 40.0883 43.6373 39.9758 43.6373C39.8383 43.6373 39.6883 43.5873 39.5633 43.4998C39.3008 43.3248 39.1508 43.0123 39.1758 42.7123C39.2008 42.4998 39.3133 42.2123 39.7508 42.0123C40.9258 41.4248 41.2758 41.2248 42.4258 40.5248C43.4258 39.9248 44.1508 39.1123 44.9258 38.2623C45.4133 37.7248 45.9133 37.1748 46.4758 36.6873C46.7508 36.4373 47.0508 36.2248 47.3758 36.0623C47.7133 35.8748 48.0258 35.7498 48.3508 35.6623C48.6258 35.5873 48.9133 35.5498 49.1883 35.5498C49.2758 35.5498 49.3758 35.5498 49.4633 35.5623C49.8258 35.5998 50.1633 35.7123 50.4633 35.8998C50.7758 36.0998 51.0258 36.3623 51.2008 36.6873L51.3383 36.9498L51.6258 36.8373C51.7633 36.7873 51.8758 36.7498 51.9883 36.7123C52.2758 36.6373 52.5508 36.5998 52.8258 36.5998C52.9258 36.5998 53.0133 36.5998 53.1008 36.6123C53.4633 36.6498 53.8008 36.7623 54.1008 36.9498C54.4883 37.1873 54.7633 37.5498 54.9508 37.9873C55.0633 38.2623 55.1258 38.5873 55.1383 38.9373L55.1508 39.2248L55.4383 39.2623C55.7883 39.3123 56.0883 39.4248 56.3508 39.5873C56.7383 39.8373 57.0258 40.1873 57.2008 40.6248C57.3633 41.0248 57.4258 41.5248 57.3883 42.0623C57.2883 43.3248 56.0258 44.6998 55.1008 45.6998C55.1008 45.6998 54.7883 46.0373 54.7383 46.0873C53.2633 47.7248 51.9383 49.0748 50.6758 50.2373C50.0883 50.7748 49.5758 51.3873 49.0883 51.9748C48.3508 52.8498 47.5883 53.7623 46.6258 54.3873C45.3133 55.2373 44.0383 55.8873 42.7508 56.3873C41.3633 56.9373 39.9758 57.2873 38.5008 57.4873C37.6008 57.6623 36.7758 57.7123 35.9133 57.7123Z" fill="#32363B"></path><path d="M34.6998 38.3744C32.9748 38.3744 31.2623 37.9994 29.7498 37.2994C28.2748 36.6119 26.9998 35.5994 26.0748 34.3619C24.7748 32.6244 24.1498 30.5119 24.2248 28.0869C24.2873 25.6619 25.0498 22.9869 26.4873 20.1244C27.3373 18.4244 28.3498 16.7744 29.4123 15.0119L29.4998 14.8494C30.2998 13.5369 31.1373 12.1744 31.8873 10.7869C32.7248 9.26191 33.3748 7.91191 33.8498 6.66191C34.0248 6.14941 34.3373 5.83691 34.6873 5.83691C35.0373 5.83691 35.3623 6.14941 35.5248 6.64941C36.0248 7.94941 36.6748 9.29941 37.4873 10.7869C38.2373 12.1619 39.0623 13.5119 39.8623 14.8369L39.9123 14.9244C41.0498 16.7744 42.0498 18.4494 42.8998 20.1244C44.3373 22.9744 45.0998 25.6494 45.1623 28.0869C45.2248 30.5119 44.5998 32.6244 43.3123 34.3619C42.3873 35.5994 41.1248 36.6119 39.6373 37.2994C38.1373 37.9994 36.4248 38.3744 34.6998 38.3744ZM34.3873 9.64941C33.9248 10.6119 33.3998 11.5869 32.7873 12.6369C32.1623 13.7244 31.5248 14.7869 30.9123 15.7744L30.8248 15.9244C30.3123 16.7619 29.8373 17.5494 29.3748 18.3494C28.8373 19.2744 28.3873 20.0994 27.9873 20.8744C26.7123 23.3994 26.0123 25.7619 25.9123 27.8744C25.8123 30.0244 26.3248 31.8619 27.4248 33.3369C28.1873 34.3619 29.2623 35.2119 30.5123 35.7869C31.7748 36.3619 33.2123 36.6744 34.6873 36.6744C36.1623 36.6744 37.5998 36.3619 38.8623 35.7869C40.1123 35.2119 41.1873 34.3744 41.9498 33.3369C43.0623 31.8619 43.5623 30.0119 43.4623 27.8744C43.3623 25.7619 42.6623 23.3994 41.3873 20.8744C40.5248 19.1494 39.4373 17.3744 38.4873 15.8119L38.4498 15.7619C37.8498 14.7869 37.2123 13.7244 36.5873 12.6369C35.9748 11.5869 35.4623 10.6119 34.9873 9.64941L34.6748 9.01191L34.3873 9.64941Z" fill="#D3DF4C"></path><path d="M34.8133 33.9256C33.6258 33.9256 32.4758 33.6506 31.5008 33.1381C30.3383 32.5256 29.4633 31.6006 28.9633 30.4631C28.6758 29.8131 28.5133 29.1006 28.4883 28.3381C28.5008 27.8756 28.8383 27.6631 29.1758 27.6631C29.4883 27.6631 29.8133 27.8631 29.8383 28.3006C29.8383 28.3506 29.8383 28.4006 29.8508 28.4506V28.4756C30.0633 29.8256 30.9633 31.1256 32.2133 31.8756C33.0008 32.3506 33.8883 32.5881 34.8508 32.5881C35.5508 32.5881 36.2883 32.4506 37.0258 32.2006C37.1383 32.1631 37.2383 32.1131 37.3508 32.0756C37.4633 32.0256 37.5758 32.0006 37.6883 32.0006C38.0133 32.0006 38.2133 32.2006 38.2883 32.4006C38.4133 32.7006 38.3133 33.1131 37.8758 33.3006C37.0133 33.6756 36.0883 33.8881 35.1008 33.9256C35.0008 33.9131 34.9133 33.9256 34.8133 33.9256Z" fill="#32363B"></path></svg>