<svg width="124" height="57" viewBox="0 0 124 57" fill="none" xmlns="http://www.w3.org/2000/svg" style="cursor:pointer"><path d="M20.5909 47.5282H21.3348L24.1691 54.2207H23.2463L22.5683 52.5759H19.2349L18.5475 54.2207H17.653L20.5909 47.5282ZM20.9487 48.5491H20.9299L19.5457 51.8386H22.267L20.9487 48.5491Z" fill="#E8EBF4"></path><path d="M26.9227 47.5282H28.9002C29.2078 47.5282 29.4997 47.5597 29.7759 47.6227C30.0584 47.6794 30.3064 47.7803 30.5198 47.9252C30.7395 48.0638 30.9122 48.2529 31.0377 48.4924C31.1695 48.7255 31.2355 49.0154 31.2355 49.362C31.2355 49.7275 31.1664 50.03 31.0283 50.2695C30.8902 50.5089 30.7113 50.698 30.4916 50.8366C30.2781 50.9753 30.0427 51.073 29.7853 51.1297C29.5279 51.1864 29.2831 51.2148 29.0508 51.2148H27.7137V54.2207H26.9227V47.5282ZM27.7137 50.4774H29.0508C29.4463 50.4774 29.7665 50.3892 30.0113 50.2128C30.2624 50.03 30.388 49.7496 30.388 49.3715C30.388 48.9934 30.2624 48.7161 30.0113 48.5396C29.7665 48.3569 29.4463 48.2655 29.0508 48.2655H27.7137V50.4774Z" fill="#E8EBF4"></path><path d="M31.9961 50.8461C31.9961 50.6444 31.9898 50.4554 31.9772 50.2789C31.9647 50.1025 31.9584 49.9418 31.9584 49.7968H32.6552C32.6552 49.9166 32.6584 50.0363 32.6646 50.156C32.6709 50.2758 32.674 50.3987 32.674 50.5247H32.6929C32.7431 50.4176 32.8122 50.3136 32.9 50.2128C32.9942 50.1119 33.1041 50.0237 33.2296 49.9481C33.3552 49.8662 33.4964 49.8031 33.6534 49.759C33.8103 49.7086 33.9798 49.6834 34.1618 49.6834C34.2121 49.6834 34.2623 49.6866 34.3125 49.6929C34.3627 49.6992 34.413 49.7118 34.4632 49.7307L34.4161 50.4774C34.2905 50.4396 34.1587 50.4207 34.0206 50.4207C33.5686 50.4207 33.239 50.5688 33.0319 50.865C32.831 51.1549 32.7305 51.555 32.7305 52.0655V54.2207H31.9961V50.8461Z" fill="#E8EBF4"></path><path d="M34.5101 52.0088C34.5101 51.6622 34.5697 51.3471 34.689 51.0635C34.8083 50.7799 34.9715 50.5373 35.1787 50.3356C35.3858 50.1277 35.6338 49.967 35.9226 49.8536C36.2113 49.7401 36.5252 49.6834 36.8642 49.6834C37.2032 49.6834 37.5171 49.7401 37.8059 49.8536C38.0946 49.967 38.3426 50.1277 38.5498 50.3356C38.7569 50.5373 38.9201 50.7799 39.0394 51.0635C39.1587 51.3471 39.2183 51.6622 39.2183 52.0088C39.2183 52.3554 39.1587 52.6705 39.0394 52.9541C38.9201 53.2376 38.7569 53.4834 38.5498 53.6914C38.3426 53.893 38.0946 54.0506 37.8059 54.164C37.5171 54.2774 37.2032 54.3341 36.8642 54.3341C36.5252 54.3341 36.2113 54.2774 35.9226 54.164C35.6338 54.0506 35.3858 53.893 35.1787 53.6914C34.9715 53.4834 34.8083 53.2376 34.689 52.9541C34.5697 52.6705 34.5101 52.3554 34.5101 52.0088ZM35.3011 52.0088C35.3011 52.2419 35.3356 52.4594 35.4047 52.661C35.48 52.8564 35.5867 53.0297 35.7248 53.1809C35.8629 53.3259 36.0262 53.4424 36.2145 53.5307C36.4091 53.6126 36.6257 53.6536 36.8642 53.6536C37.1028 53.6536 37.3162 53.6126 37.5045 53.5307C37.6991 53.4424 37.8655 53.3259 38.0036 53.1809C38.1417 53.0297 38.2453 52.8564 38.3144 52.661C38.3897 52.4594 38.4274 52.2419 38.4274 52.0088C38.4274 51.7756 38.3897 51.5614 38.3144 51.366C38.2453 51.1643 38.1417 50.991 38.0036 50.8461C37.8655 50.6949 37.6991 50.5783 37.5045 50.4963C37.3162 50.4081 37.1028 50.364 36.8642 50.364C36.6257 50.364 36.4091 50.4081 36.2145 50.4963C36.0262 50.5783 35.8629 50.6949 35.7248 50.8461C35.5867 50.991 35.48 51.1643 35.4047 51.366C35.3356 51.5614 35.3011 51.7756 35.3011 52.0088Z" fill="#E8EBF4"></path><path d="M43.6417 53.4361H43.6229C43.4848 53.6882 43.2651 53.9025 42.9637 54.0789C42.6687 54.2491 42.3234 54.3341 41.9279 54.3341C41.6203 54.3341 41.3315 54.2774 41.0616 54.164C40.7917 54.0443 40.5563 53.8804 40.3554 53.6725C40.1608 53.4645 40.007 53.2187 39.894 52.9351C39.781 52.6516 39.7245 52.3428 39.7245 52.0088C39.7245 51.6748 39.781 51.366 39.894 51.0824C40.007 50.7988 40.1639 50.5531 40.3648 50.3451C40.5657 50.1371 40.8074 49.9764 41.0899 49.863C41.3786 49.7433 41.6957 49.6834 42.0409 49.6834C42.3611 49.6834 42.653 49.7496 42.9166 49.8819C43.1866 50.0143 43.422 50.2002 43.6229 50.4396H43.6417V47.0745H44.3762V54.2207H43.6417V53.4361ZM43.6417 52.0088C43.6417 51.7756 43.6041 51.5614 43.5287 51.366C43.4597 51.1643 43.3561 50.991 43.218 50.8461C43.0799 50.6949 42.9135 50.5783 42.7189 50.4963C42.5306 50.4081 42.3171 50.364 42.0786 50.364C41.84 50.364 41.6235 50.4081 41.4289 50.4963C41.2405 50.5783 41.0773 50.6949 40.9392 50.8461C40.8011 50.991 40.6944 51.1643 40.619 51.366C40.55 51.5614 40.5155 51.7756 40.5155 52.0088C40.5155 52.2419 40.55 52.4594 40.619 52.661C40.6944 52.8564 40.8011 53.0297 40.9392 53.1809C41.0773 53.3259 41.2405 53.4424 41.4289 53.5307C41.6235 53.6126 41.84 53.6536 42.0786 53.6536C42.3171 53.6536 42.5306 53.6126 42.7189 53.5307C42.9135 53.4424 43.0799 53.3259 43.218 53.1809C43.3561 53.0297 43.4597 52.8564 43.5287 52.661C43.6041 52.4594 43.6417 52.2419 43.6417 52.0088Z" fill="#E8EBF4"></path><path d="M49.2005 53.1715C49.2005 53.3731 49.2068 53.5622 49.2194 53.7386C49.2319 53.9151 49.2382 54.0758 49.2382 54.2207H48.5414C48.5414 54.101 48.5382 53.9812 48.532 53.8615C48.5257 53.7418 48.5225 53.6189 48.5225 53.4929H48.5037C48.4535 53.6 48.3813 53.704 48.2871 53.8048C48.1992 53.9056 48.0925 53.997 47.967 54.0789C47.8414 54.1545 47.7002 54.2144 47.5432 54.2585C47.3863 54.3089 47.2168 54.3341 47.0347 54.3341C46.746 54.3341 46.4949 54.29 46.2814 54.2018C46.0743 54.1136 45.9016 53.9907 45.7635 53.8332C45.6254 53.6756 45.5218 53.4866 45.4528 53.266C45.39 53.0391 45.3586 52.7934 45.3586 52.5287V49.7968H46.0931V52.4531C46.0931 52.8249 46.1747 53.1179 46.3379 53.3322C46.5011 53.5464 46.7554 53.6536 47.1006 53.6536C47.3392 53.6536 47.5432 53.6126 47.7127 53.5307C47.8885 53.4487 48.0297 53.3322 48.1365 53.1809C48.2495 53.0297 48.3311 52.8501 48.3813 52.6421C48.4378 52.4342 48.466 52.2041 48.466 51.9521V49.7968H49.2005V53.1715Z" fill="#E8EBF4"></path><path d="M53.35 50.9028C53.1931 50.7138 53.0236 50.5783 52.8415 50.4963C52.6595 50.4081 52.4586 50.364 52.2389 50.364C51.994 50.364 51.7775 50.4081 51.5891 50.4963C51.4008 50.5783 51.2439 50.6949 51.1183 50.8461C50.999 50.9973 50.908 51.1738 50.8452 51.3754C50.7825 51.5708 50.7511 51.7819 50.7511 52.0088C50.7511 52.2356 50.7856 52.4499 50.8547 52.6516C50.93 52.8469 51.0304 53.0202 51.156 53.1715C51.2878 53.3227 51.4448 53.4424 51.6268 53.5307C51.8089 53.6126 52.0129 53.6536 52.2389 53.6536C52.7223 53.6536 53.0958 53.4708 53.3594 53.1053L53.9056 53.6252C53.6921 53.871 53.441 54.0506 53.1523 54.164C52.8635 54.2774 52.559 54.3341 52.2389 54.3341C51.8999 54.3341 51.5891 54.2774 51.3066 54.164C51.0241 54.0506 50.7825 53.8899 50.5816 53.6819C50.387 53.4739 50.2332 53.2282 50.1202 52.9446C50.0135 52.661 49.9601 52.3491 49.9601 52.0088C49.9601 51.6748 50.0135 51.366 50.1202 51.0824C50.2332 50.7988 50.3901 50.5531 50.591 50.3451C50.7919 50.1371 51.0304 49.9764 51.3066 49.863C51.5891 49.7433 51.8999 49.6834 52.2389 49.6834C52.5653 49.6834 52.8729 49.7401 53.1617 49.8536C53.4567 49.967 53.7141 50.1434 53.9338 50.3829L53.35 50.9028Z" fill="#E8EBF4"></path><path d="M56.791 50.4207H55.4915V52.6327C55.4915 52.7776 55.4947 52.9131 55.5009 53.0391C55.5072 53.1589 55.5323 53.266 55.5763 53.3605C55.6202 53.4487 55.6861 53.5212 55.774 53.5779C55.8619 53.6283 55.9875 53.6536 56.1507 53.6536C56.2574 53.6536 56.3673 53.6409 56.4802 53.6157C56.5932 53.5905 56.7 53.5527 56.8004 53.5023L56.8287 54.1734C56.7031 54.2302 56.5619 54.2711 56.4049 54.2963C56.2543 54.3215 56.1099 54.3341 55.9718 54.3341C55.7081 54.3341 55.4978 54.2995 55.3409 54.2302C55.1839 54.1608 55.0615 54.0632 54.9736 53.9371C54.8857 53.8111 54.8261 53.6567 54.7947 53.4739C54.7696 53.2849 54.757 53.0769 54.757 52.8501V50.4207H53.7966V49.7968H54.757V48.5396H55.4915V49.7968H56.791V50.4207Z" fill="#E8EBF4"></path><path d="M59.5207 47.0745H60.2551V50.4396H60.274C60.4749 50.2002 60.7071 50.0143 60.9708 49.8819C61.2407 49.7496 61.5358 49.6834 61.8559 49.6834C62.2012 49.6834 62.5151 49.7433 62.7976 49.863C63.0864 49.9764 63.3312 50.1371 63.5321 50.3451C63.733 50.5531 63.8899 50.7988 64.0029 51.0824C64.1159 51.366 64.1724 51.6748 64.1724 52.0088C64.1724 52.3428 64.1159 52.6516 64.0029 52.9351C63.8899 53.2187 63.733 53.4645 63.5321 53.6725C63.3375 53.8804 63.1052 54.0443 62.8353 54.164C62.5653 54.2774 62.2765 54.3341 61.9689 54.3341C61.5735 54.3341 61.225 54.2491 60.9237 54.0789C60.6287 53.9025 60.4121 53.6882 60.274 53.4361H60.2551V54.2207H59.5207V47.0745ZM60.2551 52.0088C60.2551 52.2419 60.2897 52.4594 60.3587 52.661C60.4341 52.8564 60.5408 53.0297 60.6789 53.1809C60.817 53.3259 60.9802 53.4424 61.1685 53.5307C61.3631 53.6126 61.5797 53.6536 61.8183 53.6536C62.0568 53.6536 62.2703 53.6126 62.4586 53.5307C62.6532 53.4424 62.8196 53.3259 62.9577 53.1809C63.0958 53.0297 63.1994 52.8564 63.2684 52.661C63.3437 52.4594 63.3814 52.2419 63.3814 52.0088C63.3814 51.7756 63.3437 51.5614 63.2684 51.366C63.1994 51.1643 63.0958 50.991 62.9577 50.8461C62.8196 50.6949 62.6532 50.5783 62.4586 50.4963C62.2703 50.4081 62.0568 50.364 61.8183 50.364C61.5797 50.364 61.3631 50.4081 61.1685 50.4963C60.9802 50.5783 60.817 50.6949 60.6789 50.8461C60.5408 50.991 60.4341 51.1643 60.3587 51.366C60.2897 51.5614 60.2551 51.7756 60.2551 52.0088Z" fill="#E8EBF4"></path><path d="M66.5578 55.2322C66.4825 55.4212 66.404 55.5914 66.3224 55.7426C66.2471 55.9001 66.1529 56.0325 66.0399 56.1396C65.9332 56.253 65.8014 56.3381 65.6444 56.3948C65.4938 56.4579 65.3086 56.4894 65.0889 56.4894C64.9822 56.4894 64.8692 56.4831 64.7499 56.4705C64.6369 56.4579 64.5302 56.4263 64.4297 56.3759L64.5239 55.7331C64.5992 55.7647 64.6777 55.7836 64.7593 55.7899C64.8409 55.8025 64.9351 55.8088 65.0418 55.8088C65.2803 55.8088 65.4561 55.7426 65.5691 55.6103C65.6821 55.4779 65.7794 55.3015 65.861 55.0809L66.1624 54.2491L64.3356 49.7968H65.1925L66.5578 53.266H66.5767L67.8856 49.7968H68.686L66.5578 55.2322Z" fill="#E8EBF4"></path><path d="M71.4802 47.5282H72.2712V54.2207H71.4802V47.5282Z" fill="#E8EBF4"></path><path d="M74.0299 53.1431C74.1868 53.1431 74.3187 53.1998 74.4254 53.3133C74.5384 53.4204 74.5949 53.5527 74.5949 53.7103C74.5949 53.8678 74.5352 54.0033 74.416 54.1167C74.303 54.2239 74.1743 54.2774 74.0299 54.2774C73.8855 54.2774 73.7537 54.2239 73.6344 54.1167C73.5214 54.0033 73.4649 53.8678 73.4649 53.7103C73.4649 53.5527 73.5183 53.4204 73.625 53.3133C73.738 53.1998 73.8729 53.1431 74.0299 53.1431Z" fill="#E8EBF4"></path><path d="M80.2666 48.2655H78.0631V54.2207H77.2722V48.2655H75.0687V47.5282H80.2666V48.2655Z" fill="#E8EBF4"></path><path d="M83.0684 47.5282H87.2022V48.2655H83.8593V50.4774H86.9668V51.2148H83.8593V54.2207H83.0684V47.5282Z" fill="#E8EBF4"></path><path d="M87.8582 47.0745H88.5927V54.2207H87.8582V47.0745Z" fill="#E8EBF4"></path><path d="M89.6213 50.364C89.8473 50.1308 90.1141 49.9607 90.4217 49.8536C90.7355 49.7401 91.0526 49.6834 91.3727 49.6834C92.0256 49.6834 92.4964 49.8378 92.7852 50.1466C93.074 50.4554 93.2183 50.9249 93.2183 51.555V53.455C93.2183 53.5811 93.2246 53.7134 93.2372 53.8521C93.2497 53.9844 93.2654 54.1073 93.2843 54.2207H92.578C92.5529 54.1199 92.5372 54.0096 92.5309 53.8899C92.5309 53.7638 92.5309 53.6536 92.5309 53.559H92.5121C92.3677 53.7859 92.1731 53.9718 91.9283 54.1167C91.6897 54.2617 91.401 54.3341 91.062 54.3341C90.836 54.3341 90.6225 54.3058 90.4217 54.2491C90.2271 54.1924 90.0544 54.1104 89.9037 54.0033C89.7594 53.8899 89.6432 53.7512 89.5553 53.5874C89.4675 53.4235 89.4235 53.2345 89.4235 53.0202C89.4235 52.6547 89.5177 52.368 89.706 52.16C89.8943 51.9521 90.1266 51.7977 90.4028 51.6968C90.6853 51.596 90.9866 51.533 91.3068 51.5078C91.6332 51.4826 91.9314 51.47 92.2014 51.47H92.4839V51.3376C92.4839 51.0162 92.3866 50.7736 92.1919 50.6098C92.0036 50.4459 91.7368 50.364 91.3915 50.364C91.153 50.364 90.9176 50.405 90.6853 50.4869C90.4593 50.5625 90.2584 50.6822 90.0827 50.8461L89.6213 50.364ZM91.7494 52.0939C91.2785 52.0939 90.905 52.16 90.6288 52.2924C90.3526 52.4247 90.2145 52.6421 90.2145 52.9446C90.2145 53.2219 90.3055 53.4204 90.4876 53.5401C90.6759 53.6536 90.9082 53.7103 91.1844 53.7103C91.3978 53.7103 91.583 53.6756 91.74 53.6063C91.9032 53.5307 92.0381 53.433 92.1449 53.3133C92.2516 53.1935 92.3332 53.0549 92.3897 52.8973C92.4462 52.7335 92.4776 52.5602 92.4839 52.3774V52.0939H91.7494Z" fill="#E8EBF4"></path><path d="M94.184 47.0745H94.9185V51.7441L96.9242 49.7968H97.9695L95.8413 51.8103L98.186 54.2207H97.1031L94.9185 51.8953V54.2207H94.184V47.0745Z" fill="#E8EBF4"></path><path d="M102.452 53.4172C102.188 53.7575 101.899 53.997 101.585 54.1356C101.271 54.268 100.907 54.3341 100.493 54.3341C100.148 54.3341 99.8371 54.2743 99.5608 54.1545C99.2846 54.0285 99.0492 53.8615 98.8546 53.6536C98.6663 53.4456 98.5188 53.1998 98.412 52.9162C98.3116 52.6327 98.2614 52.3302 98.2614 52.0088C98.2614 51.6685 98.3179 51.3565 98.4309 51.073C98.5439 50.7831 98.7008 50.5373 98.9017 50.3356C99.1026 50.1277 99.3411 49.967 99.6173 49.8536C99.8936 49.7401 100.195 49.6834 100.521 49.6834C100.829 49.6834 101.111 49.737 101.369 49.8441C101.626 49.9449 101.846 50.0962 102.028 50.2978C102.216 50.4932 102.361 50.7358 102.461 51.0257C102.562 51.3093 102.612 51.6338 102.612 51.9993V52.2356H99.0524C99.0649 52.4247 99.1088 52.6075 99.1842 52.7839C99.2658 52.9541 99.3694 53.1053 99.4949 53.2376C99.6205 53.3637 99.768 53.4645 99.9375 53.5401C100.107 53.6157 100.292 53.6536 100.493 53.6536C100.813 53.6536 101.083 53.5968 101.303 53.4834C101.523 53.37 101.72 53.203 101.896 52.9824L102.452 53.4172ZM101.821 51.6118C101.808 51.2337 101.686 50.9312 101.454 50.7043C101.221 50.4774 100.901 50.364 100.493 50.364C100.085 50.364 99.7554 50.4774 99.5043 50.7043C99.2532 50.9312 99.1026 51.2337 99.0524 51.6118H101.821Z" fill="#E8EBF4"></path><path d="M103.466 53.058C103.61 53.2408 103.767 53.3857 103.936 53.4929C104.112 53.6 104.332 53.6536 104.595 53.6536C104.708 53.6536 104.821 53.6409 104.934 53.6157C105.054 53.5905 105.16 53.5496 105.255 53.4929C105.349 53.4361 105.424 53.3668 105.481 53.2849C105.537 53.1967 105.565 53.0927 105.565 52.973C105.565 52.8532 105.537 52.7555 105.481 52.6799C105.43 52.6043 105.361 52.5413 105.273 52.4909C105.186 52.4342 105.085 52.39 104.972 52.3585C104.859 52.327 104.743 52.2987 104.624 52.2735C104.417 52.2293 104.219 52.1789 104.03 52.1222C103.842 52.0655 103.676 51.993 103.531 51.9048C103.393 51.8103 103.28 51.6905 103.192 51.5456C103.111 51.4007 103.07 51.2148 103.07 50.9879C103.07 50.7736 103.117 50.5846 103.211 50.4207C103.305 50.2569 103.431 50.1214 103.588 50.0143C103.745 49.9071 103.921 49.8252 104.115 49.7685C104.31 49.7118 104.511 49.6834 104.718 49.6834C105.032 49.6834 105.321 49.7464 105.584 49.8725C105.854 49.9985 106.064 50.2033 106.215 50.4869L105.603 50.8934C105.509 50.7358 105.383 50.6098 105.226 50.5153C105.076 50.4144 104.891 50.364 104.671 50.364C104.57 50.364 104.467 50.3766 104.36 50.4018C104.26 50.427 104.169 50.4648 104.087 50.5153C104.005 50.5657 103.936 50.6318 103.88 50.7138C103.83 50.7894 103.804 50.8776 103.804 50.9784C103.804 51.073 103.833 51.1549 103.889 51.2242C103.952 51.2872 104.034 51.3439 104.134 51.3944C104.241 51.4448 104.36 51.4889 104.492 51.5267C104.63 51.5645 104.771 51.596 104.916 51.6212C105.11 51.659 105.295 51.7094 105.471 51.7725C105.647 51.8292 105.801 51.9079 105.933 52.0088C106.064 52.1096 106.168 52.2356 106.243 52.3869C106.319 52.5381 106.356 52.724 106.356 52.9446C106.356 53.1967 106.306 53.4109 106.206 53.5874C106.105 53.7638 105.97 53.9088 105.801 54.0222C105.638 54.1293 105.449 54.2081 105.236 54.2585C105.029 54.3089 104.815 54.3341 104.595 54.3341C104.219 54.3341 103.892 54.2774 103.616 54.164C103.346 54.0443 103.101 53.8269 102.882 53.5118L103.466 53.058Z" fill="#E8EBF4"></path><path d="M109.38 47.5282H110.171V53.4834H113.222V54.2207H109.38V47.5282Z" fill="#E8EBF4"></path><path d="M113.712 47.5282H114.503V53.4834H117.553V54.2207H113.712V47.5282Z" fill="#E8EBF4"></path><path d="M122.714 48.9083C122.513 48.6373 122.265 48.4357 121.97 48.3033C121.675 48.1647 121.367 48.0954 121.047 48.0954C120.677 48.0954 120.334 48.171 120.021 48.3222C119.713 48.4735 119.446 48.6783 119.22 48.9366C118.994 49.1887 118.818 49.4849 118.693 49.8252C118.567 50.1592 118.505 50.5089 118.505 50.8745C118.505 51.2652 118.567 51.6307 118.693 51.971C118.818 52.305 118.991 52.598 119.211 52.8501C119.437 53.0958 119.704 53.2912 120.011 53.4361C120.325 53.5811 120.67 53.6536 121.047 53.6536C121.455 53.6536 121.819 53.5748 122.139 53.4172C122.459 53.2534 122.739 53.0202 122.977 52.7177L123.571 53.2187C123.269 53.622 122.905 53.9182 122.478 54.1073C122.058 54.2963 121.581 54.3909 121.047 54.3909C120.57 54.3909 120.124 54.3026 119.71 54.1262C119.296 53.9497 118.935 53.7071 118.627 53.3983C118.326 53.0832 118.087 52.7114 117.911 52.2829C117.742 51.8544 117.657 51.3849 117.657 50.8745C117.657 50.3829 117.739 49.9229 117.902 49.4944C118.071 49.0658 118.307 48.694 118.608 48.3789C118.909 48.0638 119.267 47.8149 119.682 47.6322C120.096 47.4494 120.551 47.358 121.047 47.358C121.499 47.358 121.932 47.44 122.346 47.6038C122.767 47.7677 123.119 48.0355 123.401 48.4073L122.714 48.9083Z" fill="#E8EBF4"></path><path d="M12.2394 17.6529V17.5353V12.2394H17.6529V5.41357H12.2394V0H5.41357V5.41357H0V12.2394H5.41357V17.5353V17.6529H12.2394Z" fill="#E8EBF4"></path><path d="M66.8476 35.4239L58.0212 22.4784L53.7845 26.7151C53.9022 25.8913 54.3729 24.4791 54.3729 23.6553C54.3729 22.0077 52.9607 20.9485 52.6076 19.5363L65.5531 4.82548H74.1442L62.7286 17.771L74.8503 35.4239H66.8476Z" fill="#E8EBF4"></path><path d="M32.7186 13.1812C31.4241 10.7098 29.5411 8.82682 26.952 7.53227C26.1282 7.06152 25.1867 6.70846 24.3629 6.47309C24.0098 6.3554 23.5391 6.23772 23.0683 6.12003C22.9507 6.12003 22.9507 6.12003 22.833 6.12003C22.0092 6.00234 21.0677 5.88466 20.0085 5.76697V12.0043C22.2445 12.122 24.4806 13.1812 25.7751 15.0642C26.8343 16.5941 27.4227 18.4771 27.4227 20.7131C27.4227 24.7145 25.5398 27.7743 22.1269 29.3042C20.7146 29.8927 18.9493 30.2457 17.184 30.2457H12.2412V20.1247H5.41541V36.0123H16.7133C20.4792 36.0123 23.8922 35.3062 26.7166 33.7763C29.3057 32.3641 31.3064 30.4811 32.6009 28.0097C33.7778 25.7736 34.3662 23.3022 34.3662 20.4778C34.3662 17.6533 33.7778 15.2996 32.7186 13.1812Z" fill="#E8EBF4"></path><path d="M38.956 4.35474C35.8962 4.35474 33.0717 5.17854 30.6003 6.70846C32.2479 8.00301 33.6601 9.65062 34.7193 11.4159C36.0138 10.8275 37.4261 10.4744 38.956 10.4744C44.4872 10.4744 49.077 15.0642 49.077 20.5954C49.077 26.1267 44.4872 30.7165 38.956 30.7165C37.4261 30.7165 35.8962 30.3634 34.6016 29.6573C33.5424 31.4226 32.1302 33.0702 30.3649 34.3647C32.8363 35.8947 35.7785 36.8361 38.956 36.8361C47.9002 36.8361 55.1967 29.5396 55.1967 20.5954C55.3144 11.6513 48.0178 4.35474 38.956 4.35474Z" fill="#E8EBF4"></path><path d="M90.4684 5.21533C92.5586 5.21533 94.3521 5.58251 95.8491 6.31688C97.346 7.02299 98.4758 8.01156 99.2384 9.28257C100.029 10.5253 100.425 11.9376 100.425 13.5193C100.425 15.4682 99.9163 17.0357 98.8995 18.222C97.9109 19.4083 96.6682 20.1568 95.1712 20.4675V20.6793C99.0407 21.9221 100.975 24.337 100.975 27.9241C100.975 29.647 100.58 31.1863 99.7892 32.5421C98.9984 33.8696 97.8403 34.9146 96.3151 35.6772C94.8181 36.4116 93.0105 36.7788 90.8921 36.7788C87.4463 36.7788 84.7065 35.9315 82.6729 34.2368C80.6675 32.5421 79.5801 29.9577 79.4106 26.4836H86.4859C86.5424 27.8111 86.9096 28.8562 87.5875 29.6188C88.2654 30.3814 89.2539 30.7627 90.5532 30.7627C91.5982 30.7627 92.4173 30.452 93.0105 29.8306C93.6319 29.2092 93.9425 28.4042 93.9425 27.4157C93.9425 24.9584 92.1631 23.7297 88.6043 23.7297H87.2486V17.8407H88.5619C91.7536 17.8972 93.3494 16.7533 93.3494 14.409C93.3494 13.3922 93.067 12.6154 92.5021 12.0788C91.9654 11.5139 91.2311 11.2315 90.299 11.2315C89.2822 11.2315 88.4772 11.5845 87.8841 12.2906C87.2909 12.9685 86.952 13.8865 86.8672 15.0445H79.7919C79.9332 11.8811 80.9217 9.45204 82.7576 7.75736C84.5935 6.06267 87.1638 5.21533 90.4684 5.21533Z" fill="#E8EBF4"></path><path d="M102.648 30.7203C111.629 24.3088 116.12 19.2106 116.12 15.4258C116.12 13.1097 115.118 11.9517 113.112 11.9517C111.983 11.9517 111.149 12.3471 110.613 13.138C110.104 13.9288 109.822 15.1575 109.765 16.8239H102.69C102.859 13.1803 103.961 10.4406 105.995 8.6047C108.028 6.76879 110.599 5.85084 113.705 5.85084C116.954 5.85084 119.397 6.66993 121.035 8.30813C122.701 9.94632 123.535 12.0788 123.535 14.7056C123.535 17.6148 122.419 20.4675 120.188 23.2637C117.956 26.0317 115.287 28.376 112.18 30.2966H124.001V36.1433H102.648V30.7203Z" fill="#E8EBF4"></path></svg>