<svg width="106" height="48" viewBox="0 0 106 48" fill="none" xmlns="http://www.w3.org/2000/svg" style="cursor:pointer"><path d="M17.4964 40.3855H18.1285L20.5369 46.0723H19.7528L19.1767 44.6747H16.3442L15.7601 46.0723H15L17.4964 40.3855ZM17.8005 41.253H17.7845L16.6083 44.0482H18.9206L17.8005 41.253Z" fill="black"></path><path d="M22.8767 40.3855H24.557C24.8183 40.3855 25.0664 40.4123 25.3011 40.4659C25.5411 40.5141 25.7518 40.5997 25.9332 40.7229C26.1199 40.8407 26.2666 41.0013 26.3733 41.2048C26.4853 41.4029 26.5413 41.6493 26.5413 41.9438C26.5413 42.2544 26.4826 42.5114 26.3653 42.7149C26.2479 42.9183 26.0959 43.079 25.9092 43.1968C25.7278 43.3146 25.5278 43.3976 25.3091 43.4458C25.0904 43.494 24.8823 43.5181 24.685 43.5181H23.5488V46.0723H22.8767V40.3855ZM23.5488 42.8916H24.685C25.021 42.8916 25.2931 42.8166 25.5011 42.6667C25.7145 42.5114 25.8212 42.2731 25.8212 41.9518C25.8212 41.6305 25.7145 41.3949 25.5011 41.245C25.2931 41.0897 25.021 41.012 24.685 41.012H23.5488V42.8916Z" fill="black"></path><path d="M27.1876 43.2048C27.1876 43.0335 27.1822 42.8728 27.1716 42.7229C27.1609 42.573 27.1556 42.4364 27.1556 42.3133H27.7477C27.7477 42.415 27.7503 42.5167 27.7557 42.6185C27.761 42.7202 27.7637 42.8246 27.7637 42.9317H27.7797C27.8223 42.8407 27.881 42.7523 27.9557 42.6667C28.0357 42.581 28.1291 42.506 28.2358 42.4418C28.3424 42.3722 28.4625 42.3186 28.5958 42.2811C28.7292 42.2383 28.8732 42.2169 29.0279 42.2169C29.0706 42.2169 29.1132 42.2195 29.1559 42.2249C29.1986 42.2303 29.2412 42.241 29.2839 42.257L29.2439 42.8916C29.1372 42.8594 29.0252 42.8434 28.9079 42.8434C28.5238 42.8434 28.2438 42.9692 28.0677 43.2209C27.897 43.4672 27.8117 43.8072 27.8117 44.241V46.0723H27.1876V43.2048Z" fill="black"></path><path d="M29.3238 44.1928C29.3238 43.8983 29.3745 43.6305 29.4758 43.3896C29.5772 43.1486 29.7159 42.9424 29.8919 42.7711C30.0679 42.5944 30.2786 42.4578 30.524 42.3614C30.7694 42.2651 31.0361 42.2169 31.3241 42.2169C31.6122 42.2169 31.8789 42.2651 32.1243 42.3614C32.3696 42.4578 32.5803 42.5944 32.7564 42.7711C32.9324 42.9424 33.0711 43.1486 33.1724 43.3896C33.2738 43.6305 33.3245 43.8983 33.3245 44.1928C33.3245 44.4873 33.2738 44.755 33.1724 44.996C33.0711 45.2369 32.9324 45.4458 32.7564 45.6225C32.5803 45.7938 32.3696 45.9277 32.1243 46.0241C31.8789 46.1205 31.6122 46.1687 31.3241 46.1687C31.0361 46.1687 30.7694 46.1205 30.524 46.0241C30.2786 45.9277 30.0679 45.7938 29.8919 45.6225C29.7159 45.4458 29.5772 45.2369 29.4758 44.996C29.3745 44.755 29.3238 44.4873 29.3238 44.1928ZM29.9959 44.1928C29.9959 44.3909 30.0253 44.5756 30.0839 44.747C30.1479 44.913 30.2386 45.0602 30.356 45.1888C30.4733 45.3119 30.612 45.411 30.772 45.4859C30.9374 45.5556 31.1214 45.5904 31.3241 45.5904C31.5268 45.5904 31.7082 45.5556 31.8682 45.4859C32.0336 45.411 32.1749 45.3119 32.2923 45.1888C32.4096 45.0602 32.4977 44.913 32.5563 44.747C32.6203 44.5756 32.6524 44.3909 32.6524 44.1928C32.6524 43.9946 32.6203 43.8126 32.5563 43.6466C32.4977 43.4752 32.4096 43.328 32.2923 43.2048C32.1749 43.0763 32.0336 42.9772 31.8682 42.9076C31.7082 42.8327 31.5268 42.7952 31.3241 42.7952C31.1214 42.7952 30.9374 42.8327 30.772 42.9076C30.612 42.9772 30.4733 43.0763 30.356 43.2048C30.2386 43.328 30.1479 43.4752 30.0839 43.6466C30.0253 43.8126 29.9959 43.9946 29.9959 44.1928Z" fill="black"></path><path d="M37.0831 45.4056H37.0671C36.9497 45.6198 36.763 45.8019 36.507 45.9518C36.2563 46.0964 35.9629 46.1687 35.6268 46.1687C35.3655 46.1687 35.1201 46.1205 34.8907 46.0241C34.6614 45.9224 34.4613 45.7831 34.2906 45.6064C34.1253 45.4297 33.9946 45.2209 33.8986 44.9799C33.8025 44.739 33.7545 44.4766 33.7545 44.1928C33.7545 43.909 33.8025 43.6466 33.8986 43.4056C33.9946 43.1647 34.1279 42.9558 34.2986 42.7791C34.4693 42.6024 34.6747 42.4659 34.9147 42.3695C35.1601 42.2677 35.4295 42.2169 35.7229 42.2169C35.9949 42.2169 36.2429 42.2731 36.467 42.3855C36.6964 42.498 36.8964 42.656 37.0671 42.8594H37.0831V40H37.7072V46.0723H37.0831V45.4056ZM37.0831 44.1928C37.0831 43.9946 37.0511 43.8126 36.9871 43.6466C36.9284 43.4752 36.8404 43.328 36.723 43.2048C36.6057 43.0763 36.4643 42.9772 36.299 42.9076C36.1389 42.8327 35.9576 42.7952 35.7549 42.7952C35.5522 42.7952 35.3681 42.8327 35.2028 42.9076C35.0427 42.9772 34.9041 43.0763 34.7867 43.2048C34.6694 43.328 34.5787 43.4752 34.5147 43.6466C34.456 43.8126 34.4266 43.9946 34.4266 44.1928C34.4266 44.3909 34.456 44.5756 34.5147 44.747C34.5787 44.913 34.6694 45.0602 34.7867 45.1888C34.9041 45.3119 35.0427 45.411 35.2028 45.4859C35.3681 45.5556 35.5522 45.5904 35.7549 45.5904C35.9576 45.5904 36.1389 45.5556 36.299 45.4859C36.4643 45.411 36.6057 45.3119 36.723 45.1888C36.8404 45.0602 36.9284 44.913 36.9871 44.747C37.0511 44.5756 37.0831 44.3909 37.0831 44.1928Z" fill="black"></path><path d="M41.8065 45.1807C41.8065 45.3521 41.8118 45.5127 41.8225 45.6627C41.8332 45.8126 41.8385 45.9491 41.8385 46.0723H41.2464C41.2464 45.9705 41.2437 45.8688 41.2384 45.7671C41.2331 45.6653 41.2304 45.5609 41.2304 45.4538H41.2144C41.1717 45.5448 41.1104 45.6332 41.0304 45.7189C40.9557 45.8046 40.865 45.8822 40.7583 45.9518C40.6516 46.0161 40.5316 46.0669 40.3983 46.1044C40.2649 46.1473 40.1209 46.1687 39.9662 46.1687C39.7208 46.1687 39.5074 46.1312 39.3261 46.0562C39.1501 45.9813 39.0034 45.8768 38.886 45.743C38.7687 45.6091 38.6806 45.4485 38.622 45.261C38.5686 45.0683 38.542 44.8594 38.542 44.6345V42.3133H39.1661V44.5703C39.1661 44.8862 39.2354 45.1352 39.3741 45.3173C39.5128 45.4993 39.7288 45.5904 40.0222 45.5904C40.2249 45.5904 40.3983 45.5556 40.5423 45.4859C40.6916 45.4163 40.8117 45.3173 40.9023 45.1888C40.9984 45.0602 41.0677 44.9076 41.1104 44.7309C41.1584 44.5542 41.1824 44.3588 41.1824 44.1446V42.3133H41.8065V45.1807Z" fill="black"></path><path d="M45.3324 43.253C45.199 43.0924 45.055 42.9772 44.9003 42.9076C44.7456 42.8327 44.5749 42.7952 44.3882 42.7952C44.1802 42.7952 43.9962 42.8327 43.8361 42.9076C43.6761 42.9772 43.5428 43.0763 43.4361 43.2048C43.3347 43.3333 43.2574 43.4833 43.204 43.6546C43.1507 43.8206 43.124 44 43.124 44.1928C43.124 44.3855 43.1534 44.5676 43.212 44.739C43.276 44.905 43.3614 45.0522 43.4681 45.1807C43.5801 45.3092 43.7135 45.411 43.8681 45.4859C44.0228 45.5556 44.1962 45.5904 44.3882 45.5904C44.799 45.5904 45.1164 45.4351 45.3404 45.1245L45.8045 45.5663C45.6231 45.7751 45.4097 45.9277 45.1644 46.0241C44.919 46.1205 44.6603 46.1687 44.3882 46.1687C44.1002 46.1687 43.8361 46.1205 43.5961 46.0241C43.3561 45.9277 43.1507 45.7912 42.98 45.6145C42.8146 45.4378 42.684 45.2289 42.5879 44.988C42.4973 44.747 42.4519 44.4819 42.4519 44.1928C42.4519 43.909 42.4973 43.6466 42.5879 43.4056C42.684 43.1647 42.8173 42.9558 42.988 42.7791C43.1587 42.6024 43.3614 42.4659 43.5961 42.3695C43.8361 42.2677 44.1002 42.2169 44.3882 42.2169C44.6656 42.2169 44.927 42.2651 45.1724 42.3614C45.4231 42.4578 45.6418 42.6078 45.8285 42.8112L45.3324 43.253Z" fill="black"></path><path d="M48.2562 42.8434H47.1521V44.7229C47.1521 44.8461 47.1547 44.9612 47.1601 45.0683C47.1654 45.17 47.1867 45.261 47.2241 45.3414C47.2614 45.4163 47.3174 45.4779 47.3921 45.5261C47.4668 45.5689 47.5735 45.5904 47.7122 45.5904C47.8028 45.5904 47.8962 45.5797 47.9922 45.5582C48.0882 45.5368 48.1789 45.5047 48.2642 45.4618L48.2882 46.0321C48.1816 46.0803 48.0615 46.1151 47.9282 46.1365C47.8002 46.158 47.6775 46.1687 47.5601 46.1687C47.3361 46.1687 47.1574 46.1392 47.024 46.0803C46.8907 46.0214 46.7867 45.9384 46.712 45.8313C46.6373 45.7242 46.5866 45.593 46.56 45.4378C46.5386 45.2771 46.528 45.1004 46.528 44.9076V42.8434H45.7118V42.3133H46.528V41.245H47.1521V42.3133H48.2562V42.8434Z" fill="black"></path><path d="M50.5757 40H51.1998V42.8594H51.2158C51.3865 42.656 51.5839 42.498 51.8079 42.3855C52.0373 42.2731 52.288 42.2169 52.56 42.2169C52.8534 42.2169 53.1201 42.2677 53.3601 42.3695C53.6055 42.4659 53.8136 42.6024 53.9843 42.7791C54.1549 42.9558 54.2883 43.1647 54.3843 43.4056C54.4803 43.6466 54.5283 43.909 54.5283 44.1928C54.5283 44.4766 54.4803 44.739 54.3843 44.9799C54.2883 45.2209 54.1549 45.4297 53.9843 45.6064C53.8189 45.7831 53.6215 45.9224 53.3922 46.0241C53.1628 46.1205 52.9174 46.1687 52.656 46.1687C52.32 46.1687 52.0239 46.0964 51.7679 45.9518C51.5172 45.8019 51.3331 45.6198 51.2158 45.4056H51.1998V46.0723H50.5757V40ZM51.1998 44.1928C51.1998 44.3909 51.2291 44.5756 51.2878 44.747C51.3518 44.913 51.4425 45.0602 51.5599 45.1888C51.6772 45.3119 51.8159 45.411 51.9759 45.4859C52.1413 45.5556 52.3253 45.5904 52.528 45.5904C52.7307 45.5904 52.9121 45.5556 53.0721 45.4859C53.2375 45.411 53.3788 45.3119 53.4962 45.1888C53.6135 45.0602 53.7015 44.913 53.7602 44.747C53.8242 44.5756 53.8562 44.3909 53.8562 44.1928C53.8562 43.9946 53.8242 43.8126 53.7602 43.6466C53.7015 43.4752 53.6135 43.328 53.4962 43.2048C53.3788 43.0763 53.2375 42.9772 53.0721 42.9076C52.9121 42.8327 52.7307 42.7952 52.528 42.7952C52.3253 42.7952 52.1413 42.8327 51.9759 42.9076C51.8159 42.9772 51.6772 43.0763 51.5599 43.2048C51.4425 43.328 51.3518 43.4752 51.2878 43.6466C51.2291 43.8126 51.1998 43.9946 51.1998 44.1928Z" fill="black"></path><path d="M56.5553 46.9317C56.4913 47.0924 56.4246 47.2369 56.3553 47.3655C56.2913 47.4993 56.2112 47.6118 56.1152 47.7028C56.0245 47.7992 55.9125 47.8715 55.7792 47.9197C55.6512 47.9732 55.4938 48 55.3071 48C55.2164 48 55.1204 47.9946 55.0191 47.9839C54.923 47.9732 54.8324 47.9465 54.747 47.9036L54.827 47.3574C54.891 47.3842 54.9577 47.4003 55.0271 47.4056C55.0964 47.4163 55.1764 47.4217 55.2671 47.4217C55.4698 47.4217 55.6191 47.3655 55.7152 47.253C55.8112 47.1406 55.8939 46.9906 55.9632 46.8032L56.2192 46.0964L54.667 42.3133H55.3951L56.5553 45.261H56.5713L57.6835 42.3133H58.3636L56.5553 46.9317Z" fill="black"></path><path d="M60.7379 40.3855H61.41V46.0723H60.7379V40.3855Z" fill="black"></path><path d="M62.9044 45.1566C63.0378 45.1566 63.1498 45.2048 63.2405 45.3012C63.3365 45.3922 63.3845 45.5047 63.3845 45.6386C63.3845 45.7724 63.3338 45.8875 63.2325 45.9839C63.1365 46.075 63.0271 46.1205 62.9044 46.1205C62.7817 46.1205 62.6697 46.075 62.5684 45.9839C62.4723 45.8875 62.4243 45.7724 62.4243 45.6386C62.4243 45.5047 62.4697 45.3922 62.5604 45.3012C62.6564 45.2048 62.7711 45.1566 62.9044 45.1566Z" fill="black"></path><path d="M68.2039 41.012H66.3315V46.0723H65.6594V41.012H63.7871V40.3855H68.2039V41.012Z" fill="black"></path><path d="M70.5846 40.3855H74.0971V41.012H71.2567V42.8916H73.8971V43.5181H71.2567V46.0723H70.5846V40.3855Z" fill="black"></path><path d="M74.6545 40H75.2786V46.0723H74.6545V40Z" fill="black"></path><path d="M76.1527 42.7952C76.3447 42.5971 76.5714 42.4525 76.8328 42.3614C77.0995 42.2651 77.3689 42.2169 77.6409 42.2169C78.1957 42.2169 78.5957 42.3481 78.8411 42.6104C79.0865 42.8728 79.2092 43.2718 79.2092 43.8072V45.4217C79.2092 45.5288 79.2145 45.6412 79.2252 45.759C79.2358 45.8715 79.2492 45.9759 79.2652 46.0723H78.6651C78.6437 45.9866 78.6304 45.8929 78.6251 45.7912C78.6251 45.6841 78.6251 45.5904 78.6251 45.51H78.6091C78.4864 45.7028 78.321 45.8608 78.113 45.9839C77.9103 46.1071 77.6649 46.1687 77.3769 46.1687C77.1848 46.1687 77.0035 46.1446 76.8328 46.0964C76.6674 46.0482 76.5207 45.9786 76.3927 45.8875C76.27 45.7912 76.1713 45.6734 76.0967 45.5341C76.022 45.3949 75.9846 45.2343 75.9846 45.0522C75.9846 44.7416 76.0647 44.498 76.2247 44.3213C76.3847 44.1446 76.5821 44.0134 76.8168 43.9277C77.0568 43.842 77.3129 43.7885 77.5849 43.7671C77.8623 43.7456 78.1157 43.7349 78.345 43.7349H78.5851V43.6225C78.5851 43.3494 78.5024 43.1432 78.337 43.004C78.177 42.8648 77.9503 42.7952 77.6569 42.7952C77.4542 42.7952 77.2542 42.83 77.0568 42.8996C76.8648 42.9639 76.6941 43.0656 76.5447 43.2048L76.1527 42.7952ZM77.961 44.2651C77.5609 44.2651 77.2435 44.3213 77.0088 44.4337C76.7741 44.5462 76.6568 44.7309 76.6568 44.988C76.6568 45.2236 76.7341 45.3922 76.8888 45.494C77.0488 45.5904 77.2462 45.6386 77.4809 45.6386C77.6623 45.6386 77.8196 45.6091 77.953 45.5502C78.0917 45.4859 78.2063 45.4029 78.297 45.3012C78.3877 45.1995 78.457 45.0817 78.5051 44.9478C78.5531 44.8086 78.5797 44.6613 78.5851 44.506V44.2651H77.961Z" fill="black"></path><path d="M80.0297 40H80.6538V43.9679L82.3581 42.3133H83.2463L81.438 44.0241L83.4303 46.0723H82.5102L80.6538 44.0964V46.0723H80.0297V40Z" fill="black"></path><path d="M87.0549 45.3896C86.8309 45.6787 86.5855 45.8822 86.3188 46C86.0521 46.1124 85.7427 46.1687 85.3906 46.1687C85.0972 46.1687 84.8332 46.1178 84.5985 46.0161C84.3638 45.909 84.1638 45.7671 83.9984 45.5904C83.8384 45.4137 83.713 45.2048 83.6223 44.9639C83.537 44.7229 83.4943 44.4659 83.4943 44.1928C83.4943 43.9036 83.5423 43.6386 83.6383 43.3976C83.7344 43.1513 83.8677 42.9424 84.0384 42.7711C84.2091 42.5944 84.4118 42.4578 84.6465 42.3614C84.8812 42.2651 85.1373 42.2169 85.4146 42.2169C85.676 42.2169 85.916 42.2624 86.1348 42.3534C86.3535 42.4391 86.5402 42.5676 86.6948 42.739C86.8549 42.905 86.9776 43.1111 87.0629 43.3574C87.1483 43.5984 87.1909 43.8742 87.1909 44.1847V44.3855H84.1664C84.1771 44.5462 84.2144 44.7015 84.2784 44.8514C84.3478 44.996 84.4358 45.1245 84.5425 45.2369C84.6492 45.344 84.7745 45.4297 84.9186 45.494C85.0626 45.5582 85.2199 45.5904 85.3906 45.5904C85.6627 45.5904 85.892 45.5422 86.0787 45.4458C86.2654 45.3494 86.4335 45.2075 86.5828 45.0201L87.0549 45.3896ZM86.5188 43.8554C86.5081 43.5341 86.4041 43.2771 86.2068 43.0843C86.0094 42.8916 85.7374 42.7952 85.3906 42.7952C85.0439 42.7952 84.7639 42.8916 84.5505 43.0843C84.3371 43.2771 84.2091 43.5341 84.1664 43.8554H86.5188Z" fill="black"></path><path d="M87.9164 45.0843C88.039 45.2396 88.1724 45.3628 88.3164 45.4538C88.4658 45.5448 88.6525 45.5904 88.8765 45.5904C88.9725 45.5904 89.0686 45.5797 89.1646 45.5582C89.2659 45.5368 89.3566 45.502 89.4366 45.4538C89.5166 45.4056 89.5806 45.3467 89.6286 45.2771C89.6767 45.2021 89.7007 45.1138 89.7007 45.012C89.7007 44.9103 89.6767 44.8273 89.6286 44.7631C89.586 44.6988 89.5273 44.6452 89.4526 44.6024C89.3779 44.5542 89.2926 44.5167 89.1966 44.49C89.1006 44.4632 89.0019 44.4391 88.9005 44.4177C88.7245 44.3802 88.5565 44.3373 88.3964 44.2892C88.2364 44.241 88.0951 44.1794 87.9724 44.1044C87.855 44.0241 87.759 43.9224 87.6843 43.7992C87.615 43.676 87.5803 43.5181 87.5803 43.3253C87.5803 43.1432 87.6203 42.9826 87.7003 42.8434C87.7803 42.7041 87.887 42.589 88.0204 42.498C88.1537 42.407 88.3031 42.3373 88.4685 42.2892C88.6338 42.241 88.8045 42.2169 88.9805 42.2169C89.2472 42.2169 89.4926 42.2704 89.7167 42.3775C89.946 42.4846 90.1247 42.6586 90.2527 42.8996L89.7327 43.245C89.6526 43.1111 89.546 43.004 89.4126 42.9237C89.2846 42.838 89.1272 42.7952 88.9405 42.7952C88.8552 42.7952 88.7672 42.8059 88.6765 42.8273C88.5911 42.8487 88.5138 42.8809 88.4445 42.9237C88.3751 42.9665 88.3164 43.0228 88.2684 43.0924C88.2257 43.1566 88.2044 43.2316 88.2044 43.3173C88.2044 43.3976 88.2284 43.4672 88.2764 43.5261C88.3298 43.5797 88.3991 43.6278 88.4845 43.6707C88.5751 43.7135 88.6765 43.751 88.7885 43.7831C88.9059 43.8153 89.0259 43.842 89.1486 43.8635C89.3139 43.8956 89.4713 43.9384 89.6206 43.992C89.77 44.0402 89.9007 44.1071 90.0127 44.1928C90.1247 44.2784 90.2127 44.3855 90.2767 44.5141C90.3408 44.6426 90.3728 44.8005 90.3728 44.988C90.3728 45.2021 90.3301 45.3842 90.2447 45.5341C90.1594 45.6841 90.0447 45.8072 89.9007 45.9036C89.762 45.9946 89.602 46.0616 89.4206 46.1044C89.2446 46.1473 89.0632 46.1687 88.8765 46.1687C88.5565 46.1687 88.2791 46.1205 88.0444 46.0241C87.815 45.9224 87.607 45.7376 87.4203 45.4699L87.9164 45.0843Z" fill="black"></path><path d="M92.942 40.3855H93.6141V45.4458H96.2065V46.0723H92.942V40.3855Z" fill="black"></path><path d="M96.6226 40.3855H97.2947V45.4458H99.8872V46.0723H96.6226V40.3855Z" fill="black"></path><path d="M104.272 41.5582C104.101 41.328 103.89 41.1566 103.64 41.0442C103.389 40.9264 103.128 40.8675 102.856 40.8675C102.541 40.8675 102.25 40.9317 101.983 41.0602C101.722 41.1888 101.495 41.3628 101.303 41.5823C101.111 41.7965 100.962 42.0482 100.855 42.3373C100.749 42.6212 100.695 42.9183 100.695 43.2289C100.695 43.5609 100.749 43.8715 100.855 44.1606C100.962 44.4444 101.109 44.6934 101.295 44.9076C101.487 45.1165 101.714 45.2825 101.976 45.4056C102.242 45.5288 102.536 45.5904 102.856 45.5904C103.202 45.5904 103.512 45.5234 103.784 45.3896C104.056 45.2503 104.293 45.0522 104.496 44.7952L105 45.2209C104.744 45.5636 104.435 45.8153 104.072 45.9759C103.714 46.1365 103.309 46.2169 102.856 46.2169C102.45 46.2169 102.072 46.1419 101.719 45.992C101.367 45.842 101.061 45.6359 100.799 45.3735C100.543 45.1058 100.341 44.7898 100.191 44.4257C100.047 44.0616 99.9752 43.6627 99.9752 43.2289C99.9752 42.8112 100.045 42.4203 100.183 42.0562C100.327 41.6921 100.527 41.3762 100.783 41.1084C101.039 40.8407 101.343 40.6292 101.695 40.4739C102.048 40.3186 102.434 40.241 102.856 40.241C103.24 40.241 103.608 40.3106 103.96 40.4498C104.317 40.589 104.616 40.8166 104.856 41.1325L104.272 41.5582Z" fill="black"></path><path d="M10.4 15V14.9V10.4H15V4.6H10.4V0H4.6V4.6H0V10.4H4.6V14.9V15H10.4Z" fill="#D3DF4C"></path><path d="M56.8 30.1002L49.3 19.1002L45.7 22.7002C45.8 22.0002 46.2 20.8002 46.2 20.1002C46.2 18.7002 45 17.8002 44.7 16.6002L55.7 4.1002H63L53.3 15.1002L63.6 30.1002H56.8Z" fill="#32363B"></path><path d="M27.8 11.2002C26.7 9.1002 25.1 7.5002 22.9 6.4002C22.2 6.0002 21.4 5.7002 20.7 5.5002C20.4 5.4002 20 5.3002 19.6 5.2002C19.5 5.2002 19.5 5.2002 19.4 5.2002C18.7 5.1002 17.9 5.0002 17 4.9002V10.2002C18.9 10.3002 20.8 11.2002 21.9 12.8002C22.8 14.1002 23.3 15.7002 23.3 17.6002C23.3 21.0002 21.7 23.6002 18.8 24.9002C17.6 25.4002 16.1 25.7002 14.6 25.7002H10.4V17.1002H4.59998V30.6002H14.2C17.4 30.6002 20.3 30.0002 22.7 28.7002C24.9 27.5002 26.6 25.9002 27.7 23.8002C28.7 21.9002 29.2 19.8002 29.2 17.4002C29.2 15.0002 28.7 13.0002 27.8 11.2002Z" fill="#32363B"></path><path d="M33.1 3.7002C30.5 3.7002 28.1 4.4002 26 5.7002C27.4 6.8002 28.6 8.2002 29.5 9.7002C30.6 9.2002 31.8 8.9002 33.1 8.9002C37.8 8.9002 41.7 12.8002 41.7 17.5002C41.7 22.2002 37.8 26.1002 33.1 26.1002C31.8 26.1002 30.5 25.8002 29.4 25.2002C28.5 26.7002 27.3 28.1002 25.8 29.2002C27.9 30.5002 30.4 31.3002 33.1 31.3002C40.7 31.3002 46.9 25.1002 46.9 17.5002C47 9.9002 40.8 3.7002 33.1 3.7002Z" fill="#32363B"></path><path d="M76.872 4.43213C78.648 4.43213 80.172 4.74413 81.444 5.36813C82.716 5.96813 83.676 6.80813 84.324 7.88813C84.996 8.94413 85.332 10.1441 85.332 11.4881C85.332 13.1441 84.9 14.4761 84.036 15.4841C83.196 16.4921 82.14 17.1281 80.868 17.3921V17.5721C84.156 18.6281 85.8 20.6801 85.8 23.7281C85.8 25.1921 85.464 26.5001 84.792 27.6521C84.12 28.7801 83.136 29.6681 81.84 30.3161C80.568 30.9401 79.032 31.2521 77.232 31.2521C74.304 31.2521 71.976 30.5321 70.248 29.0921C68.544 27.6521 67.62 25.4561 67.476 22.5041H73.488C73.536 23.6321 73.848 24.5201 74.424 25.1681C75 25.8161 75.84 26.1401 76.944 26.1401C77.832 26.1401 78.528 25.8761 79.032 25.3481C79.56 24.8201 79.824 24.1361 79.824 23.2961C79.824 21.2081 78.312 20.1641 75.288 20.1641H74.136V15.1601H75.252C77.964 15.2081 79.32 14.2361 79.32 12.2441C79.32 11.3801 79.08 10.7201 78.6 10.2641C78.144 9.78413 77.52 9.54413 76.728 9.54413C75.864 9.54413 75.18 9.84413 74.676 10.4441C74.172 11.0201 73.884 11.8001 73.812 12.7841H67.8C67.92 10.0961 68.76 8.03213 70.32 6.59213C71.88 5.15213 74.064 4.43213 76.872 4.43213Z" fill="#D3DF4C"></path><path d="M87.2209 26.1041C94.8529 20.6561 98.6689 16.3241 98.6689 13.1081C98.6689 11.1401 97.8169 10.1561 96.1129 10.1561C95.1529 10.1561 94.4449 10.4921 93.9889 11.1641C93.5569 11.8361 93.3169 12.8801 93.2689 14.2961H87.2569C87.4009 11.2001 88.3369 8.87213 90.0649 7.31213C91.7929 5.75213 93.9769 4.97213 96.6169 4.97213C99.3769 4.97213 101.453 5.66813 102.845 7.06013C104.261 8.45213 104.969 10.2641 104.969 12.4961C104.969 14.9681 104.021 17.3921 102.125 19.7681C100.229 22.1201 97.9609 24.1121 95.3209 25.7441H105.365V30.7121H87.2209V26.1041Z" fill="#D3DF4C"></path></svg>