<svg width="64" height="65" viewBox="0 0 64 65" fill="none" xmlns="http://www.w3.org/2000/svg"><path d="M11.8126 38.1125C11.3876 36.3375 11.1626 34.5 11.1626 32.6C11.1626 19.525 21.7626 8.9375 34.8251 8.9375C47.8876 8.9375 58.5001 19.525 58.5001 32.6C58.5001 45.675 47.9001 56.2625 34.8376 56.2625C29.5251 56.2625 24.6251 54.5125 20.6751 51.5625" stroke="white" stroke-width="1.5" stroke-miterlimit="10" stroke-linecap="round" stroke-linejoin="round"></path><path d="M34.8374 15.3375V30.2875" stroke="white" stroke-width="1.5" stroke-miterlimit="10" stroke-linecap="round" stroke-linejoin="round"></path><path d="M34.8374 34.9125C36.1146 34.9125 37.1499 33.8771 37.1499 32.6C37.1499 31.3228 36.1146 30.2875 34.8374 30.2875C33.5602 30.2875 32.5249 31.3228 32.5249 32.6C32.5249 33.8771 33.5602 34.9125 34.8374 34.9125Z" stroke="white" stroke-width="1.5" stroke-miterlimit="10" stroke-linecap="round" stroke-linejoin="round"></path><path d="M37.1499 32.6H52.0999" stroke="white" stroke-width="1.5" stroke-miterlimit="10" stroke-linecap="round" stroke-linejoin="round"></path><path d="M15.0625 55.4249C20.4818 55.4249 24.875 51.0317 24.875 45.6124C24.875 40.1931 20.4818 35.7999 15.0625 35.7999C9.64321 35.7999 5.25 40.1931 5.25 45.6124C5.25 51.0317 9.64321 55.4249 15.0625 55.4249Z" fill="#D3DF4C"></path><path d="M12.6001 45.6124H17.5251" stroke="white" stroke-width="1.5" stroke-miterlimit="10" stroke-linecap="round" stroke-linejoin="round"></path></svg>