<svg width="64" height="64" viewBox="0 0 64 64" fill="none" xmlns="http://www.w3.org/2000/svg"><path d="M31.9377 29.4247C36.1074 29.4247 39.4877 26.0445 39.4877 21.8747C39.4877 17.705 36.1074 14.3247 31.9377 14.3247C27.7679 14.3247 24.3877 17.705 24.3877 21.8747C24.3877 26.0445 27.7679 29.4247 31.9377 29.4247Z" stroke="#32363B" stroke-width="2" stroke-miterlimit="10" stroke-linecap="round" stroke-linejoin="round"></path><path d="M15.3876 17.2256L13.4126 25.4256C13.1501 26.4256 13.7876 27.4381 14.8126 27.6131L15.3501 27.7381C17.4251 28.2256 19.3376 29.2256 20.9126 30.6506L27.9376 28.2756" stroke="#32363B" stroke-width="2" stroke-miterlimit="10" stroke-linecap="round" stroke-linejoin="round"></path><path d="M12.788 16.1631L8.95048 26.1381C8.30048 27.8381 8.81298 29.7631 10.2255 30.9131L20.6505 39.3381L23.4755 54.6631" stroke="#32363B" stroke-width="2" stroke-miterlimit="10" stroke-linecap="round" stroke-linejoin="round"></path><path d="M15.3883 17.2253C17.4386 17.2253 19.1008 15.5632 19.1008 13.5128C19.1008 11.4624 17.4386 9.80029 15.3883 9.80029C13.3379 9.80029 11.6758 11.4624 11.6758 13.5128C11.6758 15.5632 13.3379 17.2253 15.3883 17.2253Z" stroke="#D3DF4C" stroke-width="2" stroke-miterlimit="10" stroke-linecap="round" stroke-linejoin="round"></path><path d="M48.4875 17.2256L50.4625 25.4256C50.725 26.4256 50.0875 27.4381 49.0625 27.6131L48.525 27.7381C46.45 28.2256 44.5375 29.2256 42.9625 30.6506L35.9375 28.2756" stroke="#32363B" stroke-width="2" stroke-miterlimit="10" stroke-linecap="round" stroke-linejoin="round"></path><path d="M51.0879 16.1631L54.9254 26.1381C55.5754 27.8381 55.0629 29.7631 53.6504 30.9131L43.2254 39.3381L40.4004 54.6631" stroke="#32363B" stroke-width="2" stroke-miterlimit="10" stroke-linecap="round" stroke-linejoin="round"></path><path d="M48.4879 17.2253C50.5382 17.2253 52.2004 15.5632 52.2004 13.5128C52.2004 11.4624 50.5382 9.80029 48.4879 9.80029C46.4375 9.80029 44.7754 11.4624 44.7754 13.5128C44.7754 15.5632 46.4375 17.2253 48.4879 17.2253Z" stroke="#D3DF4C" stroke-width="2" stroke-miterlimit="10" stroke-linecap="round" stroke-linejoin="round"></path><path d="M50.0994 41.7999C50.6931 41.7999 51.1744 41.3186 51.1744 40.7249C51.1744 40.1312 50.6931 39.6499 50.0994 39.6499C49.5057 39.6499 49.0244 40.1312 49.0244 40.7249C49.0244 41.3186 49.5057 41.7999 50.0994 41.7999Z" fill="#D3DF4C"></path><path d="M50.0994 47.4874C50.6931 47.4874 51.1744 47.0061 51.1744 46.4124C51.1744 45.8187 50.6931 45.3374 50.0994 45.3374C49.5057 45.3374 49.0244 45.8187 49.0244 46.4124C49.0244 47.0061 49.5057 47.4874 50.0994 47.4874Z" fill="#D3DF4C"></path><path d="M50.0994 53.1871C50.6931 53.1871 51.1744 52.7058 51.1744 52.1121C51.1744 51.5184 50.6931 51.0371 50.0994 51.0371C49.5057 51.0371 49.0244 51.5184 49.0244 52.1121C49.0244 52.7058 49.5057 53.1871 50.0994 53.1871Z" fill="#D3DF4C"></path><path d="M13.4871 41.7999C14.0808 41.7999 14.5621 41.3186 14.5621 40.7249C14.5621 40.1312 14.0808 39.6499 13.4871 39.6499C12.8934 39.6499 12.4121 40.1312 12.4121 40.7249C12.4121 41.3186 12.8934 41.7999 13.4871 41.7999Z" fill="#D3DF4C"></path><path d="M13.4871 47.4874C14.0808 47.4874 14.5621 47.0061 14.5621 46.4124C14.5621 45.8187 14.0808 45.3374 13.4871 45.3374C12.8934 45.3374 12.4121 45.8187 12.4121 46.4124C12.4121 47.0061 12.8934 47.4874 13.4871 47.4874Z" fill="#D3DF4C"></path><path d="M13.4871 53.1871C14.0808 53.1871 14.5621 52.7058 14.5621 52.1121C14.5621 51.5184 14.0808 51.0371 13.4871 51.0371C12.8934 51.0371 12.4121 51.5184 12.4121 52.1121C12.4121 52.7058 12.8934 53.1871 13.4871 53.1871Z" fill="#D3DF4C"></path></svg>