<svg width="64" height="65" viewBox="0 0 64 65" fill="none" xmlns="http://www.w3.org/2000/svg"><path d="M31.9992 30.975C38.8268 30.975 44.3617 25.4401 44.3617 18.6125C44.3617 11.7849 38.8268 6.25 31.9992 6.25C25.1716 6.25 19.6367 11.7849 19.6367 18.6125C19.6367 25.4401 25.1716 30.975 31.9992 30.975Z" stroke="white" stroke-width="1.5" stroke-miterlimit="10" stroke-linecap="round" stroke-linejoin="round"></path><path d="M50.4496 57.7249V53.7499C50.4496 46.1124 45.6246 39.2624 38.3871 36.8374C36.3871 36.1624 34.2371 35.7999 32.0121 35.7999C29.6246 35.7999 27.3496 36.2124 25.2246 36.9749C18.1746 39.5124 13.5371 46.2749 13.5371 53.7624V57.7249" stroke="white" stroke-width="1.5" stroke-miterlimit="10" stroke-linecap="round" stroke-linejoin="round"></path><path d="M31.9992 46.5126L34.3492 51.2876L39.6117 52.0501L35.8117 55.7626L36.7117 61.0001L31.9992 58.5251L27.2867 61.0001L28.1867 55.7626L24.3867 52.0501L29.6492 51.2876L31.9992 46.5126Z" fill="#D3DF4C"></path></svg>