<svg width="64" height="64" viewBox="0 0 64 64" fill="none" xmlns="http://www.w3.org/2000/svg"><path d="M37.675 7.4624C33.2125 7.4624 33.325 8.7624 28.5 8.7624C23.675 8.7624 22.1625 7.3999 17.7 7.3999C15.175 7.3999 8.8125 9.1749 8.8125 17.2374C8.8125 24.8874 12.3875 29.2999 13.1875 33.6374C14.075 38.4874 15.7875 59.8749 19.75 59.8749C23.7125 59.8749 21.4625 38.0124 28.5 38.0124C35.5375 38.0124 33.2875 59.8749 37.25 59.8749C41.2125 59.8749 42.6375 40.7249 43.525 35.8749" stroke="#32363B" stroke-width="2" stroke-miterlimit="10" stroke-linecap="round" stroke-linejoin="round"></path><path d="M56.8876 17.2375L47.5626 14.575L44.9001 5.25L42.2376 14.575L32.9126 17.2375L42.2376 19.9L44.9001 29.225L47.5626 19.9L56.8876 17.2375Z" stroke="#D3DF4C" stroke-width="2" stroke-miterlimit="10" stroke-linecap="round" stroke-linejoin="round"></path></svg>